<svg fill="none" viewBox="0 0 50 50" id="acrobats_ribbon" xmlns="http://www.w3.org/2000/svg"><g clip-path="url(#aaca)"><path d="M36.769 3.384 39.499 0c-2.756.177-8.158.502-11.69.913-4.416.513-11.657.593-16.594 4.642-4.938 4.048 11.535 7.813 16.621 8.784 5.087.97 13.285 1.5 17.288 6.5s2.298 8.818.78 9.913c-1.06.764-5.604 2.034-16.684-1.515-9.56-3.062-15.245-3.051-18.007-3.046h-.036C5.915 26.201-.46 27.31.105 31.577c.564 4.268 10.338 6.099 13.905 7.948 3.566 1.85 4.382 3.59 3.514 4.432-.868.843-6.027-.7-8.524-.957-2.498-.256-4.87-.14-6.116 2.113C1.886 46.915 5.382 49.127 7.5 50l6.5-2c-5.561-.505-10.096-1.186-9.56-3.107.336-1.206 3.329-1.246 6.569-.569 3.24.678 9.367 2.525 10.09 1.426.723-1.099-1.892-4.87-6.6-7.25-4.706-2.38-12.462-2.998-10.566-7.669 1.897-4.67 16.202-4.55 25.38-.502 11.016 4.857 15.12 5.123 18.101 4.029 2.98-1.094 3.655-5.678.952-10.46-4.322-7.644-12.824-9.384-18.896-10.626l-.156-.032c-6.082-1.245-14.294-3.736-13.898-6.007.397-2.271 5.155-4.854 11.326-5.533 4.936-.542 8.754 1.117 10.027 1.684Z" fill="#2FC4A7"/><path d="M36.769 3.384 39.499 0c-2.756.177-8.158.502-11.69.913-4.416.513-11.657.593-16.594 4.642-4.938 4.048 11.535 7.813 16.621 8.784 5.087.97 13.285 1.5 17.288 6.5s2.298 8.818.78 9.913c-1.06.764-5.604 2.034-16.684-1.515-9.56-3.062-15.245-3.051-18.007-3.046h-.036C5.915 26.201-.46 27.31.105 31.577c.564 4.268 10.338 6.099 13.905 7.948 3.566 1.85 4.382 3.59 3.514 4.432-.868.843-6.027-.7-8.524-.957-2.498-.256-4.87-.14-6.116 2.113C1.886 46.915 5.382 49.127 7.5 50l6.5-2c-5.561-.505-10.096-1.186-9.56-3.107.336-1.206 3.329-1.246 6.569-.569 3.24.678 9.367 2.525 10.09 1.426.723-1.099-1.892-4.87-6.6-7.25-4.706-2.38-12.462-2.998-10.566-7.669 1.897-4.67 16.202-4.55 25.38-.502 11.016 4.857 15.12 5.123 18.101 4.029 2.98-1.094 3.655-5.678.952-10.46-4.322-7.644-12.824-9.384-18.896-10.626l-.156-.032c-6.082-1.245-14.294-3.736-13.898-6.007.397-2.271 5.155-4.854 11.326-5.533 4.936-.542 8.754 1.117 10.027 1.684Z" fill="#000" fill-opacity=".4"/><path d="M36.668 2.746 39.5 0c-2.755.171-8.262-.127-11.792.274-4.412.502-11.65.568-16.577 4.58-4.928 4.012 11.544 7.782 16.63 8.755 5.085.973 13.28 1.515 17.29 6.489s2.313 8.762.797 9.847c-1.058.757-5.596 2.009-16.678-1.537-9.56-3.058-15.242-3.058-18.003-3.058h-.036c-5.26 0-11.628 1.089-11.057 5.328.572 4.24 10.344 6.077 13.912 7.92 3.569 1.844 4.387 3.574 3.52 4.41-.865.834-5.644-.484-8.14-.743-2.498-.26-5.247-.373-6.49 1.862C1.882 45.916 5.381 48.13 7.5 49l6.508-1.133c-5.56-.512-10.109-2.048-9.577-3.955.334-1.197 3.325-1.231 6.565-.553 3.24.68 9.367 2.526 10.087 1.435.721-1.09-1.86-4.283-6.57-6.656-4.709-2.374-12.501-3.558-10.614-8.193 1.888-4.636 16.186-4.488 25.367-.452 11.018 4.845 15.122 5.117 18.099 4.036 2.977-1.081 3.643-5.633.932-10.387-4.37-7.665-14.24-9.085-20.322-10.333-6.08-1.248-13.034-4.025-12.642-6.28.393-2.255 5.144-4.812 11.31-5.474 4.933-.53 8.752 1.125 10.025 1.691Z" fill="#2FC4A7"/><path d="M36.668 2.746 39.5 0c-2.755.171-8.262-.127-11.792.274-4.412.502-11.65.568-16.577 4.58-4.928 4.012 11.544 7.782 16.63 8.755 5.085.973 13.28 1.515 17.29 6.489s2.313 8.762.797 9.847c-1.058.757-5.596 2.009-16.678-1.537-9.56-3.058-15.242-3.058-18.003-3.058h-.036c-5.26 0-11.628 1.089-11.057 5.328.572 4.24 10.344 6.077 13.912 7.92 3.569 1.844 4.387 3.574 3.52 4.41-.865.834-5.644-.484-8.14-.743-2.498-.26-5.247-.373-6.49 1.862C1.882 45.916 5.381 48.13 7.5 49l6.508-1.133c-5.56-.512-10.109-2.048-9.577-3.955.334-1.197 3.325-1.231 6.565-.553 3.24.68 9.367 2.526 10.087 1.435.721-1.09-1.86-4.283-6.57-6.656-4.709-2.374-12.501-3.558-10.614-8.193 1.888-4.636 16.186-4.488 25.367-.452 11.018 4.845 15.122 5.117 18.099 4.036 2.977-1.081 3.643-5.633.932-10.387-4.37-7.665-14.24-9.085-20.322-10.333-6.08-1.248-13.034-4.025-12.642-6.28.393-2.255 5.144-4.812 11.31-5.474 4.933-.53 8.752 1.125 10.025 1.691Z" fill="#fff" fill-opacity=".2"/></g><defs><clipPath id="aaca"><path fill="#fff" transform="matrix(-1 0 0 1 50 0)" d="M0 0h50v50H0z"/></clipPath></defs></svg>