<svg fill="none" viewBox="0 0 50 50" id="amethyst" xmlns="http://www.w3.org/2000/svg"><path d="M19 21h12L25 7l-6 14Z" fill="#7445B8"/><path d="m31 21 9 4L25 7l6 14Z" fill="#7445B8"/><path d="m31 21 9 4L25 7l6 14Z" fill="#fff" fill-opacity=".6"/><path d="m19 21-9 4L25 7l-6 14Z" fill="#7445B8"/><path d="m19 21-9 4L25 7l-6 14Z" fill="#fff" fill-opacity=".2"/><path d="M40 25 25 43l6-22 9 4ZM10 25l15 18-6-22-9 4Z" fill="#7445B8"/><path d="m10 25 15 18-6-22-9 4Z" fill="#fff" fill-opacity=".4"/><path d="M19 21h12l-6 22-6-22Z" fill="#7445B8"/><path d="M19 21h12l-6 22-6-22Z" fill="#fff" fill-opacity=".2"/><path d="M10 25 25 7c-1.5 2-11.5 14.438-11.5 15 0 .5 2.5-.5 5.5-1l-9 4Z" fill="#7445B8"/><path d="M10 25 25 7c-1.5 2-11.5 14.438-11.5 15 0 .5 2.5-.5 5.5-1l-9 4Z" fill="#fff" fill-opacity=".95"/></svg>