<svg fill="none" viewBox="0 0 50 50" id="apple" xmlns="http://www.w3.org/2000/svg"><path d="M12.542 9.603C8.229 10.56 2 14.394 2 25.415c0 11.021 4.097 15.597 7.188 18.688 2.874 2.875 6.229 4.791 15.812 4.791 9.583 0 12.89-1.869 15.333-4.312C42.73 42.186 48 37.394 48 25.415c0-7.187-3.354-14.375-9.583-15.812C32.187 8.165 28.354 11.04 25 11.04c-3.354 0-8.146-2.396-12.458-1.437Z" fill="#D0333D"/><path d="M24.828 13.03c-3.24 0-5.888-2.432-6.536-.074-.648 2.36 4.592 4.792 7.184 4.792 3.24 0 7.67-2.875 7.19-4.792-.326-1.305-4.598.074-7.838.074Z" fill="#D0333D"/><path d="M24.828 13.03c-3.24 0-5.888-2.432-6.536-.074-.648 2.36 4.592 4.792 7.184 4.792 3.24 0 7.67-2.875 7.19-4.792-.326-1.305-4.598.074-7.838.074Z" fill="#000" fill-opacity=".2"/><path d="M16.282 11.538c3.26 1.7 6.43.647 7.88-.253-.587-2.095-1.648-5.356-5.072-6.873-3.424-1.517-6.387-.848-8.998 1.079 2.195 1.413 3.38 4.582 6.19 6.047Z" fill="#2FC4A7"/><path d="M16.282 11.538c3.26 1.7 6.43.647 7.88-.253-.587-2.095-1.648-5.356-5.072-6.873-3.424-1.517-6.387-.848-8.998 1.079 2.195 1.413 3.38 4.582 6.19 6.047Z" fill="#000" fill-opacity=".4"/><path d="m30.75 2.636-4.269-1.18c0 .983-1.342 3.539-1.83 5.898-.487 2.359-.61 6.487-.61 8.256 0 .394.245 1.18 1.22 1.18.976 0 1.22-.786 1.22-1.18.203-1.965.732-5.19 1.22-7.077.488-1.887 2.236-5.11 3.049-5.897Z" fill="#2FC4A7"/><path d="m30.75 2.636-4.269-1.18c0 .983-1.342 3.539-1.83 5.898-.487 2.359-.61 6.487-.61 8.256 0 .394.245 1.18 1.22 1.18.976 0 1.22-.786 1.22-1.18.203-1.965.732-5.19 1.22-7.077.488-1.887 2.236-5.11 3.049-5.897Z" fill="#000" fill-opacity=".4"/></svg>