<svg fill="none" viewBox="0 0 50 50" id="arcane_reflection" xmlns="http://www.w3.org/2000/svg"><g clip-path="url(#aava)"><path d="M9.737 2.014H40v3l1 2h4v41H11.316c-.527 0-3.158 0-4.737-1.568C5 44.877 5 43.309 5 42.786V6.718c0-1.045.737-2.3 1.579-3.136.842-.836 2.105-1.568 3.158-1.568Z" fill="#FAA21E"/><path d="M9.737 2.014H40v3l1 2h4v41H11.316c-.527 0-3.158 0-4.737-1.568C5 44.877 5 43.309 5 42.786V6.718c0-1.045.737-2.3 1.579-3.136.842-.836 2.105-1.568 3.158-1.568Z" fill="#000" fill-opacity=".1"/><path d="m43 9-3-4v35.031h-2L43 46V9Z" fill="#898989"/><path d="m43 9-3-4v35.031h-2L43 46V9Z" fill="#fff" fill-opacity=".2"/><path d="M10.093 40H38l5 6H10.093c-.504 0-3.119-.918-3.119-3.16C6.974 40.6 9.59 40 10.093 40Z" fill="#898989"/><path d="M10.093 40H38l5 6H10.093c-.504 0-3.119-.918-3.119-3.16C6.974 40.6 9.59 40 10.093 40Z" fill="#fff" fill-opacity=".6"/><g clip-path="url(#aavb)"><path d="m26.448 6.048.145.373-.145-.373Zm1.452.39.313-.251-.313.25Zm-2.058-.154.145.373-.145-.373Zm-1.089-.08-.197.348.197-.348Zm-.49-.278.198-.348-.198.348Zm-1.441.129.256.307-.256-.307Zm-.738.615-.256-.308.256.308Zm-.95.287.043-.398-.043.398Zm-.727-.079-.043.398.043-.398Zm-1.186.546.33.226-.33-.226Zm-.753 1.1.33.227-.33-.226Zm-.695.504.11.384-.11-.384Zm-1.004.29-.112-.384.112.384Zm-.84.783-.375-.138.375.138Zm-.553 1.507L15 11.47l.376.138Zm-.456.597.233.325-.233-.325ZM13.804 13l-.232-.326.232.326Zm-.525.894.397.044-.397-.044Zm-.189 1.688-.397-.045.397.045Zm-.263.643-.315-.247.315.247Zm-.994 1.266-.314-.247.314.247Zm-.258.964-.396.057.396-.057Zm.228 1.593-.397.057.396-.057Zm-.094.69-.367-.161.367.16Zm-.68 1.555.366.16-.367-.16Zm.007 1.037.364-.166-.364.166Zm.57 1.247.363-.166-.364.166Zm.095.745-.394-.069.394.069Zm-.274 1.581-.394-.068.394.068Zm.336 1.098-.289.277.289-.277Zm.724.754.288-.277-.288.277Zm.35.783.4-.03-.4.03Zm.102 1.33.4-.031-.4.03Zm.754 1.065.162-.366-.162.366Zm.669.295-.162.366.162-.366Zm.68.724-.376.138.375-.138Zm.331.902.376-.138-.376.138Zm1.184.832-.003.4.003-.4Zm.564.004.002-.4-.002.4Zm.982.476.312-.25-.312.25Zm.407.507-.312.25.312-.25Zm1.452.389.146.373-.146-.373Zm.606-.236-.145-.373.145.373Zm1.09.08.197-.348-.198.347Zm.49.278-.198.348.197-.348Zm1.44-.129-.256-.307.256.307Zm.739-.615.256.308-.256-.308Zm.95-.287-.043.398.043-.398Zm.727.079.043-.398-.043.398Zm1.185-.546.33.226-.33-.226Zm.753-1.1.33.225-.33-.226Zm.696-.504.111.384-.111-.384Zm1.004-.29-.112-.385.112.384Zm.84-.783-.376-.138.375.138Zm.553-1.507-.376-.138.376.138Zm.455-.597-.232-.326.232.326Zm1.116-.795.232.326-.232-.326Zm.526-.894.397.044-.397-.044Zm.188-1.688.398.044-.398-.044Zm.264-.643.314.246-.315-.247Zm.993-1.266-.315-.247.315.247Zm.258-.965.396-.056-.396.056Zm-.227-1.592-.396.056.396-.056Zm.094-.69.366.16-.366-.16Zm.68-1.555-.366-.16.366.16Zm-.008-1.037-.364.166.364-.166Zm-.569-1.247-.364.166.364-.166Zm-.096-.745-.394-.068.394.068Zm.274-1.581.394.068-.394-.068Zm-.335-1.098-.289.277.289-.277Zm-.725-.754.289-.277-.289.277Zm-.35-.783.399-.03-.4.03Zm-.102-1.33-.399.03.399-.03Zm-.754-1.065.162-.366-.162.366Zm-.669-.296-.161.366.161-.366Zm-.679-.723-.375.138.375-.138Zm-.332-.902-.375.138.375-.138Zm-1.184-.832-.003.4.003-.4Zm-.563-.004-.003.4.003-.4Zm-.983-.476.312-.25-.312.25Zm-2.004-1.269a1.671 1.671 0 0 1 1.91.512l-.625.5a.871.871 0 0 0-.995-.266l-.29-.746Zm-.606.236.606-.236.29.746-.606.236-.29-.746Zm-.746-.054a.87.87 0 0 0 .746.054l.29.746a1.67 1.67 0 0 1-1.431-.105l.395-.695Zm-.49-.279.49.279-.395.695-.49-.278.395-.696Zm-1.895.17a1.671 1.671 0 0 1 1.895-.17l-.395.696a.871.871 0 0 0-.988.088l-.512-.615Zm-.738.614.738-.615.512.615-.738.615-.512-.615Zm-.651.197a.871.871 0 0 0 .65-.197l.513.615c-.348.29-.8.426-1.25.378l.087-.796Zm-.727-.078.727.078-.087.796-.726-.08.086-.794Zm-1.56.717a1.671 1.671 0 0 1 1.56-.717l-.086.795a.87.87 0 0 0-.813.374l-.66-.452Zm-.752 1.1.753-1.1.66.452-.753 1.1-.66-.451Zm-.477.345a.871.871 0 0 0 .477-.344l.66.452c-.219.32-.542.553-.914.66l-.223-.768Zm-1.004.291 1.004-.29.223.768-1.004.29-.223-.768Zm-1.103 1.03a1.671 1.671 0 0 1 1.103-1.03l.223.769a.87.87 0 0 0-.575.536l-.751-.276ZM15 11.47l.554-1.507.75.276-.553 1.507-.75-.276Zm-.312.409a.871.871 0 0 0 .312-.41l.751.277c-.116.316-.324.59-.598.784l-.465-.651Zm-1.116.795 1.116-.795.465.651-1.117.796-.464-.652Zm-.69 1.176c.052-.473.303-.9.69-1.176l.464.652a.87.87 0 0 0-.36.612l-.795-.088Zm-.19 1.687.19-1.688.794.09-.188 1.687-.795-.089Zm-.18.441a.87.87 0 0 0 .18-.44l.796.088a1.671 1.671 0 0 1-.346.846l-.63-.494Zm-.993 1.266.993-1.266.63.494-.994 1.266-.63-.494Zm-.34 1.268c-.064-.451.058-.91.34-1.268l.629.494a.871.871 0 0 0-.177.66l-.792.114Zm.227 1.593-.227-1.593.792-.113.227 1.593-.792.113Zm-.064.472a.871.871 0 0 0 .064-.472l.792-.113a1.67 1.67 0 0 1-.123.905l-.733-.32Zm-.68 1.556.68-1.556.733.32-.68 1.557-.733-.321Zm.01 1.363a1.67 1.67 0 0 1-.01-1.363l.733.32a.87.87 0 0 0 .005.711l-.728.332Zm.57 1.247-.57-1.247.728-.332.57 1.247-.729.332Zm.065.51a.87.87 0 0 0-.066-.51l.728-.332c.14.306.184.647.126.98l-.788-.138Zm-.274 1.582.274-1.582.788.137-.274 1.582-.788-.137Zm.441 1.443a1.67 1.67 0 0 1-.441-1.443l.788.137a.871.871 0 0 0 .23.752l-.577.554Zm.724.754-.724-.754.577-.554.724.753-.577.555Zm.24.536a.871.871 0 0 0-.24-.536l.577-.555c.269.28.432.644.461 1.03l-.797.061Zm.103 1.33-.102-1.33.797-.06.102 1.329-.797.061Zm.99 1.4a1.67 1.67 0 0 1-.99-1.4l.797-.061c.025.32.223.6.517.73l-.323.732Zm.67.296-.67-.295.324-.732.669.296-.324.731Zm.465.496a.871.871 0 0 0-.466-.496l.324-.732c.414.183.736.527.893.952l-.751.276Zm.332.902-.332-.902.75-.276.332.902-.75.276Zm1.556 1.094a1.671 1.671 0 0 1-1.556-1.094l.75-.276c.126.34.449.567.812.57l-.006.8Zm.564.004-.564-.004.006-.8.563.004-.005.8Zm.673.326a.87.87 0 0 0-.673-.326l.005-.8c.503.003.978.233 1.292.625l-.624.5Zm.407.507-.407-.507.624-.5.407.506-.624.5Zm1.91.512a1.67 1.67 0 0 1-1.91-.512l.624-.5a.87.87 0 0 0 .995.266l.29.746Zm.605-.236-.605.236-.29-.746.605-.236.29.746Zm.746.054a.871.871 0 0 0-.746-.054l-.29-.746a1.67 1.67 0 0 1 1.432.105l-.396.695Zm.49.279-.49-.279.396-.695.49.278-.395.696Zm1.895-.17a1.67 1.67 0 0 1-1.895.17l.396-.696c.315.18.709.144.987-.088l.512.614Zm.739-.614-.738.614-.513-.614.739-.615.512.614Zm.65-.197a.87.87 0 0 0-.65.197l-.512-.615a1.67 1.67 0 0 1 1.249-.378l-.086.796Zm.728.078-.727-.078.086-.796.727.079-.086.795Zm1.558-.717a1.671 1.671 0 0 1-1.558.717l.086-.795a.871.871 0 0 0 .812-.374l.66.452Zm.754-1.1-.754 1.1-.66-.452.753-1.1.66.451Zm.476-.346a.87.87 0 0 0-.476.345l-.66-.452c.218-.32.541-.553.913-.661l.223.768Zm1.004-.29-1.004.29-.223-.768 1.004-.29.223.768Zm1.104-1.03a1.67 1.67 0 0 1-1.104 1.03l-.223-.769a.871.871 0 0 0 .576-.536l.75.276Zm.553-1.506-.553 1.507-.751-.276.553-1.507.75.276Zm.312-.41a.871.871 0 0 0-.312.41l-.751-.276c.116-.316.325-.59.599-.785l.464.652Zm1.116-.794-1.116.795-.464-.652 1.116-.795.464.652Zm.691-1.176a1.67 1.67 0 0 1-.69 1.175l-.465-.651a.871.871 0 0 0 .36-.612l.795.088Zm.189-1.688-.189 1.688-.795-.088.189-1.688.795.088Zm.18-.44a.87.87 0 0 0-.18.44l-.795-.088c.034-.31.154-.602.346-.847l.63.494Zm.994-1.266-.994 1.265-.63-.494.994-1.265.63.494Zm.34-1.268a1.67 1.67 0 0 1-.34 1.268l-.63-.494a.87.87 0 0 0 .177-.661l.792-.113Zm-.228-1.593.227 1.593-.792.113-.227-1.593.792-.113Zm.064-.472a.871.871 0 0 0-.064.472l-.792.113a1.672 1.672 0 0 1 .123-.906l.733.32Zm.68-1.556-.68 1.556-.733-.32.68-1.557.734.32Zm-.01-1.363c.197.432.201.928.01 1.363l-.732-.32a.871.871 0 0 0-.006-.711l.728-.332Zm-.569-1.247.569 1.247-.728.332-.569-1.247.728-.332Zm-.066-.51a.872.872 0 0 0 .066.51l-.728.332a1.67 1.67 0 0 1-.126-.98l.788.137Zm.274-1.582-.274 1.581-.788-.136.274-1.582.788.137Zm-.44-1.443c.367.383.531.92.44 1.443l-.788-.137a.87.87 0 0 0-.23-.752l.577-.554Zm-.725-.754.724.754-.577.554-.724-.754.577-.554Zm-.24-.537a.87.87 0 0 0 .24.537l-.577.554a1.671 1.671 0 0 1-.461-1.03l.798-.06Zm-.102-1.33.102 1.33-.798.062-.102-1.33.798-.061Zm-.991-1.4c.563.249.944.787.99 1.4l-.797.062a.87.87 0 0 0-.516-.73l.323-.732Zm-.67-.295.67.295-.323.732-.67-.296.324-.731Zm-.465-.496c.082.221.25.4.466.496l-.323.731a1.67 1.67 0 0 1-.893-.951l.75-.276Zm-.331-.902.331.902-.75.276-.332-.902.75-.276Zm-1.557-1.094a1.67 1.67 0 0 1 1.557 1.094l-.751.276a.87.87 0 0 0-.811-.57l.005-.8Zm-.564-.004.564.004-.006.8-.563-.004.006-.8Zm-.673-.326a.87.87 0 0 0 .674.326l-.006.8a1.67 1.67 0 0 1-1.292-.626l.624-.5Zm-.407-.507.407.507-.624.5-.407-.507.624-.5Zm4.217 17.34c-.94 3.506-2.827 6.42-5.139 8.29-2.311 1.87-5.074 2.714-7.725 2.003l.207-.773c2.343.628 4.848-.1 7.015-1.852 2.167-1.753 3.969-4.515 4.87-7.875l.772.206ZM26.435 8.18c2.651.71 4.622 2.822 5.689 5.598 1.066 2.775 1.245 6.242.305 9.748l-.773-.206c.901-3.361.72-6.654-.28-9.255-1-2.602-2.805-4.485-5.148-5.113l.207-.772ZM13.571 18.473c.94-3.506 2.827-6.42 5.139-8.29 2.311-1.87 5.074-2.714 7.725-2.003l-.207.772c-2.343-.627-4.848.1-7.015 1.853s-3.969 4.515-4.87 7.875l-.772-.207Zm5.994 15.347c-2.651-.71-4.622-2.823-5.689-5.598-1.066-2.775-1.245-6.242-.305-9.749l.773.207c-.901 3.361-.72 6.654.28 9.255 1 2.602 2.805 4.485 5.148 5.113l-.207.772Z" fill="#FEFEFE"/><ellipse cx="23" cy="21" rx="9.337" ry="12.838" transform="rotate(14.765 23 21)" fill="#FAA21E"/><path d="m18.2 11.4-2.56 3.2 9.954 18.13 3.166-3.09L31 25.8 21.4 9.16l-3.2 2.24Z" fill="#FAA21E"/><path d="m18.2 11.4-2.56 3.2 9.954 18.13 3.166-3.09L31 25.8 21.4 9.16l-3.2 2.24Z" fill="#fff" fill-opacity=".2"/><path d="M30.68 12.04c2.126 3.911 2.091 6.31 1.509 10.676L31 26.12 21.08 9.16l2.847-.754c3.234.06 4.685.916 6.753 3.634Z" fill="#FAA21E"/><path d="M30.68 12.04c2.126 3.911 2.091 6.31 1.509 10.676L31 26.12 21.08 9.16l2.847-.754c3.234.06 4.685.916 6.753 3.634Z" fill="#fff" fill-opacity=".4"/><ellipse cx="23" cy="21" rx="9.581" ry="13.174" transform="rotate(15 23 21)" stroke="#FEFEFE" stroke-width=".96"/><path d="M23 25.16c1.72-.889 2.105-1.876 2.56-4.16.206 2.136.871 3.052 2.56 4.16-1.756 1.007-2.331 1.987-2.56 4.16-.558-2.185-.96-3.154-2.56-4.16ZM15.96 20.36c1.29-.684 1.579-1.443 1.92-3.2.154 1.643.653 2.347 1.92 3.2-1.317.774-1.748 1.528-1.92 3.2-.418-1.68-.72-2.426-1.92-3.2ZM21.08 13.96c1.29-.684 1.579-1.443 1.92-3.2.154 1.643.653 2.347 1.92 3.2-1.317.774-1.748 1.528-1.92 3.2-.418-1.68-.72-2.426-1.92-3.2Z" fill="#FEFEFE"/></g></g><defs><clipPath id="aava"><path fill="#fff" transform="matrix(-1 0 0 1 50 0)" d="M0 0h50v50H0z"/></clipPath><clipPath id="aavb"><path fill="#fff" transform="matrix(-1 0 0 1 39 5)" d="M0 0h32v32H0z"/></clipPath></defs></svg>