<svg fill="none" viewBox="0 0 50 50" id="chaotic_chain" xmlns="http://www.w3.org/2000/svg"><g clip-path="url(#aeza)"><path fill-rule="evenodd" clip-rule="evenodd" d="M9.572 1.857a5.455 5.455 0 0 0-7.715 7.714l5.786 5.786a5.455 5.455 0 1 0 7.714-7.714L9.572 1.857Zm-1.93 1.929a2.727 2.727 0 1 0-3.856 3.857l5.785 5.786a2.727 2.727 0 1 0 3.857-3.858L7.643 3.786Z" fill="#D0333D"/><path fill-rule="evenodd" clip-rule="evenodd" d="M9.572 1.857a5.455 5.455 0 0 0-7.715 7.714l5.786 5.786a5.455 5.455 0 1 0 7.714-7.714L9.572 1.857Zm-1.93 1.929a2.727 2.727 0 1 0-3.856 3.857l5.785 5.786a2.727 2.727 0 1 0 3.857-3.858L7.643 3.786Z" fill="#000" fill-opacity=".2"/><path fill-rule="evenodd" clip-rule="evenodd" d="M42.357 34.643a5.455 5.455 0 1 0-7.714 7.714l5.786 5.786a5.455 5.455 0 1 0 7.714-7.714l-5.786-5.786ZM40.43 36.57a2.728 2.728 0 0 0-3.858 3.858l5.786 5.785a2.728 2.728 0 0 0 3.857-3.857l-5.785-5.786Z" fill="#D0333D"/><path fill-rule="evenodd" clip-rule="evenodd" d="M42.357 34.643a5.455 5.455 0 1 0-7.714 7.714l5.786 5.786a5.455 5.455 0 1 0 7.714-7.714l-5.786-5.786ZM40.43 36.57a2.728 2.728 0 0 0-3.858 3.858l5.786 5.785a2.728 2.728 0 0 0 3.857-3.857l-5.785-5.786Z" fill="#000" fill-opacity=".2"/><path fill-rule="evenodd" clip-rule="evenodd" d="M25.964 18.25a5.455 5.455 0 1 0-7.714 7.714l5.785 5.786a5.455 5.455 0 0 0 7.715-7.714l-5.786-5.786Zm-1.928 1.929a2.728 2.728 0 0 0-3.858 3.857l5.786 5.785a2.727 2.727 0 1 0 3.857-3.857l-5.785-5.785Z" fill="#D0333D"/><path fill-rule="evenodd" clip-rule="evenodd" d="M25.964 18.25a5.455 5.455 0 1 0-7.714 7.714l5.785 5.786a5.455 5.455 0 0 0 7.715-7.714l-5.786-5.786Zm-1.928 1.929a2.728 2.728 0 0 0-3.858 3.857l5.786 5.785a2.727 2.727 0 1 0 3.857-3.857l-5.785-5.785Z" fill="#000" fill-opacity=".2"/><rect x="12.143" y="10.214" width="15.91" height="2.727" rx="1.364" transform="rotate(45 12.143 10.214)" fill="#D0333D"/><rect x="12.143" y="10.214" width="15.91" height="2.727" rx="1.364" transform="rotate(45 12.143 10.214)" fill="#fff" fill-opacity=".2"/><rect x="28.535" y="26.607" width="15.91" height="2.727" rx="1.364" transform="rotate(45 28.535 26.607)" fill="#D0333D"/><rect x="28.535" y="26.607" width="15.91" height="2.727" rx="1.364" transform="rotate(45 28.535 26.607)" fill="#fff" fill-opacity=".2"/></g><defs><clipPath id="aeza"><path fill="#fff" transform="matrix(-1 0 0 1 50 0)" d="M0 0h50v50H0z"/></clipPath></defs></svg>