<svg fill="none" viewBox="0 0 50 50" id="chimerical_quiver" xmlns="http://www.w3.org/2000/svg"><g clip-path="url(#agca)"><ellipse cx="31.871" cy="17.345" rx="8.472" ry="1.21" transform="rotate(45 31.87 17.345)" fill="#898989"/><ellipse cx="31.871" cy="17.345" rx="8.472" ry="1.21" transform="rotate(45 31.87 17.345)" fill="#000" fill-opacity=".4"/><path d="m40.487 3.71-3.423 3.423" stroke="#2FC4A7" stroke-width="1.21"/><path d="m40.487 3.71-3.423 3.423" stroke="#000" stroke-opacity=".2" stroke-width="1.21"/><path d="m32.785 11.412-30.81 30.81" stroke="#898989" stroke-width="1.21"/><path d="m40.915 5.85-2.995.427.428-2.995-5.135 5.135-1.284 3.85 3.851-1.283 5.135-5.135Z" fill="#898989"/><path d="m40.915 5.85-2.995.427.428-2.995-5.135 5.135-1.284 3.85 3.851-1.283 5.135-5.135Z" fill="#fff" fill-opacity=".6"/><path d="m45.622 7.133-3.424 3.423" stroke="#2FC4A7" stroke-width="1.21"/><path d="m45.622 7.133-3.424 3.423" stroke="#000" stroke-opacity=".2" stroke-width="1.21"/><path d="M37.92 14.835 7.11 45.645" stroke="#898989" stroke-width="1.21"/><path d="m46.05 9.273-2.996.427.428-2.995-5.135 5.135-1.283 3.851 3.85-1.284 5.136-5.134Z" fill="#898989"/><path d="m46.05 9.273-2.996.427.428-2.995-5.135 5.135-1.283 3.851 3.85-1.284 5.136-5.134Z" fill="#fff" fill-opacity=".6"/><path d="M38.62.425 35.61 4.22" stroke="#2FC4A7" stroke-width="1.21"/><path d="M38.62.425 35.61 4.22" stroke="#fff" stroke-opacity=".2" stroke-width="1.21"/><path d="M31.852 8.96 4.78 43.1" stroke="#898989" stroke-width="1.21"/><path d="M31.852 8.96 4.78 43.1" stroke="#fff" stroke-opacity=".4" stroke-width="1.21"/><path d="m39.29 2.502-2.926.768.081-3.024-4.512 5.69-.833 3.973 3.678-1.717 4.512-5.69Z" fill="#FEFEFE"/><path d="m45.622 3.71-3.424 3.423" stroke="#2FC4A7" stroke-width="1.21"/><path d="m45.622 3.71-3.424 3.423" stroke="#fff" stroke-opacity=".2" stroke-width="1.21"/><path d="M37.92 11.412 7.11 42.222" stroke="#898989" stroke-width="1.21"/><path d="M37.92 11.412 7.11 42.222" stroke="#fff" stroke-opacity=".4" stroke-width="1.21"/><path d="m46.05 5.85-2.996.427.428-2.995-5.135 5.135-1.283 3.85 3.85-1.283L46.05 5.85Z" fill="#FEFEFE"/><path d="m48.901 12.477-3.854 2.93" stroke="#2FC4A7" stroke-width="1.21"/><path d="m48.901 12.477-3.854 2.93" stroke="#fff" stroke-opacity=".2" stroke-width="1.21"/><path d="M40.23 19.069 5.541 45.435" stroke="#898989" stroke-width="1.21"/><path d="M40.23 19.069 5.541 45.435" stroke="#fff" stroke-opacity=".4" stroke-width="1.21"/><path d="m49.036 14.655-3.025.02.828-2.91-5.781 4.393-1.792 3.643 3.989-.752 5.781-4.394Z" fill="#FEFEFE"/><path d="M18.546.528c5.703.814 7.129 6.62 7.129 12.22l-3.056 2.547c.17-1.358.51-4.583 0-6.62-.665-2.66-1.527-5.601-6.11-6.62-1.487-.33-3.296-.124-5.079.513-2.862 2.51-4.495 6.992-4.495 12.218 0 1.708.234 3.318.661 4.828 3.127 3.523 7.706 6.873 11.968 9.43 7.638 4.583 9.675 14.258 4.583 17.313-.651.391-1.429.678-2.279.877-.38.47-.81.863-1.285 1.16-3.26 2.037-10.355.849-12.222 0l2.037-2.546c1.547 1.266 7.36 2.35 11.47 1.386 2.88-3.553 2.888-11.416-2.203-14.116-5.394-2.861-10.33-7.363-12.069-13.504-2.477-2.792-4.043-5.692-3.818-8.393.344-4.128 3.941-7.326 7.652-8.653C13.31.92 15.72.124 18.546.528Z" fill="#FAA21E"/><path d="M18.546.528c5.703.814 7.129 6.62 7.129 12.22l-3.056 2.547c.17-1.358.51-4.583 0-6.62-.665-2.66-1.527-5.601-6.11-6.62-1.487-.33-3.296-.124-5.079.513-2.862 2.51-4.495 6.992-4.495 12.218 0 1.708.234 3.318.661 4.828 3.127 3.523 7.706 6.873 11.968 9.43 7.638 4.583 9.675 14.258 4.583 17.313-.651.391-1.429.678-2.279.877-.38.47-.81.863-1.285 1.16-3.26 2.037-10.355.849-12.222 0l2.037-2.546c1.547 1.266 7.36 2.35 11.47 1.386 2.88-3.553 2.888-11.416-2.203-14.116-5.394-2.861-10.33-7.363-12.069-13.504-2.477-2.792-4.043-5.692-3.818-8.393.344-4.128 3.941-7.326 7.652-8.653C13.31.92 15.72.124 18.546.528Z" fill="#000" fill-opacity=".4"/><path fill-rule="evenodd" clip-rule="evenodd" d="m37.856 23.34.005-.005-.005.005Zm-.006.006L8.764 49.01l-.079.011c-1.019.148-2.91.423-5.912-2.579C-.228 43.44.046 41.55.195 40.53l.01-.078 25.658-29.078c-.395.533 1.887 3.561 5.152 6.827 3.283 3.283 6.327 5.572 6.835 5.145Z" fill="#2FC4A7"/><path fill-rule="evenodd" clip-rule="evenodd" d="m37.856 23.34.005-.005-.005.005Zm-.006.006L8.764 49.01l-.079.011c-1.019.148-2.91.423-5.912-2.579C-.228 43.44.046 41.55.195 40.53l.01-.078 25.658-29.078c-.395.533 1.887 3.561 5.152 6.827 3.283 3.283 6.327 5.572 6.835 5.145Z" fill="#000" fill-opacity=".4"/><path d="M31.015 18.2c-4.108-4.107-5.135-6.275-5.135-6.846l-3.594 4.108c.57 1.141 2.482 4.194 4.878 6.59s5.449 4.307 6.59 4.878l4.108-3.595c-.57 0-2.739-1.027-6.847-5.134Z" fill="#FAA21E"/><path d="M31.015 18.2c-4.108-4.107-5.135-6.275-5.135-6.846l-3.594 4.108c.57 1.141 2.482 4.194 4.878 6.59s5.449 4.307 6.59 4.878l4.108-3.595c-.57 0-2.739-1.027-6.847-5.134Z" fill="#000" fill-opacity=".1"/><path d="M6.624 42.591c-2.934-2.934-3.36-5.304-3.252-5.82l-3.166 3.68c-.428 2.14.856 4.28 2.567 5.991 1.712 1.712 3.851 2.996 5.99 2.568l3.68-3.167c-.514.108-2.884-.318-5.819-3.252Z" fill="#FAA21E"/><path d="M6.624 42.591c-2.934-2.934-3.36-5.304-3.252-5.82l-3.166 3.68c-.428 2.14.856 4.28 2.567 5.991 1.712 1.712 3.851 2.996 5.99 2.568l3.68-3.167c-.514.108-2.884-.318-5.819-3.252Z" fill="#000" fill-opacity=".1"/><path d="M18.606 29.754c-.359-3.228-.243-7.945.042-10.227l-2.01 2.268c-.437 2.69-.672 5.74-.172 9.243.438 3.068 1.555 8.116 2.268 9.114l1.84-1.583c-.428-1.284-1.54-4.964-1.968-8.815Z" fill="#FAA21E"/><path d="M18.606 29.754c-.359-3.228-.243-7.945.042-10.227l-2.01 2.268c-.437 2.69-.672 5.74-.172 9.243.438 3.068 1.555 8.116 2.268 9.114l1.84-1.583c-.428-1.284-1.54-4.964-1.968-8.815Z" fill="#000" fill-opacity=".1"/><path d="M19.419 30.567c3.227.359 7.944.242 10.226-.043l-2.267 2.011c-2.691.437-5.74.672-9.243.172-3.069-.439-8.116-1.555-9.114-2.268l1.583-1.84c1.284.427 4.964 1.54 8.815 1.968Z" fill="#FAA21E"/><path d="M19.419 30.567c3.227.359 7.944.242 10.226-.043l-2.267 2.011c-2.691.437-5.74.672-9.243.172-3.069-.439-8.116-1.555-9.114-2.268l1.583-1.84c1.284.427 4.964 1.54 8.815 1.968Z" fill="#000" fill-opacity=".1"/></g><defs><clipPath id="agca"><path fill="#fff" transform="matrix(-1 0 0 1 50 0)" d="M0 0h50v50H0z"/></clipPath></defs></svg>