<svg fill="none" viewBox="0 0 50 50" id="chimerical_essence" xmlns="http://www.w3.org/2000/svg"><circle cx="24.907" cy="24.907" r="22.417" stroke="#1D8CE0" stroke-width=".996"/><circle cx="24.907" cy="24.907" r="22.417" stroke="#fff" stroke-opacity=".95" stroke-width=".996"/><path d="M40.35 31.881c3.188-7.571 0-16.438-4.981-20.922.996 4.484.298 11.159-2.491 17.934-2.79 6.774-9.133 11.125-11.956 12.453 5.48 1.495 16.24-1.893 19.428-9.464Z" fill="#FEFEFE" fill-opacity=".15"/><path d="M14.446 8.967c-2.84 2.501-3.985 5.977-3.985 8.966.486-2.06 3.582-6.233 6.476-7.97 2.463-1.478 4.483-2.989 7.97-3.487-3.487-.498-7.62-.01-10.46 2.49ZM33.874 39.852c3.487-1.993 6.974-6.974 6.974-9.963-.74 2.989-4.685 6.815-7.472 8.468-3.052 1.81-8.967 3.487-12.454 3.487 3.487.997 8.967.285 12.952-1.992Z" fill="#FEFEFE"/><circle cx="25" cy="25" r="14" fill="#898989"/><circle cx="25" cy="25" r="14" fill="#fff" fill-opacity=".95"/><path d="M25 39c7.732 0 14-6.268 14-14 0-5.781-3.504-10.744-8.504-12.88.501.747 1.672 2.856 2.344 5.32.84 3.08 1.12 10.36-1.4 12.88-2.52 2.52-5.88 3.92-10.92 2.52-4.032-1.12-8.02-5.32-9.51-7.28C11.306 33.032 17.456 39 25 39Z" fill="#898989"/><path d="M25 39c7.732 0 14-6.268 14-14 0-5.781-3.504-10.744-8.504-12.88.501.747 1.672 2.856 2.344 5.32.84 3.08 1.12 10.36-1.4 12.88-2.52 2.52-5.88 3.92-10.92 2.52-4.032-1.12-8.02-5.32-9.51-7.28C11.306 33.032 17.456 39 25 39Z" fill="#fff" fill-opacity=".6"/><circle cx="25" cy="25" r="11.2" fill="#2FC4A7"/><path d="M25 36.2c6.186 0 11.2-5.015 11.2-11.2a11.17 11.17 0 0 0-3.64-8.264c.373 1.728 1.176 6.024.28 9.384-1.12 4.2-3.92 6.16-7.84 6.72-4.712.673-8.245-2.147-10.268-3.36A11.203 11.203 0 0 0 25 36.2Z" fill="#2FC4A7"/><path d="M25 36.2c6.186 0 11.2-5.015 11.2-11.2a11.17 11.17 0 0 0-3.64-8.264c.373 1.728 1.176 6.024.28 9.384-1.12 4.2-3.92 6.16-7.84 6.72-4.712.673-8.245-2.147-10.268-3.36A11.203 11.203 0 0 0 25 36.2Z" fill="#000" fill-opacity=".2"/><path d="m25.28 25.297-1.12 1.733m1.12-1.733 1.68 2.022m-1.68-2.021-1.05-1.444m1.05 1.444a34.268 34.268 0 0 0 2.52-1.763m1.4-1.414 1.82.433m-1.82-.433c-.103.32-.684.854-1.4 1.414m1.4-1.414c.097-.299.232-.968.369-1.732m.471-2.888c-.106.711-.29 1.882-.471 2.888m3.271 2.599 1.68 2.31m-1.68-2.31-1.82-.434m1.82.434 1.68-.29m-5.88 6.642-1.68-2.021m1.68 2.021-1.68 2.31.84 2.31m.84-4.62.28 1.588m1.96 2.166-1.68-.578-.28-1.588m-7-.433v3.176m0-3.176-2.66-1.01m2.66 1.01 2.24-3.465m-7.56 1.444 2.66 1.01m1.82-13.138v3.177l1.05 1.443m1.05 1.444-1.75.289m1.75-.289 1.05 1.444m-1.05-1.444-1.05-1.444m-4.97 0 1.26 1.01m0 0 1.26 1.012 1.75-.29m-3.01-.721-2.38 1.588m3.22 5.92-1.54 1.01m3.71-7.796-1.75 3.176m0 0-3.08.578m3.08-.578-1.26-1.444m5.74 2.599-1.4.18m-3.08.398 3.08-.398m0 0-.84-2.779m5.04 2.888-.56 1.588m.56-1.588 2.52.289 1.12 1.299m-7 5.053 1.12-1.733m0 0 1.12-1.732.56-1.588m-1.68 3.32 1.68 1.733m0-5.053-2.24.577-.56 1.588m3.36-6.64 2.24 1.299m3.92 5.341-.84-2.02m-3.36 1.876 1.96-.433m-1.68-4.764 2.24 1.299.84 2.021m-3.08-3.32 2.24-.434 3.08 2.31m-2.24 1.444h1.96m-3.22-6.497-.98 1.877m-5.81-.577-.63-3.465.56-2.455m.56-2.454-.56 2.454m0 0-.98-.433-.98-1.444m-.07 4.91-2.45-1.733H18m9.8 4.3v-1.572m0-1.573.56-2.166m-.56 2.166-.35-1.083m.35 1.083v1.573m-1.4-5.904.7 2.165m0 0 1.54-1.588m-1.54 1.588.35 1.083m2.119 1.083 1.216-.433m2.615.433-1.4-.866-1.215.433m0 0 1.495 1.588m-4.83-2.238-1.61-1.083m1.96 3.739-1.12-.664M25 19.956l1.12 1.01.56.332m0 0-1.68.664m1.12 2.47.28-1.878m-5.152-3.248 1.512-.954" stroke="#2FC4A7" stroke-width=".56"/><path d="m25.28 25.297-1.12 1.733m1.12-1.733 1.68 2.022m-1.68-2.021-1.05-1.444m1.05 1.444a34.268 34.268 0 0 0 2.52-1.763m1.4-1.414 1.82.433m-1.82-.433c-.103.32-.684.854-1.4 1.414m1.4-1.414c.097-.299.232-.968.369-1.732m.471-2.888c-.106.711-.29 1.882-.471 2.888m3.271 2.599 1.68 2.31m-1.68-2.31-1.82-.434m1.82.434 1.68-.29m-5.88 6.642-1.68-2.021m1.68 2.021-1.68 2.31.84 2.31m.84-4.62.28 1.588m1.96 2.166-1.68-.578-.28-1.588m-7-.433v3.176m0-3.176-2.66-1.01m2.66 1.01 2.24-3.465m-7.56 1.444 2.66 1.01m1.82-13.138v3.177l1.05 1.443m1.05 1.444-1.75.289m1.75-.289 1.05 1.444m-1.05-1.444-1.05-1.444m-4.97 0 1.26 1.01m0 0 1.26 1.012 1.75-.29m-3.01-.721-2.38 1.588m3.22 5.92-1.54 1.01m3.71-7.796-1.75 3.176m0 0-3.08.578m3.08-.578-1.26-1.444m5.74 2.599-1.4.18m-3.08.398 3.08-.398m0 0-.84-2.779m5.04 2.888-.56 1.588m.56-1.588 2.52.289 1.12 1.299m-7 5.053 1.12-1.733m0 0 1.12-1.732.56-1.588m-1.68 3.32 1.68 1.733m0-5.053-2.24.577-.56 1.588m3.36-6.64 2.24 1.299m3.92 5.341-.84-2.02m-3.36 1.876 1.96-.433m-1.68-4.764 2.24 1.299.84 2.021m-3.08-3.32 2.24-.434 3.08 2.31m-2.24 1.444h1.96m-3.22-6.497-.98 1.877m-5.81-.577-.63-3.465.56-2.455m.56-2.454-.56 2.454m0 0-.98-.433-.98-1.444m-.07 4.91-2.45-1.733H18m9.8 4.3v-1.572m0-1.573.56-2.166m-.56 2.166-.35-1.083m.35 1.083v1.573m-1.4-5.904.7 2.165m0 0 1.54-1.588m-1.54 1.588.35 1.083m2.119 1.083 1.216-.433m2.615.433-1.4-.866-1.215.433m0 0 1.495 1.588m-4.83-2.238-1.61-1.083m1.96 3.739-1.12-.664M25 19.956l1.12 1.01.56.332m0 0-1.68.664m1.12 2.47.28-1.878m-5.152-3.248 1.512-.954" stroke="#fff" stroke-opacity=".8" stroke-width=".56"/><path d="m25.256 15.366-.241-.542-.265.53c-.398.797-.682 2.215-.868 3.903-.188 1.702-.282 3.72-.282 5.743 0 2.024.094 3.948.282 5.604.188 1.65.47 3.052.858 4.02l.247.616.269-.606c.392-.882.675-2.29.862-3.96.189-1.68.282-3.65.282-5.674 0-2.024-.093-3.994-.282-5.673-.187-1.67-.47-3.079-.862-3.96Z" fill="#898989"/><path d="m25.256 15.366-.241-.542-.265.53c-.398.797-.682 2.215-.868 3.903-.188 1.702-.282 3.72-.282 5.743 0 2.024.094 3.948.282 5.604.188 1.65.47 3.052.858 4.02l.247.616.269-.606c.392-.882.675-2.29.862-3.96.189-1.68.282-3.65.282-5.674 0-2.024-.093-3.994-.282-5.673-.187-1.67-.47-3.079-.862-3.96Z" fill="#000" fill-opacity=".8"/><path d="m25.256 15.366-.241-.542-.265.53c-.398.797-.682 2.215-.868 3.903-.188 1.702-.282 3.72-.282 5.743 0 2.024.094 3.948.282 5.604.188 1.65.47 3.052.858 4.02l.247.616.269-.606c.392-.882.675-2.29.862-3.96.189-1.68.282-3.65.282-5.674 0-2.024-.093-3.994-.282-5.673-.187-1.67-.47-3.079-.862-3.96Z" stroke="#2FC4A7" stroke-width=".56"/><path d="m25.256 15.366-.241-.542-.265.53c-.398.797-.682 2.215-.868 3.903-.188 1.702-.282 3.72-.282 5.743 0 2.024.094 3.948.282 5.604.188 1.65.47 3.052.858 4.02l.247.616.269-.606c.392-.882.675-2.29.862-3.96.189-1.68.282-3.65.282-5.674 0-2.024-.093-3.994-.282-5.673-.187-1.67-.47-3.079-.862-3.96Z" stroke="#fff" stroke-opacity=".8" stroke-width=".56"/></svg>