<svg fill="none" viewBox="0 0 50 50" id="enchanted_essence" xmlns="http://www.w3.org/2000/svg"><circle cx="24.907" cy="24.907" r="22.417" stroke="#1D8CE0" stroke-width=".996"/><circle cx="24.907" cy="24.907" r="22.417" stroke="#fff" stroke-opacity=".95" stroke-width=".996"/><path d="M40.35 31.881c3.188-7.571 0-16.438-4.981-20.922.996 4.484.298 11.159-2.491 17.934-2.79 6.774-9.133 11.125-11.956 12.453 5.48 1.495 16.24-1.893 19.428-9.464Z" fill="#FEFEFE" fill-opacity=".15"/><path d="M14.446 8.967c-2.84 2.501-3.985 5.977-3.985 8.966.486-2.06 3.582-6.233 6.476-7.97 2.463-1.478 4.483-2.989 7.97-3.487-3.487-.498-7.62-.01-10.46 2.49Z" fill="#FEFEFE"/><path d="M29.51 13.191c-.127-2.032-6.224-1.937-2.898-3.55-2.898.645-5.152 1.613-3.864 3.227 1.158 1.451-3.953 2.898-2.254 3.874 2.616 1.503-2.906 2.022-4.172 2.816-1.267.794-.317 2.223-.317 3.175 0 .953-3.959 3.493-3.8 4.922.158 1.43 1.583 2.54 1.583 3.652 0 1.111-1.108 2.858 0 5.875 1.108 3.016 8.867 3.016 9.818 2.381.95-.635 3.325 1.588 4.275 1.429.95-.159 1.742-2.064 3.959-1.429s4.75-4.604 5.225-6.033c.475-1.43-.95-5.557-1.742-6.827-.791-1.27-.316-2.89 0-4.796.317-1.905-2.058-2.032-4.117-2.349-2.058-.317-2.692-1.874-3.325-3.462-.633-1.587 1.787-.365 1.628-2.905Z" fill="#546DDB"/><path d="M21.709 9.97c.502-1.018 5.218-.546 6.054-.97-.261.848-3.244.657-2.868 1.293.47.795 3.505.996 3.505 2.586 0 1.59-2.066 2.242-1.752 3.036.313.795 5.014 1.113 6.268 1.75 1.254.635.157 2.702.47 3.497.313.794.47.318 2.194.477 1.724.159 0 2.543 0 3.179 0 .636.94 1.59.94 2.543 0 .954-.783 1.908-.94 2.862-.157.954.94 4.133.47 4.928-.47.795-2.82 1.113-3.448 1.59-.626.477-.313 2.544-1.253 3.18-.94.635-4.231 0-5.015 0-.783 0-1.567 1.748-2.664.794-1.097-.954-1.567-.795-3.29-.795-1.724 0-2.978-1.748-3.918-2.543-.94-.795-.784-2.703-1.41-3.498-.627-.794-1.881-1.59-1.724-2.861.156-1.272-.314-1.59-.47-3.02-.157-1.431.783-4.77 1.566-5.883.784-1.112 6.172-2.787 6.33-3.741.156-.954-2.701-1.171-2.231-3.556.47-2.384 4.466-1.155 4.78-2.586.313-1.43-2.22-.99-1.594-2.262Z" fill="#7445B8"/><path d="M21.709 9.97c.502-1.018 5.218-.546 6.054-.97-.261.848-3.244.657-2.868 1.293.47.795 3.505.996 3.505 2.586 0 1.59-2.066 2.242-1.752 3.036.313.795 5.014 1.113 6.268 1.75 1.254.635.157 2.702.47 3.497.313.794.47.318 2.194.477 1.724.159 0 2.543 0 3.179 0 .636.94 1.59.94 2.543 0 .954-.783 1.908-.94 2.862-.157.954.94 4.133.47 4.928-.47.795-2.82 1.113-3.448 1.59-.626.477-.313 2.544-1.253 3.18-.94.635-4.231 0-5.015 0-.783 0-1.567 1.748-2.664.794-1.097-.954-1.567-.795-3.29-.795-1.724 0-2.978-1.748-3.918-2.543-.94-.795-.784-2.703-1.41-3.498-.627-.794-1.881-1.59-1.724-2.861.156-1.272-.314-1.59-.47-3.02-.157-1.431.783-4.77 1.566-5.883.784-1.112 6.172-2.787 6.33-3.741.156-.954-2.701-1.171-2.231-3.556.47-2.384 4.466-1.155 4.78-2.586.313-1.43-2.22-.99-1.594-2.262Z" fill="#fff" fill-opacity=".2"/><path d="M23.08 13.16c.64-.64 1.887-.32 2.88-1.6-.223.712-1.94 2.22-.96 3.2.96.96 2.24 1.225 2.24 2.56s-2.352 2.045-1.6 3.2c.96 1.474 4.052-1.174 5.12-.64 1.068.534 1.013 1.892 1.28 2.56.267.668 1.269.883 2.738 1.016 1.468.134-.818 2.29-.818 2.824 0 .534 1.28.799 1.28 1.6s-.498 1.693-.96 2.56c-.382.717.898 2.852.498 3.52-.401.668-1.979 1.338-3.058 1.6-.649.158-.479 2.346-1.28 2.88-.801.534-2.873.373-3.541.373-.668 0-1.335 1.47-2.27.668-.935-.801-1.336-.668-2.805-.668s-2.537-1.469-3.338-2.136c-.801-.668-.668-2.27-1.202-2.938-.534-.668-2.124-1.379-1.884-3.299.134-1.068 1.414-2.318 1.28-3.52-.133-1.202-.64-4.16 0-4.8 1.216-1.217 5.626.161 5.76-.64.133-.801-2.176-1.92-1.92-3.2.4-2.003 2.613-.718 2.88-1.92.267-1.202-1.127-2.394-.32-3.2Z" fill="#546DDB"/><path d="M23.08 13.16c.64-.64 1.887-.32 2.88-1.6-.223.712-1.94 2.22-.96 3.2.96.96 2.24 1.225 2.24 2.56s-2.352 2.045-1.6 3.2c.96 1.474 4.052-1.174 5.12-.64 1.068.534 1.013 1.892 1.28 2.56.267.668 1.269.883 2.738 1.016 1.468.134-.818 2.29-.818 2.824 0 .534 1.28.799 1.28 1.6s-.498 1.693-.96 2.56c-.382.717.898 2.852.498 3.52-.401.668-1.979 1.338-3.058 1.6-.649.158-.479 2.346-1.28 2.88-.801.534-2.873.373-3.541.373-.668 0-1.335 1.47-2.27.668-.935-.801-1.336-.668-2.805-.668s-2.537-1.469-3.338-2.136c-.801-.668-.668-2.27-1.202-2.938-.534-.668-2.124-1.379-1.884-3.299.134-1.068 1.414-2.318 1.28-3.52-.133-1.202-.64-4.16 0-4.8 1.216-1.217 5.626.161 5.76-.64.133-.801-2.176-1.92-1.92-3.2.4-2.003 2.613-.718 2.88-1.92.267-1.202-1.127-2.394-.32-3.2Z" fill="#fff" fill-opacity=".6"/><circle cx="25" cy="30.12" r="7.68" fill="#7445B8"/><circle cx="25" cy="30.12" r="7.68" fill="#fff" fill-opacity=".95"/><circle cx="25" cy="30.12" r="6.4" fill="#7445B8"/><circle cx="25" cy="30.12" r="6.4" fill="#fff" fill-opacity=".6"/><circle cx="25" cy="30.12" r="5.12" fill="#7445B8"/><circle cx="25" cy="30.12" r="5.12" fill="#fff" fill-opacity=".4"/><path d="M33.874 39.852c3.487-1.993 6.974-6.974 6.974-9.963-.74 2.989-4.685 6.815-7.472 8.468-3.052 1.81-8.967 3.487-12.454 3.487 3.487.997 8.967.285 12.952-1.992Z" fill="#FEFEFE"/></svg>