<svg fill="none" viewBox="0 0 50 50" id="jackalope_staff" xmlns="http://www.w3.org/2000/svg"><g clip-path="url(#anta)"><path d="M44.638 4.79c-.224-1.654 1.146-4.774.481-4.702-.375.041-2.812 3.473-2.563 5.835.25 2.362 1.945 4.05 3.045 2.896 1.068-1.12-.74-2.373-.963-4.028Z" fill="#7445B8"/><path d="M27.294 25.578a.908.908 0 1 0 1.284-1.285l-2.651-2.65a.908.908 0 1 0-1.285 1.284l2.652 2.65Z" fill="#2FC4A7"/><path d="M27.294 25.578a.908.908 0 1 0 1.284-1.285l-2.651-2.65a.908.908 0 1 0-1.285 1.284l2.652 2.65Z" fill="#000" fill-opacity=".2"/><path d="m26.299 25.701-2-2L4.418 43.582 3.5 44.5l2 2 .918-.918 19.88-19.88Z" fill="#2FC4A7"/><path d="m26.299 25.701-2-2L4.418 43.582 3.5 44.5l2 2 .918-.918 19.88-19.88Z" fill="#000" fill-opacity=".2"/><ellipse cx="2.516" cy="47.516" rx="2.099" ry="2.105" transform="rotate(45 2.516 47.516)" fill="#2FC4A7"/><ellipse cx="2.516" cy="47.516" rx="2.099" ry="2.105" transform="rotate(45 2.516 47.516)" fill="#000" fill-opacity=".2"/><path d="M34.206 14.143c-5.041 1.688-7.972 6.803-6.179 8.238 2.575 2.06 4.268-4.47 8.753-6.178 5.555-2.117 8.397-4.282 10.303-7.206C48.99 6.072 49.917.25 49.377.11c-.457-.118-1.684 4.52-3.384 6.644-1.7 2.124-3.732 2.867-5.446 3.035-3.6.352-5.503-7.747-5.803-7.572-.3.175-.673 5.9 1.176 7.659 1.848 1.758 1.705 3.122-1.714 4.267Z" fill="#7445B8"/><path d="M34.206 14.143c-5.041 1.688-7.972 6.803-6.179 8.238 2.575 2.06 4.268-4.47 8.753-6.178 5.555-2.117 8.397-4.282 10.303-7.206C48.99 6.072 49.917.25 49.377.11c-.457-.118-1.684 4.52-3.384 6.644-1.7 2.124-3.732 2.867-5.446 3.035-3.6.352-5.503-7.747-5.803-7.572-.3.175-.673 5.9 1.176 7.659 1.848 1.758 1.705 3.122-1.714 4.267Z" fill="#fff" fill-opacity=".2"/><path d="M42.93 15.123c2.873-.06 6.776-2.353 7.059-1.907.283.445-2.844 4.25-6.886 4.41-4.042.158-7.54-1.572-6.615-2.937 1.416-2.092 3.568.494 6.441.434Z" fill="#7445B8"/><path d="M42.93 15.123c2.873-.06 6.776-2.353 7.059-1.907.283.445-2.844 4.25-6.886 4.41-4.042.158-7.54-1.572-6.615-2.937 1.416-2.092 3.568.494 6.441.434Z" fill="#fff" fill-opacity=".4"/></g><defs><clipPath id="anta"><path fill="#fff" transform="matrix(-1 0 0 1 50 0)" d="M0 0h50v50H0z"/></clipPath></defs></svg>