<svg fill="none" viewBox="0 0 50 50" id="magicians_cloth" xmlns="http://www.w3.org/2000/svg"><g clip-path="url(#aora)"><path d="M3.632 20.604C2.485 21.464 0 23.853 0 25.955c0 1.147 4.587 6.881 8.028 9.175 3.055 2.037 6.414 4.587 9.472 7.454s5.427 7.607 6 7.416c.573-.191 2.758-5.138 4.98-7.416C31 40 33.64 37.997 36.315 37.041c2.676-.955 5.684-3.041 3.823-4.97-1.887-1.954-10.895 1.53-12.998 1.53-1.681 0-12.55-10.449-17.966-15.482-2.676.764-4.397 1.625-5.543 2.485Z" fill="#D0333D"/><path d="M3.632 20.604C2.485 21.464 0 23.853 0 25.955c0 1.147 4.587 6.881 8.028 9.175 3.055 2.037 6.414 4.587 9.472 7.454s5.427 7.607 6 7.416c.573-.191 2.758-5.138 4.98-7.416C31 40 33.64 37.997 36.315 37.041c2.676-.955 5.684-3.041 3.823-4.97-1.887-1.954-10.895 1.53-12.998 1.53-1.681 0-12.55-10.449-17.966-15.482-2.676.764-4.397 1.625-5.543 2.485Z" fill="#000" fill-opacity=".2"/><path d="M27.17 38.562c-2.147-.346-3.165.134-4.785 1.708.894-1.864.843-2.938-.249-4.888 2.244.272 3.18-.251 4.521-1.875-.573 2.122-.542 3.244.514 5.055Z" stroke="#898989" stroke-linecap="round" stroke-linejoin="round"/><path d="M27.17 38.562c-2.147-.346-3.165.134-4.785 1.708.894-1.864.843-2.938-.249-4.888 2.244.272 3.18-.251 4.521-1.875-.573 2.122-.542 3.244.514 5.055Z" stroke="#fff" stroke-opacity=".6" stroke-linecap="round" stroke-linejoin="round"/><path fill-rule="evenodd" clip-rule="evenodd" d="M11.567 22.195a.571.571 0 0 1 .595.546l.086 1.999a.571.571 0 0 1-1.142.048l-.085-1.998a.572.572 0 0 1 .546-.595Zm-4.372 4.762a.571.571 0 0 1 .546-.595l1.999-.086a.571.571 0 0 1 .048 1.142l-1.998.085a.572.572 0 0 1-.595-.546Zm5.994-.256a.571.571 0 0 1 .547-.595l1.998-.085a.572.572 0 0 1 .049 1.142l-1.998.085a.571.571 0 0 1-.596-.547Zm-1.366 1.488a.571.571 0 0 1 .595.547l.086 1.998a.572.572 0 0 1-1.142.049l-.086-1.998a.571.571 0 0 1 .547-.596Z" fill="#898989"/><path fill-rule="evenodd" clip-rule="evenodd" d="M11.567 22.195a.571.571 0 0 1 .595.546l.086 1.999a.571.571 0 0 1-1.142.048l-.085-1.998a.572.572 0 0 1 .546-.595Zm-4.372 4.762a.571.571 0 0 1 .546-.595l1.999-.086a.571.571 0 0 1 .048 1.142l-1.998.085a.572.572 0 0 1-.595-.546Zm5.994-.256a.571.571 0 0 1 .547-.595l1.998-.085a.572.572 0 0 1 .049 1.142l-1.998.085a.571.571 0 0 1-.596-.547Zm-1.366 1.488a.571.571 0 0 1 .595.547l.086 1.998a.572.572 0 0 1-1.142.049l-.086-1.998a.571.571 0 0 1 .547-.596Z" fill="#fff" fill-opacity=".6"/><path d="M12.262 26.74a.5.5 0 1 1-1 .043.5.5 0 0 1 1-.042Z" fill="#898989"/><path d="M12.262 26.74a.5.5 0 1 1-1 .043.5.5 0 0 1 1-.042Z" fill="#fff" fill-opacity=".6"/><path d="M36.316 28.344c-1.784.637-5.658 2.179-6.88 3.25-.702 1.528-2.677 3.63-1.721 4.969.314.44 1.72.382 2.485-.191.764-.574 1.72-1.912 4.97-3.44 2.599-1.224 4.33-1.432 5.33-.432-.382-.573-1.508-1.862-2.273-2.627a11.284 11.284 0 0 0-1.91-1.529Z" fill="#D0333D"/><path d="M36.316 28.344c-1.784.637-5.658 2.179-6.88 3.25-.702 1.528-2.677 3.63-1.721 4.969.314.44 1.72.382 2.485-.191.764-.574 1.72-1.912 4.97-3.44 2.599-1.224 4.33-1.432 5.33-.432-.382-.573-1.508-1.862-2.273-2.627a11.284 11.284 0 0 0-1.91-1.529Z" fill="#000" fill-opacity=".4"/><path d="M35.17 9.421C31.728 6.554 25.611-.709 25.038.056c-.574.765-3.555 2.867-10.895 5.16C6.804 7.51 3.5 11.5 4.205 15.157 6 18 10.859 23.011 13 25c2.676 2.485 15.5 13 14.5 11-.5-2 3.273-5.744 11.683-7.656 8.41-1.911 11.468-7.836 10.704-8.219-1.53-.765-11.277-7.837-14.718-10.704Z" fill="#D0333D"/><path d="M35.17 9.421C31.728 6.554 25.611-.709 25.038.056c-.574.765-3.555 2.867-10.895 5.16C6.804 7.51 3.5 11.5 4.205 15.157 6 18 10.859 23.011 13 25c2.676 2.485 15.5 13 14.5 11-.5-2 3.273-5.744 11.683-7.656 8.41-1.911 11.468-7.836 10.704-8.219-1.53-.765-11.277-7.837-14.718-10.704Z" fill="#fff" fill-opacity=".2"/><path d="M11.957 17.533c-.6-1.787-1.464-2.429-3.57-3.19 2.06.102 3.007-.28 4.304-1.756.705 1.838 1.574 2.402 3.609 2.93-2.159.23-3.157.613-4.343 2.016ZM38.95 22.564c-.58-1.792-1.439-2.442-3.538-3.225 2.06.123 3.01-.25 4.321-1.713.688 1.845 1.551 2.417 3.58 2.965-2.16.21-3.162.582-4.362 1.973Z" stroke="#FEFEFE" stroke-linecap="round" stroke-linejoin="round"/><path fill-rule="evenodd" clip-rule="evenodd" d="M26.037 22.236a.571.571 0 0 1 .54.6l-.102 1.997a.571.571 0 1 1-1.142-.059l.103-1.997a.571.571 0 0 1 .6-.541Zm-4.801 4.33a.572.572 0 0 1 .6-.542l1.997.103a.571.571 0 1 1-.059 1.142l-1.997-.103a.572.572 0 0 1-.541-.6Zm5.992.309a.571.571 0 0 1 .6-.542l1.997.103a.571.571 0 1 1-.059 1.142l-1.997-.103a.571.571 0 0 1-.541-.6Zm-1.5 1.353a.571.571 0 0 1 .54.6l-.102 1.997a.572.572 0 0 1-1.142-.059l.103-1.997a.571.571 0 0 1 .6-.541Z" fill="#FEFEFE"/><path d="M26.3 26.827a.5.5 0 1 1-.998-.052.5.5 0 0 1 .998.052Z" fill="#FEFEFE"/><path fill-rule="evenodd" clip-rule="evenodd" d="M25.288 3.366c.315.025.55.3.524.615l-.16 1.993a.571.571 0 1 1-1.14-.09l.16-1.995c.026-.314.301-.549.616-.523Zm-4.922 4.19c.025-.314.3-.548.615-.523l1.993.16a.571.571 0 0 1-.09 1.139l-1.994-.16a.571.571 0 0 1-.524-.615Zm5.98.48c.026-.314.301-.549.616-.523l1.993.16a.571.571 0 0 1-.091 1.139l-1.994-.16a.571.571 0 0 1-.524-.615Zm-1.538 1.31c.315.026.55.301.524.616l-.16 1.993a.571.571 0 0 1-1.14-.091l.16-1.994c.026-.314.302-.549.616-.524Z" fill="#FEFEFE"/><path d="M25.42 7.962a.5.5 0 1 1-.996-.08.5.5 0 0 1 .997.08Z" fill="#FEFEFE"/></g><defs><clipPath id="aora"><path fill="#fff" transform="matrix(-1 0 0 1 50 0)" d="M0 0h50v50H0z"/></clipPath></defs></svg>