<svg fill="none" viewBox="0 0 50 50" id="mana_spring" xmlns="http://www.w3.org/2000/svg"><path d="M9.737 2.014H40v3l1 2h4v41H11.316c-.527 0-3.158 0-4.737-1.568C5 44.877 5 43.309 5 42.786V6.718c0-1.045.737-2.3 1.579-3.136.842-.836 2.105-1.568 3.158-1.568Z" fill="#7445B8"/><path d="m43 9-3-4v35.031h-2L43 46V9Z" fill="#898989"/><path d="m43 9-3-4v35.031h-2L43 46V9Z" fill="#fff" fill-opacity=".2"/><path d="M10.093 40H38l5 6H10.093c-.504 0-3.119-.918-3.119-3.16C6.974 40.6 9.59 40 10.093 40Z" fill="#898989"/><path d="M10.093 40H38l5 6H10.093c-.504 0-3.119-.918-3.119-3.16C6.974 40.6 9.59 40 10.093 40Z" fill="#fff" fill-opacity=".6"/><g clip-path="url(#aoxa)"><path d="M22.667 32.995h-3.255c.29-2.387.78-7.812.434-10.416-.434-3.255-2.17-5.642-3.69-5.642-2.169 0-2.603 1.435-2.603 2.604 0 .868.434 1.591.868 1.953-.217-.651.13-1.389.65-1.736.652-.434 2.17-.434 2.388 1.302.217 1.736-1.52 3.255-3.69 2.604-2.169-.651-2.444-3.804-1.518-5.425.868-1.519 2.485-2.925 5.208-1.953 2.43.868 3.906 4.63 4.123 6.293-.073-2.098.01-7.423 2.387-11.067 3.255-4.99 7.811-4.122 9.547-2.17 1.961 2.206 2.821 4.991 1.302 7.812-1.519 2.821-5.859 2.604-7.16 0-.971-1.94 0-4.34 2.17-4.34 1.735 0 2.459 1.736 2.603 2.604.362-.94.651-3.168-.217-4.557-1.085-1.736-3.255-1.953-4.99-.434-1.541 1.348-2.822 4.774-3.255 10.199-.348 4.34 1.157 9.765 1.953 11.934-.652.145-2.214.434-3.255.434Z" fill="#7445B8"/><path d="M22.667 32.995h-3.255c.29-2.387.78-7.812.434-10.416-.434-3.255-2.17-5.642-3.69-5.642-2.169 0-2.603 1.435-2.603 2.604 0 .868.434 1.591.868 1.953-.217-.651.13-1.389.65-1.736.652-.434 2.17-.434 2.388 1.302.217 1.736-1.52 3.255-3.69 2.604-2.169-.651-2.444-3.804-1.518-5.425.868-1.519 2.485-2.925 5.208-1.953 2.43.868 3.906 4.63 4.123 6.293-.073-2.098.01-7.423 2.387-11.067 3.255-4.99 7.811-4.122 9.547-2.17 1.961 2.206 2.821 4.991 1.302 7.812-1.519 2.821-5.859 2.604-7.16 0-.971-1.94 0-4.34 2.17-4.34 1.735 0 2.459 1.736 2.603 2.604.362-.94.651-3.168-.217-4.557-1.085-1.736-3.255-1.953-4.99-.434-1.541 1.348-2.822 4.774-3.255 10.199-.348 4.34 1.157 9.765 1.953 11.934-.652.145-2.214.434-3.255.434Z" fill="#fff" fill-opacity=".95"/><path d="M16.016 20.775c-.091-.333-.137-.715.194-.72.406-.008.665.639.7 1.001.041.428-.207 1.146-1.053 1.598.62-1.148.25-1.545.159-1.879Z" fill="#7445B8"/><path d="M16.016 20.775c-.091-.333-.137-.715.194-.72.406-.008.665.639.7 1.001.041.428-.207 1.146-1.053 1.598.62-1.148.25-1.545.159-1.879Z" fill="#fff" fill-opacity=".6"/><path d="M29.29 14.59c.268-.411.501-.912.084-1.076-.512-.203-1.138.556-1.348 1.035-.249.564-.263 1.664.604 2.684-.26-1.864.392-2.23.66-2.642Z" fill="#7445B8"/><path d="M29.29 14.59c.268-.411.501-.912.084-1.076-.512-.203-1.138.556-1.348 1.035-.249.564-.263 1.664.604 2.684-.26-1.864.392-2.23.66-2.642Z" fill="#fff" fill-opacity=".6"/><path d="M15.072 31.259c0-.868 1.88-1.375 2.604-1.52-.362.29-1.52.435-1.52 1.303 0 .867 4.124 1.736 6.51 1.736 2.387 0 6.51-.868 6.51-1.736s-.868-1.013-1.302-1.302c.724.217 2.17.824 2.17 1.519 0 .867-2.604 2.386-7.377 2.386-4.774 0-7.595-1.302-7.595-2.386Z" fill="#7445B8"/><path d="M15.072 31.259c0-.868 1.88-1.375 2.604-1.52-.362.29-1.52.435-1.52 1.303 0 .867 4.124 1.736 6.51 1.736 2.387 0 6.51-.868 6.51-1.736s-.868-1.013-1.302-1.302c.724.217 2.17.824 2.17 1.519 0 .867-2.604 2.386-7.377 2.386-4.774 0-7.595-1.302-7.595-2.386Z" fill="#fff" fill-opacity=".6"/><path d="M11.6 31.692c0-1.446 4.123-3.254 7.378-2.82-1.953-.02-6.293 1.374-6.293 2.82 0 1.447 5.859 2.894 9.837 2.894 3.978 0 9.692-1.447 9.692-2.893 0-1.447-3.038-2.387-6.293-2.821 3.906-.434 7.595 1.663 7.595 2.82 0 1.447-3.038 4.34-10.994 4.34-7.956 0-10.922-2.531-10.922-4.34Z" fill="#7445B8"/><path d="M11.6 31.692c0-1.446 4.123-3.254 7.378-2.82-1.953-.02-6.293 1.374-6.293 2.82 0 1.447 5.859 2.894 9.837 2.894 3.978 0 9.692-1.447 9.692-2.893 0-1.447-3.038-2.387-6.293-2.821 3.906-.434 7.595 1.663 7.595 2.82 0 1.447-3.038 4.34-10.994 4.34-7.956 0-10.922-2.531-10.922-4.34Z" fill="#fff" fill-opacity=".6"/><path d="M15.095 10.385c-.848-1.005-.992-2.602.414-3.789 1.406-1.186 3.415-.567 4.087.565.981 1.655.334 3.962.83 5.263-1.199-.708-3.939-.389-5.331-2.039Z" fill="#7445B8"/><path d="M15.095 10.385c-.848-1.005-.992-2.602.414-3.789 1.406-1.186 3.415-.567 4.087.565.981 1.655.334 3.962.83 5.263-1.199-.708-3.939-.389-5.331-2.039Z" fill="#fff" fill-opacity=".95"/><path d="M18.746 10.14c.005.46-.148.983.409.991.557.008.627-.713.623-1.173-.006-.582-.173-1.317-.73-1.325-.741-.011-.306 1.046-.302 1.507Z" fill="#7445B8"/><path d="M18.746 10.14c.005.46-.148.983.409.991.557.008.627-.713.623-1.173-.006-.582-.173-1.317-.73-1.325-.741-.011-.306 1.046-.302 1.507Z" fill="#fff" fill-opacity=".6"/><path d="M18.483 8.292c.242.025.615-.06.635-.302.02-.243-.12-.624-.314-.644-.242-.024-.606-.04-.635.302-.02.243.142.626.314.644Z" fill="#7445B8"/><path d="M18.483 8.292c.242.025.615-.06.635-.302.02-.243-.12-.624-.314-.644-.242-.024-.606-.04-.635.302-.02.243.142.626.314.644Z" fill="#fff" fill-opacity=".6"/><path d="M15.854 6.985c.742-.625 1.951-.285 2.463-.037-.37.01-1.268.163-1.904.7-.636.536-1.013 1.308-1.122 1.626-.12-.502-.178-1.663.563-2.289Z" fill="#7445B8"/><path d="M15.854 6.985c.742-.625 1.951-.285 2.463-.037-.37.01-1.268.163-1.904.7-.636.536-1.013 1.308-1.122 1.626-.12-.502-.178-1.663.563-2.289Z" fill="#fff" fill-opacity=".6"/><path d="M15.854 6.985c.742-.625 1.951-.285 2.463-.037-.37.01-1.268.163-1.904.7-.636.536-1.013 1.308-1.122 1.626-.12-.502-.178-1.663.563-2.289Z" fill="#7445B8"/><path d="M15.854 6.985c.742-.625 1.951-.285 2.463-.037-.37.01-1.268.163-1.904.7-.636.536-1.013 1.308-1.122 1.626-.12-.502-.178-1.663.563-2.289Z" fill="#fff" fill-opacity=".6"/><path d="M15.854 6.985c.742-.625 1.951-.285 2.463-.037-.37.01-1.268.163-1.904.7-.636.536-1.013 1.308-1.122 1.626-.12-.502-.178-1.663.563-2.289Z" fill="#7445B8"/><path d="M15.854 6.985c.742-.625 1.951-.285 2.463-.037-.37.01-1.268.163-1.904.7-.636.536-1.013 1.308-1.122 1.626-.12-.502-.178-1.663.563-2.289Z" fill="#fff" fill-opacity=".6"/><path d="M10.375 15.544c-.782-.188-1.433-.924-1.17-2.019.263-1.095 1.478-1.519 2.22-1.204 1.085.46 1.602 1.832 2.32 2.294-.849.086-2.084 1.237-3.37.929Z" fill="#7445B8"/><path d="M10.375 15.544c-.782-.188-1.433-.924-1.17-2.019.263-1.095 1.478-1.519 2.22-1.204 1.085.46 1.602 1.832 2.32 2.294-.849.086-2.084 1.237-3.37.929Z" fill="#fff" fill-opacity=".95"/><path d="M12.087 14.098c.17.225.284.539.561.34.278-.197.05-.578-.118-.804-.214-.285-.563-.587-.84-.389-.37.264.228.628.397.853Z" fill="#7445B8"/><path d="M12.087 14.098c.17.225.284.539.561.34.278-.197.05-.578-.118-.804-.214-.285-.563-.587-.84-.389-.37.264.228.628.397.853Z" fill="#fff" fill-opacity=".6"/><path d="M11.286 13.282c.129-.075.282-.252.204-.379-.078-.127-.286-.264-.388-.204-.129.076-.314.2-.204.38.078.127.297.257.388.203Z" fill="#7445B8"/><path d="M11.286 13.282c.129-.075.282-.252.204-.379-.078-.127-.286-.264-.388-.204-.129.076-.314.2-.204.38.078.127.297.257.388.203Z" fill="#fff" fill-opacity=".6"/><path d="M9.516 13.592c.139-.578.858-.849 1.201-.912-.179.139-.566.54-.685 1.036a2.523 2.523 0 0 0 .037 1.209c-.242-.204-.692-.756-.553-1.333Z" fill="#7445B8"/><path d="M9.516 13.592c.139-.578.858-.849 1.201-.912-.179.139-.566.54-.685 1.036a2.523 2.523 0 0 0 .037 1.209c-.242-.204-.692-.756-.553-1.333Z" fill="#fff" fill-opacity=".6"/><path d="M9.516 13.592c.139-.578.858-.849 1.201-.912-.179.139-.566.54-.685 1.036a2.523 2.523 0 0 0 .037 1.209c-.242-.204-.692-.756-.553-1.333Z" fill="#7445B8"/><path d="M9.516 13.592c.139-.578.858-.849 1.201-.912-.179.139-.566.54-.685 1.036a2.523 2.523 0 0 0 .037 1.209c-.242-.204-.692-.756-.553-1.333Z" fill="#fff" fill-opacity=".6"/><path d="M9.516 13.592c.139-.578.858-.849 1.201-.912-.179.139-.566.54-.685 1.036a2.523 2.523 0 0 0 .037 1.209c-.242-.204-.692-.756-.553-1.333Z" fill="#7445B8"/><path d="M9.516 13.592c.139-.578.858-.849 1.201-.912-.179.139-.566.54-.685 1.036a2.523 2.523 0 0 0 .037 1.209c-.242-.204-.692-.756-.553-1.333Z" fill="#fff" fill-opacity=".6"/><path d="M36.02 22.584c1.084.743 1.649 2.244.61 3.762-1.04 1.518-3.142 1.457-4.09.544-1.387-1.334-1.377-3.73-2.202-4.852 1.345.363 3.9-.674 5.682.546Z" fill="#7445B8"/><path d="M36.02 22.584c1.084.743 1.649 2.244.61 3.762-1.04 1.518-3.142 1.457-4.09.544-1.387-1.334-1.377-3.73-2.202-4.852 1.345.363 3.9-.674 5.682.546Z" fill="#fff" fill-opacity=".95"/><path d="M32.566 23.793c-.128-.442-.119-.988-.658-.847-.54.14-.415.854-.288 1.296.16.56.517 1.224 1.056 1.084.718-.187.017-1.09-.11-1.533Z" fill="#7445B8"/><path d="M32.566 23.793c-.128-.442-.119-.988-.658-.847-.54.14-.415.854-.288 1.296.16.56.517 1.224 1.056 1.084.718-.187.017-1.09-.11-1.533Z" fill="#fff" fill-opacity=".6"/><path d="M33.312 25.504c-.24.04-.577.22-.532.46.045.24.281.57.473.537.24-.04.596-.122.532-.46-.045-.24-.303-.566-.473-.537Z" fill="#7445B8"/><path d="M33.312 25.504c-.24.04-.577.22-.532.46.045.24.281.57.473.537.24-.04.596-.122.532-.46-.045-.24-.303-.566-.473-.537Z" fill="#fff" fill-opacity=".6"/><path d="M36.193 26.063c-.548.801-1.804.795-2.364.692.354-.108 1.18-.495 1.65-1.181s.627-1.53.647-1.867c.25.452.615 1.556.067 2.356Z" fill="#7445B8"/><path d="M36.193 26.063c-.548.801-1.804.795-2.364.692.354-.108 1.18-.495 1.65-1.181s.627-1.53.647-1.867c.25.452.615 1.556.067 2.356Z" fill="#fff" fill-opacity=".6"/><path d="M36.193 26.063c-.548.801-1.804.795-2.364.692.354-.108 1.18-.495 1.65-1.181s.627-1.53.647-1.867c.25.452.615 1.556.067 2.356Z" fill="#7445B8"/><path d="M36.193 26.063c-.548.801-1.804.795-2.364.692.354-.108 1.18-.495 1.65-1.181s.627-1.53.647-1.867c.25.452.615 1.556.067 2.356Z" fill="#fff" fill-opacity=".6"/><path d="M36.193 26.063c-.548.801-1.804.795-2.364.692.354-.108 1.18-.495 1.65-1.181s.627-1.53.647-1.867c.25.452.615 1.556.067 2.356Z" fill="#7445B8"/><path d="M36.193 26.063c-.548.801-1.804.795-2.364.692.354-.108 1.18-.495 1.65-1.181s.627-1.53.647-1.867c.25.452.615 1.556.067 2.356Z" fill="#fff" fill-opacity=".6"/></g><defs><clipPath id="aoxa"><path fill="#fff" transform="matrix(-1 0 0 1 38 6)" d="M0 0h30v30H0z"/></clipPath></defs></svg>