<svg fill="none" viewBox="0 0 50 50" id="manticore_shield" xmlns="http://www.w3.org/2000/svg"><path d="M31.947 4.158C31.1 5.063 30.366 5.268 25 5.84v44.055c.358-.954 1.18-3.09 1.61-4.005.536-1.145 7.898-8.596 10.11-8.596 2.213 0 4.114.954 4.83 1.144-.537-.572-1.825-2.631-2.683-4.005-1.074-1.716 1.694-9.712 3.84-10.284 1.717-.458 3.756-.954 4.293-1.145-.715-.381-3.005-1.373-4.293-2.288-1.61-1.145-1.073-8.01 0-9.727 1.074-1.716 2.147-2.86 2.683-4.004-1.073.381-3.327 1.095-4.292 1.144-1.624.082-5.165-2.369-5.677-3.392-.579-1.158-1.158-3.678-1.158-4.632-.536.572-1.242 2.909-2.316 4.053Z" fill="#FAA21E"/><path d="M31.947 4.158C31.1 5.063 30.366 5.268 25 5.84v44.055c.358-.954 1.18-3.09 1.61-4.005.536-1.145 7.898-8.596 10.11-8.596 2.213 0 4.114.954 4.83 1.144-.537-.572-1.825-2.631-2.683-4.005-1.074-1.716 1.694-9.712 3.84-10.284 1.717-.458 3.756-.954 4.293-1.145-.715-.381-3.005-1.373-4.293-2.288-1.61-1.145-1.073-8.01 0-9.727 1.074-1.716 2.147-2.86 2.683-4.004-1.073.381-3.327 1.095-4.292 1.144-1.624.082-5.165-2.369-5.677-3.392-.579-1.158-1.158-3.678-1.158-4.632-.536.572-1.242 2.909-2.316 4.053Z" fill="#000" fill-opacity=".4"/><path d="M31.947 6.474c-1.075.319-2.092.723-6.947 1.24v38.707c.324-.86.579-1.821 1.456-2.548.88-.73 7.228-7.295 8.965-7.873 1.737-.578 2.248-.172 2.895 0-.486-.517-.857-.956-1.158-2.316-.396-1.784 1.652-9.035 3.474-9.882 1.157-.539 1.83-.945 2.315-1.118-.647-.344-1.158-.579-1.926-1.54-1.115-1.394-.579-7.626-.39-8.897.19-1.27.094-1.266.58-2.3-.971.345-1.737.074-2.316-.01-.58-.085-3.322-2.153-4.053-2.884-.579-.58-1.158-1.158-1.158-2.316-.579 1.158-.82 1.465-1.737 1.737Z" fill="#D0333D"/><path d="M31.947 6.474c-1.075.319-2.092.723-6.947 1.24v38.707c.324-.86.579-1.821 1.456-2.548.88-.73 7.228-7.295 8.965-7.873 1.737-.578 2.248-.172 2.895 0-.486-.517-.857-.956-1.158-2.316-.396-1.784 1.652-9.035 3.474-9.882 1.157-.539 1.83-.945 2.315-1.118-.647-.344-1.158-.579-1.926-1.54-1.115-1.394-.579-7.626-.39-8.897.19-1.27.094-1.266.58-2.3-.971.345-1.737.074-2.316-.01-.58-.085-3.322-2.153-4.053-2.884-.579-.58-1.158-1.158-1.158-2.316-.579 1.158-.82 1.465-1.737 1.737Z" fill="#000" fill-opacity=".4"/><path d="M18.053 4.158c.848.905 1.581 1.11 6.947 1.682v44.055c-.358-.954-1.18-3.09-1.61-4.005-.536-1.145-7.898-8.596-10.11-8.596-2.213 0-4.114.954-4.83 1.144.537-.572 1.825-2.631 2.684-4.005 1.073-1.716-1.695-9.712-3.841-10.284-1.717-.458-3.756-.954-4.293-1.145.715-.381 3.005-1.373 4.293-2.288 1.61-1.145 1.073-8.01 0-9.727C6.22 9.274 5.146 8.13 4.61 6.986c1.073.381 3.327 1.095 4.292 1.144 1.624.082 5.165-2.369 5.677-3.392.579-1.158 1.158-3.678 1.158-4.632.536.572 1.243 2.909 2.316 4.053Z" fill="#FAA21E"/><path d="M18.053 4.158c.848.905 1.581 1.11 6.947 1.682v44.055c-.358-.954-1.18-3.09-1.61-4.005-.536-1.145-7.898-8.596-10.11-8.596-2.213 0-4.114.954-4.83 1.144.537-.572 1.825-2.631 2.684-4.005 1.073-1.716-1.695-9.712-3.841-10.284-1.717-.458-3.756-.954-4.293-1.145.715-.381 3.005-1.373 4.293-2.288 1.61-1.145 1.073-8.01 0-9.727C6.22 9.274 5.146 8.13 4.61 6.986c1.073.381 3.327 1.095 4.292 1.144 1.624.082 5.165-2.369 5.677-3.392.579-1.158 1.158-3.678 1.158-4.632.536.572 1.243 2.909 2.316 4.053Z" fill="#000" fill-opacity=".4"/><path d="M18.277 6.474c1.04.319 2.025.723 6.723 1.24v38.707c-.313-.86-.56-1.821-1.41-2.548-.85-.73-6.994-7.295-8.675-7.873-1.68-.578-2.175-.172-2.801 0 .47-.517.829-.956 1.12-2.316.383-1.784-1.599-9.035-3.361-9.882-1.12-.539-1.772-.945-2.241-1.118.626-.344 1.12-.579 1.864-1.54 1.08-1.394.56-7.626.377-8.897-.184-1.27-.09-1.266-.56-2.3.939.345 1.68.074 2.24-.01.56-.085 3.215-2.153 3.922-2.884.56-.58 1.12-1.158 1.12-2.316.561 1.158.795 1.465 1.682 1.737Z" fill="#D0333D"/><path d="M18.277 6.474c1.04.319 2.025.723 6.723 1.24v38.707c-.313-.86-.56-1.821-1.41-2.548-.85-.73-6.994-7.295-8.675-7.873-1.68-.578-2.175-.172-2.801 0 .47-.517.829-.956 1.12-2.316.383-1.784-1.599-9.035-3.361-9.882-1.12-.539-1.772-.945-2.241-1.118.626-.344 1.12-.579 1.864-1.54 1.08-1.394.56-7.626.377-8.897-.184-1.27-.09-1.266-.56-2.3.939.345 1.68.074 2.24-.01.56-.085 3.215-2.153 3.922-2.884.56-.58 1.12-1.158 1.12-2.316.561 1.158.795 1.465 1.682 1.737Z" fill="#000" fill-opacity=".4"/><path d="M16.5 4 25 21.5m0 0L34 4m-9 17.5L43 9M25 21.5l18 1m-18-1 13.5 15M25 21.5V47m0-25.5-13.5 15m13.5-15-18 1m18-1L8.5 9.5" stroke="#FAA21E" stroke-width="2"/><path d="M16.5 4 25 21.5m0 0L34 4m-9 17.5L43 9M25 21.5l18 1m-18-1 13.5 15M25 21.5V47m0-25.5-13.5 15m13.5-15-18 1m18-1L8.5 9.5" stroke="#000" stroke-opacity=".4" stroke-width="2"/><path d="M18.6 19.448C18.194 26.004 26 28 21.5 35.5c9-4 10.087-10.968 10.311-14.589.225-3.62-2.55-6.883-6.199-7.287-3.648-.404-6.787 2.203-7.012 5.824Z" fill="#FAA21E"/><path d="M18.6 19.448C18.194 26.004 26 28 21.5 35.5c9-4 10.087-10.968 10.311-14.589.225-3.62-2.55-6.883-6.199-7.287-3.648-.404-6.787 2.203-7.012 5.824Z" fill="#000" fill-opacity=".4"/><path d="M20.157 20.112c-.316 5.111 6.158 5.093 5.036 11.586 4.648-5.367 4.79-7.656 4.965-10.479.175-2.823-1.922-5.36-4.684-5.665-2.761-.306-5.142 1.735-5.317 4.558Z" fill="#D0333D"/><path d="M20.12 20.073c-.447 5.134 7.086 8.132 3.064 13.44 5.325-4.682 7.086-9.254 6.898-12.292-1.096 3.443-1.716 4.015-3.229 5.944-1.247-3.72-4.29-3.02-6.733-7.092Z" fill="#FAA21E"/></svg>