<svg fill="none" viewBox="0 0 50 50" id="regal_jewel" xmlns="http://www.w3.org/2000/svg"><g clip-path="url(#atha)"><path d="m25.304 7.546.402-6.697 15.588 9-5.598 3.697-10.392-6Z" fill="#546DDB"/><path d="m35.696 13.546 5.598-3.697.66 18.857-6.495-3.75.237-11.41Z" fill="#546DDB"/><path d="m35.696 13.546 5.598-3.697.66 18.857-6.495-3.75.237-11.41Z" fill="#fff" fill-opacity=".2"/><path d="m25.304 7.546.402-6.697-16.66 8.857 6.495 3.75 9.763-5.91Z" fill="#546DDB"/><path d="m25.304 7.546.402-6.697-16.66 8.857 6.495 3.75 9.763-5.91Z" fill="#000" fill-opacity=".2"/><path d="m15.039 37.326 20.42-12.37 6.495 3.75L8.5 48.65l6.539-11.325Z" fill="#546DDB"/><path d="m15.039 37.326 20.42-12.37 6.495 3.75L8.5 48.65l6.539-11.325Z" fill="#000" fill-opacity=".2"/><path d="m25.696 30.866 9.763-5.91 5.63 3.25c-2.416-.817-3.75-1.345-5.514-1.451-1.762-.106-7.041 2.863-9.879 4.111Z" fill="#FEFEFE"/><path d="m15.54 13.456-6.495-3.75L8.5 48.65l6.538-11.325.503-23.87Z" fill="#546DDB"/><path d="m15.54 13.456-6.495-3.75L8.5 48.65l6.538-11.325.503-23.87Z" fill="#fff" fill-opacity=".4"/><path d="m35.696 13.546-10.392-6-9.763 5.91L15 37.392l20.46-12.436.236-11.41Z" fill="#546DDB"/><path d="m35.696 13.546-10.392-6-9.763 5.91L15 37.392l20.46-12.436.236-11.41Z" fill="#fff" fill-opacity=".6"/><path d="m25.304 7.546-9.763 5.91c2.169-1.313 7.132-3.887 9.629-3.678 2.497.209 8.058 2.599 10.526 3.768l-10.392-6Z" fill="#FEFEFE"/></g><defs><clipPath id="atha"><path fill="#fff" transform="matrix(-1 0 0 1 50 0)" d="M0 0h50v50H0z"/></clipPath></defs></svg>