<svg fill="none" viewBox="0 0 50 50" id="royal_water_robe_top" xmlns="http://www.w3.org/2000/svg"><path d="M42.5 6 39 11l-1.5 18-1 19.5 13-3-7-19V6Z" fill="#898989"/><path d="M42.5 6 39 11l-1.5 18-1 19.5 13-3-7-19V6Z" fill="#fff" fill-opacity=".8"/><path d="M27 3c-4 0-7-2-8-3-1 2 1.8 18.1 9 18.5 7.2.4 6.833-16 5.5-18.5-.667.833-3.3 3-6.5 3Z" fill="#7445B8"/><path d="M27 3c-4 0-7-2-8-3-1 2 1.8 18.1 9 18.5 7.2.4 6.833-16 5.5-18.5-.667.833-3.3 3-6.5 3Z" fill="#000" fill-opacity=".4"/><path d="M37.5 28c.5-7.5 4-17 5.5-21l-9.5 4.5c-4.178 1-7.17.836-13 0L7.5 7c2 5.167 5.1 18.1 5.5 20.5.4 2.4-3 13.5-4 21.5 15 1 23.605 1.358 33 0-1-5-5.005-13.417-4.5-21Z" fill="#7445B8"/><path d="M37.5 28c.5-7.5 4-17 5.5-21l-9.5 4.5c-4.178 1-7.17.836-13 0L7.5 7c2 5.167 5.1 18.1 5.5 20.5.4 2.4-3 13.5-4 21.5 15 1 23.605 1.358 33 0-1-5-5.005-13.417-4.5-21Z" fill="#fff" fill-opacity=".4"/><path fill-rule="evenodd" clip-rule="evenodd" d="m40.804 44.676-.118.706-1.882.314 1.882.314.314 1.882.28-1.675c-.149-.496-.309-1.01-.476-1.54ZM15.196 20.412l-.314 1.882-1.882.314 1.882.314.314 1.882.314-1.882 1.882-.314-1.882-.314-.314-1.882Zm6.451 6.902.314-1.883.314 1.883 1.882.314-1.883.313-.313 1.883-.314-1.883-1.882-.313 1.882-.314Zm12.177 0 .313-1.883.314 1.883 1.882.314-1.882.313-.314 1.883-.313-1.883-1.883-.313 1.883-.314Zm1.058 9.294-.313 1.882-1.883.314 1.883.314.313 1.882.314-1.882 1.882-.314-1.882-.314-.314-1.882Zm-12.49 1.882.314-1.882.314 1.882 1.882.314-1.882.314L22.706 41l-.314-1.882-1.882-.314 1.882-.314Zm-6.51-6.108.314-1.882.314 1.882 1.882.314-1.882.314-.314 1.882-.314-1.882L14 32.696l1.882-.314ZM30 43.5l-.314 1.882-1.882.314 1.882.314.314 1.882.314-1.882 1.882-.314-1.882-.314L30 43.5Zm-13.118 1.882.314-1.882.314 1.882 1.882.314-1.882.314-.314 1.882-.314-1.882L15 45.696l1.882-.314Z" fill="#7445B8"/><path fill-rule="evenodd" clip-rule="evenodd" d="m40.804 44.676-.118.706-1.882.314 1.882.314.314 1.882.28-1.675c-.149-.496-.309-1.01-.476-1.54ZM15.196 20.412l-.314 1.882-1.882.314 1.882.314.314 1.882.314-1.882 1.882-.314-1.882-.314-.314-1.882Zm6.451 6.902.314-1.883.314 1.883 1.882.314-1.883.313-.313 1.883-.314-1.883-1.882-.313 1.882-.314Zm12.177 0 .313-1.883.314 1.883 1.882.314-1.882.313-.314 1.883-.313-1.883-1.883-.313 1.883-.314Zm1.058 9.294-.313 1.882-1.883.314 1.883.314.313 1.882.314-1.882 1.882-.314-1.882-.314-.314-1.882Zm-12.49 1.882.314-1.882.314 1.882 1.882.314-1.882.314L22.706 41l-.314-1.882-1.882-.314 1.882-.314Zm-6.51-6.108.314-1.882.314 1.882 1.882.314-1.882.314-.314 1.882-.314-1.882L14 32.696l1.882-.314ZM30 43.5l-.314 1.882-1.882.314 1.882.314.314 1.882.314-1.882 1.882-.314-1.882-.314L30 43.5Zm-13.118 1.882.314-1.882.314 1.882 1.882.314-1.882.314-.314 1.882-.314-1.882L15 45.696l1.882-.314Z" fill="#fff" fill-opacity=".8"/><path d="M2 27.5 6.5 7l6.5 4-2 16.5L18.5 47l-15 3L2 27.5Z" fill="#898989"/><path d="M2 27.5 6.5 7l6.5 4-2 16.5L18.5 47l-15 3L2 27.5Z" fill="#fff" fill-opacity=".8"/><path d="M33.534.05C34.588 1.521 38.528 2.516 41 4c2.5 1.5 3 3 4.5 4.5-3.5 2-14 20.5-16.5 27-5-6.5-16-22-25.5-27 4-2 2.5-4 6.5-5.5 2.711-1.017 6.942-1 8.959-2.96.011-.024.025-.038.041-.04a4.089 4.089 0 0 1-.041.04C18.66.685 19.822 8.819 23 17c3.243 8.35 3.974 10.91 5.895 17.632L29 35c1-7 1.231-10.5 3-18C33.727 9.677 33.988.923 33.534.05Z" fill="#898989"/><path d="M33.534.05C34.588 1.521 38.528 2.516 41 4c2.5 1.5 3 3 4.5 4.5-3.5 2-14 20.5-16.5 27-5-6.5-16-22-25.5-27 4-2 2.5-4 6.5-5.5 2.711-1.017 6.942-1 8.959-2.96.011-.024.025-.038.041-.04a4.089 4.089 0 0 1-.041.04C18.66.685 19.822 8.819 23 17c3.243 8.35 3.974 10.91 5.895 17.632L29 35c1-7 1.231-10.5 3-18C33.727 9.677 33.988.923 33.534.05Z" fill="#fff" fill-opacity=".95"/><path d="M46.5 8.5c-5 3.5-14 19.5-17.5 27-5-6.5-16-22-25.5-27 1-.5 3-2.62 4-4C10 6.627 15 12 17.5 16 19.917 19.867 26 29.5 29 35.5c2-6 5.914-15.328 8-19.5 2-4 4.945-8.54 6-10.5.5.6 3 3 3.5 3Z" fill="#1D8CE0"/><path d="M46.5 8.5c-5 3.5-14 19.5-17.5 27-5-6.5-16-22-25.5-27 1-.5 3-2.62 4-4C10 6.627 15 12 17.5 16 19.917 19.867 26 29.5 29 35.5c2-6 5.914-15.328 8-19.5 2-4 4.945-8.54 6-10.5.5.6 3 3 3.5 3Z" fill="#fff" fill-opacity=".2"/></svg>