<svg fill="none" viewBox="0 0 50 50" id="royal_fire_robe_bottoms" xmlns="http://www.w3.org/2000/svg"><path d="M28 1.5C22.8 1.5 15.5.702 12.5 0c0 2.5-1.5 5.5-2.5 11.053C9.06 16.273 6 38 5 48c5 1.5 16.4 2 24 2 7.6 0 13.833-1.123 16-2-.833-8.246-2.9-27.263-4.5-34.842-1.6-7.579-3-10.97-3-13.158-1.167.702-4.3 1.5-9.5 1.5Z" fill="#D0333D"/><path d="M28 1.5C22.8 1.5 15.5.702 12.5 0c0 2.5-1.5 5.5-2.5 11.053C9.06 16.273 6 38 5 48c5 1.5 16.4 2 24 2 7.6 0 13.833-1.123 16-2-.833-8.246-2.9-27.263-4.5-34.842-1.6-7.579-3-10.97-3-13.158-1.167.702-4.3 1.5-9.5 1.5Z" fill="#fff" fill-opacity=".2"/><path d="M28 1.5C22.8 1.5 15.5.702 12.5 0c0 2.5-1.5 5.5-2.5 11.053-.592 3.287-2.77 13.12-4 22.447 1.5 5 3.32 7.94 7.5 12 9-2 13.5-3.682 20-9C39 32 41.357 28.667 43 26c-.648-4.951-1.893-9.969-2.5-12.842-1.6-7.579-3-10.97-3-13.158-1.167.702-4.3 1.5-9.5 1.5Z" fill="#7445B8"/><path d="M28 1.5C22.8 1.5 15.5.702 12.5 0c0 2.5-1.5 5.5-2.5 11.053-.592 3.287-2.77 13.12-4 22.447 1.5 5 3.32 7.94 7.5 12 9-2 13.5-3.682 20-9C39 32 41.357 28.667 43 26c-.648-4.951-1.893-9.969-2.5-12.842-1.6-7.579-3-10.97-3-13.158-1.167.702-4.3 1.5-9.5 1.5Z" fill="#fff" fill-opacity=".4"/><path d="m27.974 24.373.487-1.845.138 1.903 1.845.486-1.903.139-.486 1.845-.139-1.903-1.845-.487 1.903-.138Z" fill="#7445B8"/><path d="m27.974 24.373.487-1.845.138 1.903 1.845.486-1.903.139-.486 1.845-.139-1.903-1.845-.487 1.903-.138Z" fill="#fff" fill-opacity=".8"/><path d="M26.315 35.145 26.8 33.3l.138 1.903 1.846.487-1.904.138-.486 1.845-.138-1.903-1.846-.486 1.904-.139Z" fill="#7445B8"/><path d="M26.315 35.145 26.8 33.3l.138 1.903 1.846.487-1.904.138-.486 1.845-.138-1.903-1.846-.486 1.904-.139Z" fill="#fff" fill-opacity=".8"/><path d="m31.517 4.588.486-1.846.139 1.904 1.845.486-1.903.139-.487 1.845-.138-1.903-1.845-.487 1.903-.138Z" fill="#7445B8"/><path d="m31.517 4.588.486-1.846.139 1.904 1.845.486-1.903.139-.487 1.845-.138-1.903-1.845-.487 1.903-.138Z" fill="#fff" fill-opacity=".8"/><path d="m30.13 14.398.487-1.845.138 1.903 1.846.487-1.904.138-.486 1.845-.138-1.903-1.846-.486 1.904-.139Z" fill="#7445B8"/><path d="m30.13 14.398.487-1.845.138 1.903 1.846.487-1.904.138-.486 1.845-.138-1.903-1.846-.486 1.904-.139Z" fill="#fff" fill-opacity=".8"/><path d="m36.853 9.031.487-1.845.138 1.903 1.845.487-1.903.138-.486 1.845-.139-1.903-1.845-.486 1.903-.139Z" fill="#7445B8"/><path d="m36.853 9.031.487-1.845.138 1.903 1.845.487-1.903.138-.486 1.845-.139-1.903-1.845-.486 1.903-.139Z" fill="#fff" fill-opacity=".8"/><path d="m35.77 20.16.487-1.846.139 1.903 1.845.486-1.904.139-.486 1.845-.138-1.903-1.846-.486 1.904-.139Z" fill="#7445B8"/><path d="m35.77 20.16.487-1.846.139 1.903 1.845.486-1.904.139-.486 1.845-.138-1.903-1.846-.486 1.904-.139Z" fill="#fff" fill-opacity=".8"/><path d="m33.726 31.014.486-1.846.139 1.904 1.845.486-1.903.138-.486 1.846-.139-1.904-1.845-.486 1.903-.138Z" fill="#7445B8"/><path d="m33.726 31.014.486-1.846.139 1.904 1.845.486-1.903.138-.486 1.846-.139-1.904-1.845-.486 1.903-.138Z" fill="#fff" fill-opacity=".8"/><path d="m21.833 5.128.61-1.808.01 1.908 1.808.61-1.908.01-.61 1.808-.01-1.909-1.808-.609 1.908-.01Z" fill="#7445B8"/><path d="m21.833 5.128.61-1.808.01 1.908 1.808.61-1.908.01-.61 1.808-.01-1.909-1.808-.609 1.908-.01Z" fill="#fff" fill-opacity=".8"/><path d="m20.812 15.19.61-1.808.01 1.908 1.808.61-1.909.01-.609 1.808-.01-1.908-1.808-.61 1.908-.01Z" fill="#7445B8"/><path d="m20.812 15.19.61-1.808.01 1.908 1.808.61-1.909.01-.609 1.808-.01-1.908-1.808-.61 1.908-.01Z" fill="#fff" fill-opacity=".8"/><path d="m18.769 25.343.609-1.809.01 1.909 1.809.609-1.909.01-.609 1.808-.01-1.908-1.809-.61 1.909-.01Z" fill="#7445B8"/><path d="m18.769 25.343.609-1.809.01 1.909 1.809.609-1.909.01-.609 1.808-.01-1.908-1.809-.61 1.909-.01Z" fill="#fff" fill-opacity=".8"/><path d="m13.932 8.158.61-1.808.01 1.908 1.808.61-1.908.01-.61 1.808-.01-1.909-1.808-.609 1.908-.01Z" fill="#7445B8"/><path d="m13.932 8.158.61-1.808.01 1.908 1.808.61-1.908.01-.61 1.808-.01-1.909-1.808-.609 1.908-.01Z" fill="#fff" fill-opacity=".8"/><path d="m13.314 18.277.61-1.809.01 1.909 1.808.609-1.909.01-.609 1.808-.01-1.908-1.808-.61 1.908-.01Z" fill="#7445B8"/><path d="m13.314 18.277.61-1.809.01 1.909 1.808.609-1.909.01-.609 1.808-.01-1.908-1.808-.61 1.908-.01Z" fill="#fff" fill-opacity=".8"/><path d="m17.873 36.308.61-1.809.01 1.909 1.808.609-1.908.01-.61 1.809-.01-1.909-1.808-.609 1.908-.01Z" fill="#7445B8"/><path d="m17.873 36.308.61-1.809.01 1.909 1.808.609-1.908.01-.61 1.809-.01-1.909-1.808-.609 1.908-.01Z" fill="#fff" fill-opacity=".8"/><path d="m12.232 30.27.61-1.808.01 1.908 1.808.61-1.908.01-.61 1.808-.01-1.908-1.808-.61 1.908-.01Z" fill="#7445B8"/><path d="m12.232 30.27.61-1.808.01 1.908 1.808.61-1.908.01-.61 1.808-.01-1.908-1.808-.61 1.908-.01Z" fill="#fff" fill-opacity=".8"/><path d="M13.5 45.5c-3-3-6.5-7.5-7.5-12 .175-1.33.355-2.67.535-4C8.5 35 10.5 38 14 41c6.5-1 14.3-4.5 17.5-6.5 3.2-2 9.072-7.5 11.096-11.5.135.974.27 1.978.404 3-.928 3.5-4.748 7.304-9.5 11-4.5 3.5-11 6.5-20 8.5Z" fill="#7445B8"/><path d="M13.5 45.5c-3-3-6.5-7.5-7.5-12 .175-1.33.355-2.67.535-4C8.5 35 10.5 38 14 41c6.5-1 14.3-4.5 17.5-6.5 3.2-2 9.072-7.5 11.096-11.5.135.974.27 1.978.404 3-.928 3.5-4.748 7.304-9.5 11-4.5 3.5-11 6.5-20 8.5Z" fill="#fff" fill-opacity=".95"/></svg>