<svg fill="none" viewBox="0 0 50 50" id="royal_water_robe_bottoms" xmlns="http://www.w3.org/2000/svg"><path d="M28 1.5C22.8 1.5 15.5.702 12.5 0c0 2.5-1.5 5.5-2.5 11.053C9.06 16.273 6 38 5 48c5 1.5 16.4 2 24 2 7.6 0 13.833-1.123 16-2-.833-8.246-2.9-27.263-4.5-34.842-1.6-7.579-3-10.97-3-13.158-1.167.702-4.3 1.5-9.5 1.5Z" fill="#1D8CE0"/><path d="M28 1.5C22.8 1.5 15.5.702 12.5 0c0 2.5-1.5 5.5-2.5 11.053C9.06 16.273 6 38 5 48c5 1.5 16.4 2 24 2 7.6 0 13.833-1.123 16-2-.833-8.246-2.9-27.263-4.5-34.842-1.6-7.579-3-10.97-3-13.158-1.167.702-4.3 1.5-9.5 1.5Z" fill="#fff" fill-opacity=".2"/><path d="M37.5 0C35.5.8 31 1.333 29 1.5c0 2.5.152 13.008.5 21C30 34 30 39 30.5 47c6-.5 9.5-1 14.2-2-.667-6.833-2.4-21.6-3.2-26-1-5.5-2-10-2.5-12s-1.5-5-1.5-7Z" fill="#7445B8"/><path d="M37.5 0C35.5.8 31 1.333 29 1.5c0 2.5.152 13.008.5 21C30 34 30 39 30.5 47c6-.5 9.5-1 14.2-2-.667-6.833-2.4-21.6-3.2-26-1-5.5-2-10-2.5-12s-1.5-5-1.5-7Z" fill="#fff" fill-opacity=".4"/><path fill-rule="evenodd" clip-rule="evenodd" d="m39.3 8.243-1.55.564 1.672-.032a131.12 131.12 0 0 0-.123-.532Zm2.229 10.916-1.779.648 1.883-.036c-.036-.22-.071-.424-.104-.612Zm1.423 10.31-.445-1.223.036 1.908-1.793.653 1.908-.036.654 1.793-.003-.156c-.118-.99-.238-1.975-.357-2.94ZM33.16 3.43l.037 1.908-1.793.653 1.908-.036.653 1.793-.037-1.908 1.793-.653-1.908.036-.653-1.793Zm2.037 21.908-.037-1.908.653 1.793 1.908-.036-1.793.653.037 1.908-.653-1.793-1.908.036 1.793-.653Zm1.347 10.816-.036-1.908.653 1.793 1.908-.037-1.793.654.037 1.908-.654-1.793-1.908.036 1.793-.653Zm-2-21-.036-1.908.653 1.793 1.908-.037-1.793.654.037 1.908-.654-1.793-1.908.036 1.793-.653Z" fill="#7445B8"/><path fill-rule="evenodd" clip-rule="evenodd" d="m39.3 8.243-1.55.564 1.672-.032a131.12 131.12 0 0 0-.123-.532Zm2.229 10.916-1.779.648 1.883-.036c-.036-.22-.071-.424-.104-.612Zm1.423 10.31-.445-1.223.036 1.908-1.793.653 1.908-.036.654 1.793-.003-.156c-.118-.99-.238-1.975-.357-2.94ZM33.16 3.43l.037 1.908-1.793.653 1.908-.036.653 1.793-.037-1.908 1.793-.653-1.908.036-.653-1.793Zm2.037 21.908-.037-1.908.653 1.793 1.908-.036-1.793.653.037 1.908-.653-1.793-1.908.036 1.793-.653Zm1.347 10.816-.036-1.908.653 1.793 1.908-.037-1.793.654.037 1.908-.654-1.793-1.908.036 1.793-.653Zm-2-21-.036-1.908.653 1.793 1.908-.037-1.793.654.037 1.908-.654-1.793-1.908.036 1.793-.653Z" fill="#fff" fill-opacity=".8"/><path d="M20 1c-2.8-.4-6.167-.833-7.5-1 0 1.5-.408 3.025-1 5C10 10 8.384 20 8 24c-.384 4-2.024 15.37-2.7 21 2.7.5 5.7 1 8.7 1.2 2.822.188 8 .8 10.5.8 1-5.5 1.5-14 2-20.5.523-6.792 1-19 1-25-1.5 0-4.7-.1-7.5-.5Z" fill="#7445B8"/><path d="M20 1c-2.8-.4-6.167-.833-7.5-1 0 1.5-.408 3.025-1 5C10 10 8.384 20 8 24c-.384 4-2.024 15.37-2.7 21 2.7.5 5.7 1 8.7 1.2 2.822.188 8 .8 10.5.8 1-5.5 1.5-14 2-20.5.523-6.792 1-19 1-25-1.5 0-4.7-.1-7.5-.5Z" fill="#fff" fill-opacity=".4"/><path d="M30.5 47c6-.5 9.5-1 14.2-2-.086-.881-.19-1.894-.307-3l-10.732 1.5c-.387-4.167-1.261-13.8-1.661-19-.4-5.2-1.5-17.563-2-23.094-.375.039-.713.07-1 .094 0 2.5.152 13.008.5 21C30 34 30 39 30.5 47Z" fill="#898989"/><path d="M30.5 47c6-.5 9.5-1 14.2-2-.086-.881-.19-1.894-.307-3l-10.732 1.5c-.387-4.167-1.261-13.8-1.661-19-.4-5.2-1.5-17.563-2-23.094-.375.039-.713.07-1 .094 0 2.5.152 13.008.5 21C30 34 30 39 30.5 47Z" fill="#fff" fill-opacity=".95"/><path d="M26.5 26.5c.523-6.792 1-19 1-25-.279 0-.617-.003-1-.012C25.833 7.658 24.4 20.9 24 24.5c-.4 3.6-1.833 14.167-2.5 19l-15.757-2c-.17 1.3-.322 2.492-.443 3.5 2.7.5 5.7 1 8.7 1.2 2.822.188 8 .8 10.5.8 1-5.5 1.5-14 2-20.5Z" fill="#898989"/><path d="M26.5 26.5c.523-6.792 1-19 1-25-.279 0-.617-.003-1-.012C25.833 7.658 24.4 20.9 24 24.5c-.4 3.6-1.833 14.167-2.5 19l-15.757-2c-.17 1.3-.322 2.492-.443 3.5 2.7.5 5.7 1 8.7 1.2 2.822.188 8 .8 10.5.8 1-5.5 1.5-14 2-20.5Z" fill="#fff" fill-opacity=".95"/><path d="m21.833 5.128.61-1.808.01 1.908 1.808.61-1.908.01-.61 1.808-.01-1.909-1.808-.609 1.908-.01Z" fill="#7445B8"/><path d="m21.833 5.128.61-1.808.01 1.908 1.808.61-1.908.01-.61 1.808-.01-1.909-1.808-.609 1.908-.01Z" fill="#fff" fill-opacity=".8"/><path d="m20.812 15.19.61-1.808.01 1.908 1.808.61-1.909.01-.609 1.808-.01-1.908-1.808-.61 1.908-.01Z" fill="#7445B8"/><path d="m20.812 15.19.61-1.808.01 1.908 1.808.61-1.909.01-.609 1.808-.01-1.908-1.808-.61 1.908-.01Z" fill="#fff" fill-opacity=".8"/><path d="m18.769 25.343.609-1.809.01 1.909 1.809.609-1.909.01-.609 1.808-.01-1.908-1.809-.61 1.909-.01Z" fill="#7445B8"/><path d="m18.769 25.343.609-1.809.01 1.909 1.809.609-1.909.01-.609 1.808-.01-1.908-1.809-.61 1.909-.01Z" fill="#fff" fill-opacity=".8"/><path d="m13.932 8.158.61-1.808.01 1.908 1.808.61-1.908.01-.61 1.808-.01-1.909-1.808-.609 1.908-.01Z" fill="#7445B8"/><path d="m13.932 8.158.61-1.808.01 1.908 1.808.61-1.908.01-.61 1.808-.01-1.909-1.808-.609 1.908-.01Z" fill="#fff" fill-opacity=".8"/><path d="m13.314 18.277.61-1.809.01 1.909 1.808.609-1.909.01-.609 1.808-.01-1.908-1.808-.61 1.908-.01Z" fill="#7445B8"/><path d="m13.314 18.277.61-1.809.01 1.909 1.808.609-1.909.01-.609 1.808-.01-1.908-1.808-.61 1.908-.01Z" fill="#fff" fill-opacity=".8"/><path d="m17.873 36.308.61-1.809.01 1.909 1.808.609-1.908.01-.61 1.809-.01-1.909-1.808-.609 1.908-.01Z" fill="#7445B8"/><path d="m17.873 36.308.61-1.809.01 1.909 1.808.609-1.908.01-.61 1.809-.01-1.909-1.808-.609 1.908-.01Z" fill="#fff" fill-opacity=".8"/><path d="m12.232 30.27.61-1.808.01 1.908 1.808.61-1.908.01-.61 1.808-.01-1.908-1.808-.61 1.908-.01Z" fill="#7445B8"/><path d="m12.232 30.27.61-1.808.01 1.908 1.808.61-1.908.01-.61 1.808-.01-1.908-1.808-.61 1.908-.01Z" fill="#fff" fill-opacity=".8"/></svg>