<svg fill="none" viewBox="0 0 50 50" id="royal_cloth" xmlns="http://www.w3.org/2000/svg"><g clip-path="url(#auka)"><path d="M3.632 20.604C2.485 21.464 0 23.853 0 25.955c0 1.147 4.587 6.881 8.028 9.175 3.055 2.037 6.414 4.587 9.472 7.454s5.427 7.607 6 7.416c.573-.191 2.758-5.138 4.98-7.416C31 40 33.64 37.997 36.315 37.041c2.676-.955 5.684-3.041 3.823-4.97-1.887-1.954-10.895 1.53-12.998 1.53-1.681 0-12.55-10.449-17.966-15.482-2.676.764-4.397 1.625-5.543 2.485Z" fill="#7445B8"/><path fill-rule="evenodd" clip-rule="evenodd" d="M15.57 24.095 15 24l-.086-.515-.717-.668L14 24l-3 .5 3 .5.5 3 .5-3 1.31-.218a565.9 565.9 0 0 1-.74-.687Zm8.864 7.833c-.432-.34-.9-.724-1.399-1.142L23 31l-3 .5 3 .5.5 3 .5-3 .434-.072Zm7.156 7.837L30 39.5l2.508-.418c-.307.217-.613.445-.918.683Zm1.457-1.051c.273-.18.546-.35.82-.511L33.5 36l-.453 2.714ZM13.5 32l-.5 3-3 .5 3 .5.5 3 .5-3 3-.5-3-.5-.5-3ZM5 27l.5-3 .5 3 3 .5-3 .5-.5 3-.5-3-3-.5 3-.5Zm17.5 12-.5 3-3 .5 3 .5.5 3 .5-3 3-.5-3-.5-.5-3Z" fill="#7445B8"/><path fill-rule="evenodd" clip-rule="evenodd" d="M15.57 24.095 15 24l-.086-.515-.717-.668L14 24l-3 .5 3 .5.5 3 .5-3 1.31-.218a565.9 565.9 0 0 1-.74-.687Zm8.864 7.833c-.432-.34-.9-.724-1.399-1.142L23 31l-3 .5 3 .5.5 3 .5-3 .434-.072Zm7.156 7.837L30 39.5l2.508-.418c-.307.217-.613.445-.918.683Zm1.457-1.051c.273-.18.546-.35.82-.511L33.5 36l-.453 2.714ZM13.5 32l-.5 3-3 .5 3 .5.5 3 .5-3 3-.5-3-.5-.5-3ZM5 27l.5-3 .5 3 3 .5-3 .5-.5 3-.5-3-3-.5 3-.5Zm17.5 12-.5 3-3 .5 3 .5.5 3 .5-3 3-.5-3-.5-.5-3Z" fill="#fff" fill-opacity=".4"/><path d="M36.316 28.344c-1.784.637-5.658 2.179-6.88 3.25-.702 1.528-2.677 3.63-1.721 4.969.314.44 1.72.382 2.485-.191.764-.574 1.72-1.912 4.97-3.44 2.599-1.224 4.33-1.432 5.33-.432-.382-.573-1.508-1.862-2.273-2.627a11.284 11.284 0 0 0-1.91-1.529Z" fill="#7445B8"/><path d="M36.316 28.344c-1.784.637-5.658 2.179-6.88 3.25-.702 1.528-2.677 3.63-1.721 4.969.314.44 1.72.382 2.485-.191.764-.574 1.72-1.912 4.97-3.44 2.599-1.224 4.33-1.432 5.33-.432-.382-.573-1.508-1.862-2.273-2.627a11.284 11.284 0 0 0-1.91-1.529Z" fill="#000" fill-opacity=".4"/><path d="M35.17 9.421C31.728 6.554 25.611-.709 25.038.056c-.574.765-3.555 2.867-10.895 5.16C6.804 7.51 3.5 11.5 4.205 15.157 6 18 10.859 23.011 13 25c2.676 2.485 15.5 13 14.5 11-.5-2 3.273-5.744 11.683-7.656 8.41-1.911 11.468-7.836 10.704-8.219-1.53-.765-11.277-7.837-14.718-10.704Z" fill="#7445B8"/><path d="M35.17 9.421C31.728 6.554 25.611-.709 25.038.056c-.574.765-3.555 2.867-10.895 5.16C6.804 7.51 3.5 11.5 4.205 15.157 6 18 10.859 23.011 13 25c2.676 2.485 15.5 13 14.5 11-.5-2 3.273-5.744 11.683-7.656 8.41-1.911 11.468-7.836 10.704-8.219-1.53-.765-11.277-7.837-14.718-10.704Z" fill="#fff" fill-opacity=".4"/><path fill-rule="evenodd" clip-rule="evenodd" d="m23.239 33.433.463.353L24 32l3-.5-3-.5-.5-3-.5 3-2.365.394.336.268L23 32l.239 1.433Zm-9.065-7.388.57.49L15 25l3-.5-3-.5-.5-3-.5 3-1.746.291c.188.182.365.351.53.506L14 25l.174 1.045Zm-8.055-8.33c.205.249.418.5.636.755L7 17l3-.5-3-.5-.5-3-.5 3-1.088.181c.174.236.36.48.558.73L6 17l.12.716ZM25 4l.5-3 .5 3 3 .5-3 .5-.5 3-.5-3-3-.5 3-.5Zm-2 13 .5-3 .5 3 3 .5-3 .5-.5 3-.5-3-3-.5 3-.5ZM15.5 6 15 9l-3 .5 3 .5.5 3 .5-3 3-.5-3-.5-.5-3ZM33 13l.5-3 .5 3 3 .5-3 .5-.5 3-.5-3-3-.5 3-.5Zm10.5 5-.5 3-3 .5 3 .5.5 3 .5-3 3-.5-3-.5-.5-3ZM32 24l.5-3 .5 3 3 .5-3 .5-.5 3-.5-3-3-.5 3-.5Z" fill="#7445B8"/><path fill-rule="evenodd" clip-rule="evenodd" d="m23.239 33.433.463.353L24 32l3-.5-3-.5-.5-3-.5 3-2.365.394.336.268L23 32l.239 1.433Zm-9.065-7.388.57.49L15 25l3-.5-3-.5-.5-3-.5 3-1.746.291c.188.182.365.351.53.506L14 25l.174 1.045Zm-8.055-8.33c.205.249.418.5.636.755L7 17l3-.5-3-.5-.5-3-.5 3-1.088.181c.174.236.36.48.558.73L6 17l.12.716ZM25 4l.5-3 .5 3 3 .5-3 .5-.5 3-.5-3-3-.5 3-.5Zm-2 13 .5-3 .5 3 3 .5-3 .5-.5 3-.5-3-3-.5 3-.5ZM15.5 6 15 9l-3 .5 3 .5.5 3 .5-3 3-.5-3-.5-.5-3ZM33 13l.5-3 .5 3 3 .5-3 .5-.5 3-.5-3-3-.5 3-.5Zm10.5 5-.5 3-3 .5 3 .5.5 3 .5-3 3-.5-3-.5-.5-3ZM32 24l.5-3 .5 3 3 .5-3 .5-.5 3-.5-3-3-.5 3-.5Z" fill="#fff" fill-opacity=".8"/></g><defs><clipPath id="auka"><path fill="#fff" transform="matrix(-1 0 0 1 50 0)" d="M0 0h50v50H0z"/></clipPath></defs></svg>