<svg fill="none" viewBox="0 0 50 50" id="griffin_tunic" xmlns="http://www.w3.org/2000/svg"><g clip-path="url(#amfa)"><path d="m13 19.5-6-16 7-2 6-1c.667 1.167 4 5.5 8 5.5s6.5-3.5 7-5.5l4.5 1L43 3l-5.5 14.5v14l2 15-14-.5.5-14.5L23.5 46 9 46.5 13.5 32 13 19.5Z" fill="#7445B8"/><path d="m13 19.5-6-16 7-2 6-1c.667 1.167 4 5.5 8 5.5s6.5-3.5 7-5.5l4.5 1L43 3l-5.5 14.5v14l2 15-14-.5.5-14.5L23.5 46 9 46.5 13.5 32 13 19.5Z" fill="#000" fill-opacity=".2"/><path d="M16.333 17.5c-2.083.5-3.645.5-4.166-.5 0 0 2.083 8 1.041 13C12.167 35 8 47 8 47l4.688 1s3.645-10 4.166-17c.521-7-.52-13.5-.52-13.5Z" fill="#7445B8"/><path d="M14 1.5c-1.6.4-5.333 1.5-7 2 1 .667 3.2 2.3 4 3.5 1 1.5 5 8 5.5 10s1 8 1 12.5c0 3.6-2.667 13.833-4 18.5 1 .167 3.5.6 5.5 1s7.5.833 10 1l1-21c-.667-3.5-2.2-11.2-3-14-.8-2.8-4.667-11.167-6.5-15-1.5.333-4.9 1.1-6.5 1.5Z" fill="#7445B8"/><path d="M14 1.5c-1.6.4-5.333 1.5-7 2 1 .667 3.2 2.3 4 3.5 1 1.5 5 8 5.5 10s1 8 1 12.5c0 3.6-2.667 13.833-4 18.5 1 .167 3.5.6 5.5 1s7.5.833 10 1l1-21c-.667-3.5-2.2-11.2-3-14-.8-2.8-4.667-11.167-6.5-15-1.5.333-4.9 1.1-6.5 1.5Z" fill="#fff" fill-opacity=".2"/><path d="M32 14.5c-.4 3.2-1.5 11-2 14.5 0 2.8.667 15.167 1 21 1.333-.167 4.3-.6 5.5-1 1.2-.4 3.167-1.833 4-2.5-1-4.667-3-14.9-3-18.5 0-4.5 0-7 .5-11.5.4-3.6 3.5-10.5 5-13.5-.833-.333-2.7-1.1-3.5-1.5C38.7 1.1 36.167.333 35 0c-.833 3.5-2.6 11.3-3 14.5Z" fill="#7445B8"/><path d="M32 14.5c-.4 3.2-1.5 11-2 14.5 0 2.8.667 15.167 1 21 1.333-.167 4.3-.6 5.5-1 1.2-.4 3.167-1.833 4-2.5-1-4.667-3-14.9-3-18.5 0-4.5 0-7 .5-11.5.4-3.6 3.5-10.5 5-13.5-.833-.333-2.7-1.1-3.5-1.5C38.7 1.1 36.167.333 35 0c-.833 3.5-2.6 11.3-3 14.5Z" fill="#fff" fill-opacity=".2"/><path d="M20 0c2.087 3.133 3.683 11.012 5.372 14.867C27.06 18.72 29.16 25.727 30 28.5c-2.156-.762-7-1.74-7-4 0-1.006 2.455-.022 4.553.24-1.967-.615-6.879-2.241-7.053-3.74-.174-1.499 1.814-1.084 5.5-.5-3.744-1.084-7.326-2.001-7.5-3.5-.174-1.499 2.469-1.102 6-.5-4.498-.767-8.326-1.501-8.5-3-.174-1.499 3.68-1.415 7-1-4-.5-8.826-1.001-9-2.5-.232-1.998 4.012-1.5 7.5-1.5-3.488-.5-9.826-.501-10-2-.149-1.28 2.085-1.763 5-1.926-3.994.105-7.36.13-7.5-1.074C8.826 2.001 13.5 1 20 0Z" fill="#7445B8"/><path d="M20 0c2.087 3.133 3.683 11.012 5.372 14.867C27.06 18.72 29.16 25.727 30 28.5c-2.156-.762-7-1.74-7-4 0-1.006 2.455-.022 4.553.24-1.967-.615-6.879-2.241-7.053-3.74-.174-1.499 1.814-1.084 5.5-.5-3.744-1.084-7.326-2.001-7.5-3.5-.174-1.499 2.469-1.102 6-.5-4.498-.767-8.326-1.501-8.5-3-.174-1.499 3.68-1.415 7-1-4-.5-8.826-1.001-9-2.5-.232-1.998 4.012-1.5 7.5-1.5-3.488-.5-9.826-.501-10-2-.149-1.28 2.085-1.763 5-1.926-3.994.105-7.36.13-7.5-1.074C8.826 2.001 13.5 1 20 0Z" fill="#fff" fill-opacity=".6"/><path d="M27 15c-1.2-4-4.833-11.667-6.5-15C16.833.667 13 1 13 2.5s3 1.5 8 2c-4 0-5.5-.197-5.5 1.5 0 1.5 3.5 2 7 2.5-3 0-5-.5-5 1.5 0 1.5 3.5 2 7 2.5-3 0-5.5-.5-5.5 1s2.735 2.226 7 3.5c-3.348-1-5-1-5 .5s2.5 2 6 3.5c-3.5-1-4.5-1-4.5.5s3.667 2.667 5.5 3.5c-2-.5-3.5-1-3.5 0 0 1.5 3.5 2.5 5.5 3.5-.5-2.833-1.8-9.5-3-13.5Z" fill="#FEFEFE"/><path d="M32.467 14.867C33.367 11.011 33.887 3.133 35 0c3.5 1 6.062 2 6 3-.093 1.499-1.861 1.593-4.61 1.5 2.174.474 3.215.304 3.11 2-.093 1.499-2.566 1.915-4.5 2 1.631.356 3.624-.498 3.5 1.5-.093 1.499-2.566 2.415-4.5 2.5 2 0 3.593-.499 3.5 1-.093 1.499-2.102 2.233-4.5 3 1.882-.602 3.483-.499 3.39 1-.093 1.499-2.299 2.278-4.294 3.362C34 20 35.593 19.502 35.5 21c-.093 1.499-2 3-4.196 3.74 1.118-.262 2.237-.525 2.175.474-.093 1.5-2.33 2.524-3.479 3.286.447-2.772 1.567-9.779 2.467-13.633Z" fill="#7445B8"/><path d="M32.467 14.867C33.367 11.011 33.887 3.133 35 0c3.5 1 6.062 2 6 3-.093 1.499-1.861 1.593-4.61 1.5 2.174.474 3.215.304 3.11 2-.093 1.499-2.566 1.915-4.5 2 1.631.356 3.624-.498 3.5 1.5-.093 1.499-2.566 2.415-4.5 2.5 2 0 3.593-.499 3.5 1-.093 1.499-2.102 2.233-4.5 3 1.882-.602 3.483-.499 3.39 1-.093 1.499-2.299 2.278-4.294 3.362C34 20 35.593 19.502 35.5 21c-.093 1.499-2 3-4.196 3.74 1.118-.262 2.237-.525 2.175.474-.093 1.5-2.33 2.524-3.479 3.286.447-2.772 1.567-9.779 2.467-13.633Z" fill="#fff" fill-opacity=".6"/><path d="M31.588 15c.636-4 2.56-11.667 3.441-15C36.971.667 39 1.72 39 2.5c0 1.5-1.588 1.5-4.235 2 2.117 0 3.44-.197 3.44 1.5 0 1.5-2.381 2-4.234 2.5 1.588 0 3.44-.5 3.44 1.5 0 1.5-2.646 2-4.5 2.5 1.589 0 3.442-.5 3.442 1s-1.978 2.226-4.235 3.5c1.772-1 3.44-1 3.44.5s-2.117 2-3.97 3.5c1.853-1 3.177-1 3.177.5s-2.736 2.667-3.706 3.5c1.059-.5 2.117-1 2.117 0 0 1.5-2.117 2.5-3.176 3.5.265-2.833.953-9.5 1.588-13.5Z" fill="#FEFEFE"/><path d="M37.5 27c-4.443 1.739-12.15 1.926-24.102 0L13 30.853c11.454 1.444 18.754 1.76 24.7.147l-.2-4Z" fill="#7445B8"/><path d="M37.5 27c-4.443 1.739-12.15 1.926-24.102 0L13 30.853c11.454 1.444 18.754 1.76 24.7.147l-.2-4Z" fill="#000" fill-opacity=".2"/></g><defs><clipPath id="amfa"><path fill="#fff" d="M0 0h50v50H0z"/></clipPath></defs></svg>