<svg fill="none" viewBox="0 0 50 50" id="griffin_leather" xmlns="http://www.w3.org/2000/svg"><path d="M31 .5c-5.616 1.784-6.67 1.819-12.5 0 .524 1.5-.067 4.3-3 5.5-2.933 1.2-7.087-.5-8.31-1.5L3 12.5c2.968 1.333 8.381 5.6 8.381 12S5.794 35.5 3 37l3.34 6.5c1.156-.667 5.172-1.5 10.279 0 5.448 1.6 7.857 5 8.381 6.5.524-1.5 3.667-5 8.381-6.5 3.785-1.204 8.38-.667 10.476 0L47 37c-2.794-1.167-8.381-5.3-8.381-12.5s5.587-11 8.381-12l-4.714-8c-.699 1.167-4.25 3-7.786 1.5-3.143-1.333-4.024-4.167-3.5-5.5Z" fill="#7445B8"/><path d="M31 .5c-5.616 1.784-6.67 1.819-12.5 0 .524 1.5-.067 4.3-3 5.5-2.933 1.2-7.087-.5-8.31-1.5L3 12.5c2.968 1.333 8.381 5.6 8.381 12S5.794 35.5 3 37l3.34 6.5c1.156-.667 5.172-1.5 10.279 0 5.448 1.6 7.857 5 8.381 6.5.524-1.5 3.667-5 8.381-6.5 3.785-1.204 8.38-.667 10.476 0L47 37c-2.794-1.167-8.381-5.3-8.381-12.5s5.587-11 8.381-12l-4.714-8c-.699 1.167-4.25 3-7.786 1.5-3.143-1.333-4.024-4.167-3.5-5.5Z" fill="#fff" fill-opacity=".2"/><path d="M20 28c1.5-10-2.333-12.667-3.5-14l8-8.5 9 8.5c-1.333 1.333-5 1.5-4 14 .415 5.183 2 6.333 3 8-1.167.667-3.8 2.6-5 5-1.5 3-3.5 3.6-5.5 0s-4.5-4.833-5.5-5c1.167-1.667 2.729-2.858 3.5-8Z" fill="#7445B8"/><path d="M24.795 2.33c-2.661 0-4.3-.387-6.295-.83.222.887-1.436 2.56-2.5 4.157-1.33 1.996-7 3.991-5.84 5.987 1.204 2.074 5.543-.887 6.652-1.996-1.33 1.33-3.326 5.655-1.996 6.653 1.996 1.497 4.435-2.44 5.322-4.657-.665 1.996-.665 7.318 1.33 7.318 1.997 0 3.327-4.879 3.327-6.653.222 1.996 1.863 7.185 3.992 6.653 2.128-.532.887-5.544.665-7.318.665 1.774 3.725 5.19 5.322 4.657 1.596-.532-.665-4.879-1.33-6.653 1.33 1.11 4.922 3.06 5.987 1.996C41.426 9.648 35.439 6.996 33.443 5 32.113 3.67 30.5 2.387 30.5 1.5c-1.996.444-3.044.83-5.705.83Z" fill="#7445B8"/><path d="M24.795 2.33c-2.661 0-4.3-.387-6.295-.83.222.887-1.436 2.56-2.5 4.157-1.33 1.996-7 3.991-5.84 5.987 1.204 2.074 5.543-.887 6.652-1.996-1.33 1.33-3.326 5.655-1.996 6.653 1.996 1.497 4.435-2.44 5.322-4.657-.665 1.996-.665 7.318 1.33 7.318 1.997 0 3.327-4.879 3.327-6.653.222 1.996 1.863 7.185 3.992 6.653 2.128-.532.887-5.544.665-7.318.665 1.774 3.725 5.19 5.322 4.657 1.596-.532-.665-4.879-1.33-6.653 1.33 1.11 4.922 3.06 5.987 1.996C41.426 9.648 35.439 6.996 33.443 5 32.113 3.67 30.5 2.387 30.5 1.5c-1.996.444-3.044.83-5.705.83Z" fill="#fff" fill-opacity=".6"/><path d="M25 1c-2 0-5.5-.667-7-1 .167.667-.2 2.8-1 4-1 1.5-3.784 2.823-3 4 1 1.5 4.167-.667 5-1.5-1 1-2.5 4.25-1.5 5 1.5 1.125 3.333-1.833 4-3.5-.5 1.5-.5 5.5 1 5.5s2.5-3.667 2.5-5c.167 1.5 1.4 5.4 3 5 1.6-.4.667-4.167.5-5.5.5 1.333 2.8 3.9 4 3.5 1.2-.4-.5-3.667-1-5 1 .833 3.7 2.3 4.5 1.5.8-.8-1.5-2.5-3-4-1-1-1-3.333-1-4-1.5.333-5 1-7 1Z" fill="#FEFEFE"/></svg>