<svg fill="none" viewBox="0 0 50 50" id="knights_ingot" xmlns="http://www.w3.org/2000/svg"><g clip-path="url(#anxa)"><path d="M44.841 13.335 15.565 29.641 17.788 41.5 50.03 22.23l-5.188-8.895Z" fill="#898989"/><path d="m0 33.347 4.447-8.524 11.118 4.818L17.788 41.5 0 33.347Z" fill="#898989"/><path d="m0 33.347 4.447-8.524 11.118 4.818L17.788 41.5 0 33.347Z" fill="#000" fill-opacity=".2"/><path d="M35.576 10 4.447 24.823l11.118 4.818L44.84 13.335 35.576 10Z" fill="#898989"/><path d="M35.576 10 4.447 24.823l11.118 4.818L44.84 13.335 35.576 10Z" fill="#fff" fill-opacity=".4"/><path d="m35.168 11.482-26.274 12.6 7.901 2.965 24.34-13.341-5.967-2.224Z" fill="#898989"/><path d="m35.168 11.482-26.274 12.6 7.901 2.965 24.34-13.341-5.967-2.224Z" fill="#fff" fill-opacity=".2"/><path d="m10.5 24.7 6.296 2.347 23.598-12.935L35.5 12.5l-25 12.2Z" fill="#898989"/><path d="m10.5 24.7 6.296 2.347 23.598-12.935L35.5 12.5l-25 12.2Z" fill="#fff" fill-opacity=".6"/><path d="M35.206 12.647v-1.165l5.93 2.224-1.336.694-4.594-1.753Z" fill="#898989"/></g><defs><clipPath id="anxa"><path fill="#fff" transform="matrix(-1 0 0 1 50 0)" d="M0 0h50v50H0z"/></clipPath></defs></svg>