<svg fill="none" viewBox="0 0 50 50" id="pestilent_shot" xmlns="http://www.w3.org/2000/svg"><path d="M9.737 2.014H40v3l1 2h4v41H11.316c-.527 0-3.158 0-4.737-1.568C5 44.877 5 43.309 5 42.786V6.718c0-1.045.737-2.3 1.579-3.136.842-.836 2.105-1.568 3.158-1.568Z" fill="#2FC4A7"/><path d="M9.737 2.014H40v3l1 2h4v41H11.316c-.527 0-3.158 0-4.737-1.568C5 44.877 5 43.309 5 42.786V6.718c0-1.045.737-2.3 1.579-3.136.842-.836 2.105-1.568 3.158-1.568Z" fill="#000" fill-opacity=".4"/><path d="m43 9-3-4v35.031h-2L43 46V9Z" fill="#898989"/><path d="m43 9-3-4v35.031h-2L43 46V9Z" fill="#fff" fill-opacity=".2"/><path d="M10.093 40H38l5 6H10.093c-.504 0-3.119-.918-3.119-3.16C6.974 40.6 9.59 40 10.093 40Z" fill="#898989"/><path d="M10.093 40H38l5 6H10.093c-.504 0-3.119-.918-3.119-3.16C6.974 40.6 9.59 40 10.093 40Z" fill="#fff" fill-opacity=".6"/><g clip-path="url(#aqka)"><path fill-rule="evenodd" clip-rule="evenodd" d="m23.543 11.034 7.718 1.413-1.413 7.718 7.718 1.412-1.412 7.718-7.718-1.412-1.412 7.718-1.117-.205-2.044-6.041 1.91 1.609 3.44-5.038-3.707-3.827 3.3-2.545-2.378-4.213 2.802-3.266-3.351-.613-2.111 4.651 3.514 3.162-4.325 2.987 4.982 3.746-2.385 2.712-3.377-2.193.683 8.312-3.554-.65 1.412-7.719L13 25.058l1.412-7.718 7.719 1.412 1.412-7.717Z" fill="#FEFEFE"/><path d="m24.992 26.524 4.794 1.262-1.262-4.795-.757 1.767L16.16 13.15l.253-2.271-4.542-4.542-.505 3.028-3.028.504 4.542 4.542 2.27-.252 11.608 11.607-1.766.757Z" fill="#2FC4A7"/><path d="m24.992 26.524 4.794 1.262-1.262-4.795-.757 1.767L16.16 13.15l.253-2.271-4.542-4.542-.505 3.028-3.028.504 4.542 4.542 2.27-.252 11.608 11.607-1.766.757Z" fill="#fff" fill-opacity=".6"/></g><defs><clipPath id="aqka"><path fill="#fff" transform="matrix(-1 0 0 1 38 6)" d="M0 0h30v30H0z"/></clipPath></defs></svg>