<svg fill="none" viewBox="0 0 50 50" id="sinister_essence" xmlns="http://www.w3.org/2000/svg"><circle cx="24.907" cy="24.907" r="22.417" stroke="#1D8CE0" stroke-width=".996"/><circle cx="24.907" cy="24.907" r="22.417" stroke="#fff" stroke-opacity=".95" stroke-width=".996"/><path d="M40.35 31.881c3.188-7.571 0-16.438-4.981-20.922.996 4.484.298 11.159-2.491 17.934-2.79 6.774-9.133 11.125-11.956 12.453 5.48 1.495 16.24-1.893 19.428-9.464Z" fill="#FEFEFE" fill-opacity=".15"/><path d="M14.446 8.967c-2.84 2.501-3.985 5.977-3.985 8.966.486-2.06 3.582-6.233 6.476-7.97 2.463-1.478 4.483-2.989 7.97-3.487-3.487-.498-7.62-.01-10.46 2.49ZM33.874 39.852c3.487-1.993 6.974-6.974 6.974-9.963-.74 2.989-4.685 6.815-7.472 8.468-3.052 1.81-8.967 3.487-12.454 3.487 3.487.997 8.967.285 12.952-1.992Z" fill="#FEFEFE"/><path d="M14.078 15.026c3.085-1.284 6.246 1.984 7.8 5.224 1.748 3.646-2.25 9.517-3.743 9.917-1.493.4-4.768-3.293-5.995-6.165-1.226-2.871-1.147-7.692 1.938-8.976Z" fill="#D0333D"/><path d="M14.078 15.026c3.085-1.284 6.246 1.984 7.8 5.224 1.748 3.646-2.25 9.517-3.743 9.917-1.493.4-4.768-3.293-5.995-6.165-1.226-2.871-1.147-7.692 1.938-8.976Z" fill="#000" fill-opacity=".2"/><path d="M35.511 15.683c-3.434-1.146-7.06 1.49-8.468 4.85-1.804 4.302.386 10.03 2.03 10.36 2.415.486 7.29-3.25 8.375-6.22 1.086-2.968 1.497-7.844-1.937-8.99Z" fill="#D0333D"/><path d="M35.511 15.683c-3.434-1.146-7.06 1.49-8.468 4.85-1.804 4.302.386 10.03 2.03 10.36 2.415.486 7.29-3.25 8.375-6.22 1.086-2.968 1.497-7.844-1.937-8.99Z" fill="#000" fill-opacity=".2"/><path d="M25.287 28.708c-.524-.591-1.018-3.232-1.2-4.478-.427.114-1.306 1.95-1.717 2.974-.33.82-.457 2.56-.48 3.328l1.92-.514 2.532.921c-.133-.497-.531-1.64-1.055-2.231Z" fill="#D0333D"/><path d="M25.287 28.708c-.524-.591-1.018-3.232-1.2-4.478-.427.114-1.306 1.95-1.717 2.974-.33.82-.457 2.56-.48 3.328l1.92-.514 2.532.921c-.133-.497-.531-1.64-1.055-2.231Z" fill="#000" fill-opacity=".2"/><path d="M38.101 31.385c.359-1.223.483-3.39.501-4.32-.975-.158-2.147 2.752-2.647 3.371-.5.62-1.668.729-1.747 1.216-.079.487 1.391 2.828 1.878 2.907.488.079 1.568-1.647 2.015-3.174Z" fill="#D0333D"/><path d="M38.101 31.385c.359-1.223.483-3.39.501-4.32-.975-.158-2.147 2.752-2.647 3.371-.5.62-1.668.729-1.747 1.216-.079.487 1.391 2.828 1.878 2.907.488.079 1.568-1.647 2.015-3.174Z" fill="#000" fill-opacity=".2"/><path d="M34.359 35.95c.262-.17-.47-4.346-1.168-4.359-.746.08-2.337.626-2.525 1.786-.095.585 3.234 2.871 3.693 2.573Z" fill="#D0333D"/><path d="M34.359 35.95c.262-.17-.47-4.346-1.168-4.359-.746.08-2.337.626-2.525 1.786-.095.585 3.234 2.871 3.693 2.573Z" fill="#000" fill-opacity=".2"/><path d="M29.25 34.15c.422-.131 3.247 1.561 3.176 2.544-.05.697-1.924 1.46-2.622 1.447-.698-.013-.975-3.86-.553-3.99Z" fill="#D0333D"/><path d="M29.25 34.15c.422-.131 3.247 1.561 3.176 2.544-.05.697-1.924 1.46-2.622 1.447-.698-.013-.975-3.86-.553-3.99Z" fill="#000" fill-opacity=".2"/><path d="M28.184 35.178c-.263-.843-.659-2.108-1.422-2.332-.633.198-1.212 5.005-1.015 5.637.198.633 2.16.25 2.582.119.421-.132.118-2.582-.145-3.424Z" fill="#D0333D"/><path d="M28.184 35.178c-.263-.843-.659-2.108-1.422-2.332-.633.198-1.212 5.005-1.015 5.637.198.633 2.16.25 2.582.119.421-.132.118-2.582-.145-3.424Z" fill="#000" fill-opacity=".2"/><path d="M22.81 38.707c-.619-.5.053-6.493.962-6.546.421-.131.896.646 1.238 1.001.342.356.184 5.032-.316 5.65-.5.62-1.265.396-1.884-.105Z" fill="#D0333D"/><path d="M22.81 38.707c-.619-.5.053-6.493.962-6.546.421-.131.896.646 1.238 1.001.342.356.184 5.032-.316 5.65-.5.62-1.265.396-1.884-.105Z" fill="#000" fill-opacity=".2"/><path d="M17.305 34.413c.08-.487 3.688-3.002 4.307-2.502.961.856.013 6.704-.198 6.77-.21.066-.632.197-1.949-.316-1.317-.514-2.239-3.464-2.16-3.952Z" fill="#D0333D"/><path d="M17.305 34.413c.08-.487 3.688-3.002 4.307-2.502.961.856.013 6.704-.198 6.77-.21.066-.632.197-1.949-.316-1.317-.514-2.239-3.464-2.16-3.952Z" fill="#000" fill-opacity=".2"/><path d="M13.75 30.436c.684.711 3.397 1.251 3.595 1.883-.014.698-1.568 1.646-1.647 2.134-.079.487 1.489 2.542 1.067 2.673-.421.132-3.793-2.515-4.399-3.714-.606-1.198-1.672-3.872-.895-4.346.777-.474 1.593.659 2.278 1.37Z" fill="#D0333D"/><path d="M13.75 30.436c.684.711 3.397 1.251 3.595 1.883-.014.698-1.568 1.646-1.647 2.134-.079.487 1.489 2.542 1.067 2.673-.421.132-3.793-2.515-4.399-3.714-.606-1.198-1.672-3.872-.895-4.346.777-.474 1.593.659 2.278 1.37Z" fill="#000" fill-opacity=".2"/><path d="M10.154 24.851c.487.08 1.699 2.477 1.409 3.03-.307.25-1.006.777-1.343.882-.422.132-.553-3.99-.066-3.912Z" fill="#D0333D"/><path d="M10.154 24.851c.487.08 1.699 2.477 1.409 3.03-.307.25-1.006.777-1.343.882-.422.132-.553-3.99-.066-3.912Z" fill="#000" fill-opacity=".2"/></svg>