<svg fill="none" viewBox="0 0 50 50" id="bishops_scroll" xmlns="http://www.w3.org/2000/svg"><g clip-path="url(#acxa)"><path d="M2.232 46.101c-3.706-5.06-1.995-9.839-.57-10.682C14.108 27.642 41.852 7.01 42.5 8.5c1.66 3.82 3.769 5.484 7.5 5.484-3.8 2.811-11.194 9.568-16.418 14.72C28.332 33.883 19.255 45.41 16.5 50c-3.5-2-11.304.149-14.268-3.899Z" fill="#C57A09"/><path d="m3.942 41.04 8.266-5.621c.57.843 1.596 3.43 1.14 7.027-.57 4.498-3.135 4.217-5.7 3.373-2.053-.674-3.326-3.466-3.706-4.778Z" fill="#FAA21E"/><path d="m3.942 41.04 8.266-5.621c.57.843 1.596 3.43 1.14 7.027-.57 4.498-3.135 4.217-5.7 3.373-2.053-.674-3.326-3.466-3.706-4.778Z" fill="#000" fill-opacity=".4"/><path d="M9.358 37.404c-2.737-2.024-5.986-3.11-7.696-1.985 5.32-4.498 16.873-14.432 20.521-18.255C25.832 13.341 33.014 4.327 36.15.298c1.425-.468 5.244-.73 9.12 1.968 3.876 2.698 4.085 5.997 3.705 7.309-3.99 2.904-13.339 10.063-18.81 15.46-5.473 5.397-14.252 15.93-17.957 20.52.19-1.873-.114-6.127-2.85-8.151Z" fill="#FAA21E"/><path d="M9.358 37.404c-2.737-2.024-5.986-3.11-7.696-1.985 5.32-4.498 16.873-14.432 20.521-18.255C25.832 13.341 33.014 4.327 36.15.298c1.425-.468 5.244-.73 9.12 1.968 3.876 2.698 4.085 5.997 3.705 7.309-3.99 2.904-13.339 10.063-18.81 15.46-5.473 5.397-14.252 15.93-17.957 20.52.19-1.873-.114-6.127-2.85-8.151Z" fill="#fff" fill-opacity=".2"/><path d="M16 22.038c1.115-1.607 6.132-2.678 10.591-1.607 4.46 1.071 8.92 4.82 8.362 8.569" stroke="#D0333D" stroke-width="1.563"/><path d="M16 22.038c1.115-1.607 6.132-2.678 10.591-1.607 4.46 1.071 8.92 4.82 8.362 8.569" stroke="#000" stroke-opacity=".2" stroke-width="1.563"/><path d="M22 16.079c3.287-.526 6.574 1.577 8.218 6.307 1.669 4.803.365 10.512-1.096 12.614" stroke="#D0333D" stroke-width="1.563"/><path d="M22 16.079c3.287-.526 6.574 1.577 8.218 6.307 1.669 4.803.365 10.512-1.096 12.614" stroke="#000" stroke-opacity=".2" stroke-width="1.563"/></g><defs><clipPath id="acxa"><path fill="#fff" transform="matrix(-1 0 0 1 50 0)" d="M0 0h50v50H0z"/></clipPath></defs></svg>