<svg fill="none" viewBox="0 0 50 50" id="jackalope_antler" xmlns="http://www.w3.org/2000/svg"><g clip-path="url(#ansa)"><path d="M35.928 10.415c-.762-3.09 1.363-9.87.055-9.376-.738.279-4.925 8.225-3.976 12.675.95 4.449 4.642 6.823 6.61 4.001 1.908-2.737-1.927-4.21-2.689-7.3Z" fill="#7445B8"/><path d="M14.046 33.511C3.623 38.051-2.63 46.572 1.88 48.52c6.764 2.92 8.383-6.8 18.786-11.215 11.703-4.967 17.436-10.37 20.95-16.956C45.13 13.76 46.016 1.182 44.84.987c-.996-.166-2.743 9.945-5.966 14.787-3.224 4.842-7.415 6.805-11.036 7.483C20.236 24.681 14.666 7.783 14.06 8.21c-.606.428-.331 12.697 3.936 16.098 4.267 3.4 3.12 6.124-3.95 9.203Z" fill="#7445B8"/><path d="M14.046 33.511C3.623 38.051-2.63 46.572 1.88 48.52c6.764 2.92 8.383-6.8 18.786-11.215 11.703-4.967 17.436-10.37 20.95-16.956C45.13 13.76 46.016 1.182 44.84.987c-.996-.166-2.743 9.945-5.966 14.787-3.224 4.842-7.415 6.805-11.036 7.483C20.236 24.681 14.666 7.783 14.06 8.21c-.606.428-.331 12.697 3.936 16.098 4.267 3.4 3.12 6.124-3.95 9.203Z" fill="#fff" fill-opacity=".2"/><path d="M34.77 33.444c6.292-.684 14.414-6.465 15.12-5.543.708.922-5.42 9.872-14.258 11-8.837 1.127-16.841-1.996-15.077-5.168 2.704-4.862 7.923.396 14.215-.289Z" fill="#7445B8"/><path d="M34.77 33.444c6.292-.684 14.414-6.465 15.12-5.543.708.922-5.42 9.872-14.258 11-8.837 1.127-16.841-1.996-15.077-5.168 2.704-4.862 7.923.396 14.215-.289Z" fill="#fff" fill-opacity=".4"/></g><defs><clipPath id="ansa"><path fill="#fff" transform="matrix(-1 0 0 1 50 0)" d="M0 0h50v50H0z"/></clipPath></defs></svg>