<svg fill="none" viewBox="0 0 50 50" id="moonstone" xmlns="http://www.w3.org/2000/svg"><path d="M23.604 41C33.212 41 41 33.564 41 24.39c0-6.735-4.198-12.534-10.233-15.14-1.535-.663-2.046-.004-1.535 1.95.422 1.61 2.734 10.013-1.87 15.387C22.415 32.357 10.967 32 9.943 32c-.944 0-1.352.925-.409 2.16 3.163 4.146 8.287 6.84 14.07 6.84Z" fill="#1D8CE0"/><path d="M23.604 41C33.212 41 41 33.564 41 24.39c0-6.735-4.198-12.534-10.233-15.14-1.535-.663-2.046-.004-1.535 1.95.422 1.61 2.734 10.013-1.87 15.387C22.415 32.357 10.967 32 9.943 32c-.944 0-1.352.925-.409 2.16 3.163 4.146 8.287 6.84 14.07 6.84Z" fill="#fff" fill-opacity=".4"/><path d="M36 22c-.734-5.868-5.192-10.653-6.5-10 .436 2.83 2.12 9.811-2.5 15-4.74 5.323-13.692 4.608-15 5 .5 1.5 2.5 5 10.5 5S37 30 36 22Z" fill="#1D8CE0"/><path d="M36 22c-.734-5.868-5.192-10.653-6.5-10 .436 2.83 2.12 9.811-2.5 15-4.74 5.323-13.692 4.608-15 5 .5 1.5 2.5 5 10.5 5S37 30 36 22Z" fill="#fff" fill-opacity=".2"/><path d="M32.5 23c.5-4.5-1.5-8.5-2.5-8 .333 2.167.531 8.027-3 12-3.622 4.075-11 4.5-12 4.8 0 1 4.015 2.097 8.5 1.2s8.445-5 9-10Z" fill="#1D8CE0"/><path d="M38.496 18.113c.88 1.718 1.029 3.618.504 3.887-.525.269-1.12-1.281-2-3-.88-1.719-1.574-3.244-1.05-3.513.525-.269 1.665.906 2.546 2.626Z" fill="#FEFEFE"/><ellipse cx="39.205" cy="24.515" rx=".81" ry="1.266" transform="rotate(.22 39.205 24.515)" fill="#FEFEFE"/><ellipse cx="11.519" cy="34.082" rx=".829" ry="1.219" transform="rotate(132.305 11.52 34.082)" fill="#FEFEFE"/></svg>