<svg fill="none" viewBox="0 0 50 50" id="chaotic_flail" xmlns="http://www.w3.org/2000/svg"><g clip-path="url(#afaa)"><path d="M20 7.5c4-12 14.5-6 17.5 2s3 13.5 0 20" stroke="#D0333D" stroke-width="2"/><path d="M21.374 4.922c-.789-.333-1.976-1.051-2.348-1.317L7.246 31.499l4.928 2.082 11.78-27.894c-.53-.117-1.791-.432-2.58-.765Z" fill="#898989"/><path d="M21.374 4.922c-.789-.333-1.976-1.051-2.348-1.317L7.246 31.499l4.928 2.082 11.78-27.894c-.53-.117-1.791-.432-2.58-.765Z" fill="#fff" fill-opacity=".2"/><path d="m12.693 35.102-6.9-2.914L.02 45.855l.702 2.308 4.27 1.804 2.145-1.106 5.555-13.759Z" fill="#898989"/><path d="m12.693 35.102-6.9-2.914L.02 45.855l.702 2.308 4.27 1.804 2.145-1.106 5.555-13.759Z" fill="#fff" fill-opacity=".2"/><path d="m30.922 49.906 2.724-4.114-2.714-.82-.01 4.934ZM42.51 49.951l-5.803-6.937 3.24-1.736 2.563 8.673ZM30.109 40.674l-1.815-3.387-6.54 6.223 8.355-2.836ZM40.396 30.8l1.669 3.466 5.826-5.397-7.495 1.931ZM33.61 28.75l-3.733 2.002-1.89-7.897 5.624 5.895ZM25.18 34.596l-4.634-2.634 5.386.146-.751 2.488ZM44.406 40.404l.752-2.488 4.792 2.929-5.544-.441Z" fill="#D0333D"/><path fill-rule="evenodd" clip-rule="evenodd" d="M43.617 38.931c-.492 1.629-1.748 2.77-2.163 3.056-.067-.597-.42-1.86-1.325-2.134-1.131-.341-4.105 1.063-4.515 2.42-.314 1.04.516 2.002 1.006 2.411l.06.05c-.822-.001-2.783-.1-4.05-.483-1.187-.358-2.351-1.253-2.932-1.7l-.108-.082.003-.001c.545-.165 1.62-.492 1.893-1.395.342-1.13-1.455-4.52-2.609-4.868-1.134-.343-1.53.068-1.942.497-.092.095-.184.191-.286.28-.01-.06-.02-.123-.032-.187-.118-.676-.272-1.56.183-3.067.36-1.192.862-2.07 1.272-2.79.159-.278.303-.532.421-.772.062.115.128.255.2.408.298.628.696 1.467 1.279 1.643.904.274 4.665-1.552 5.007-2.683.273-.905-.483-2.08-.89-2.367.544-.165 2.038-.372 3.666.12 1.629.492 2.758 1.492 3.12 1.93-.446.112-1.404.563-1.678 1.468-.342 1.13 1.553 4.665 2.457 4.938.724.22 1.782-.449 2.22-.81.12.694.235 2.49-.257 4.118Zm-7.95-5.28a2.204 2.204 0 1 0-1.275 4.221 2.204 2.204 0 0 0 1.275-4.22Z" fill="#D0333D"/><path d="M43.168 38.532c-.367 1.214-.942 2.08-1.329 2.347-.062-.556-.697-1.33-1.494-1.705-1.553-.73-5.164 1.206-5.417 2.903-.155 1.045.164 1.829.592 2.188-1.144.033-2.077-.249-2.531-.386-.454-.137-1.628-.87-1.87-1.322.506-.153 1.354-.725 1.08-2.321-.187-1.085-1.243-3.402-2.178-4.063-.935-.66-1.87-1.321-2.982-.144-.108-.653.271-2.152.386-2.531.114-.38.419-1.387.87-1.629.484.903 1.177 1.112 1.87 1.322.844.255 4.547-1.275 5.417-2.903.625-1.17.072-2.473-.307-2.74.507-.154 1.145-.033 2.269.491 1.196.558 1.796.808 2.133 1.216-.416.105-1.317.946-1.08 2.322.274 1.596 1.663 4.062 2.419 4.514.72.43 1.387.418 2.29-.065.11.647.253 1.211-.138 2.506Z" fill="#D0333D"/><path d="M43.168 38.532c-.367 1.214-.942 2.08-1.329 2.347-.062-.556-.697-1.33-1.494-1.705-1.553-.73-5.164 1.206-5.417 2.903-.155 1.045.164 1.829.592 2.188-1.144.033-2.077-.249-2.531-.386-.454-.137-1.628-.87-1.87-1.322.506-.153 1.354-.725 1.08-2.321-.187-1.085-1.243-3.402-2.178-4.063-.935-.66-1.87-1.321-2.982-.144-.108-.653.271-2.152.386-2.531.114-.38.419-1.387.87-1.629.484.903 1.177 1.112 1.87 1.322.844.255 4.547-1.275 5.417-2.903.625-1.17.072-2.473-.307-2.74.507-.154 1.145-.033 2.269.491 1.196.558 1.796.808 2.133 1.216-.416.105-1.317.946-1.08 2.322.274 1.596 1.663 4.062 2.419 4.514.72.43 1.387.418 2.29-.065.11.647.253 1.211-.138 2.506Z" fill="#000" fill-opacity=".2"/></g><defs><clipPath id="afaa"><path fill="#fff" d="M0 0h50v50H0z"/></clipPath></defs></svg>