<svg fill="none" viewBox="0 0 50 50" id="crippling_slash" xmlns="http://www.w3.org/2000/svg"><path d="M9.737 2.014H40v3l1 2h4v41H11.316c-.527 0-3.158 0-4.737-1.568C5 44.877 5 43.309 5 42.786V6.718c0-1.045.737-2.3 1.579-3.136.842-.836 2.105-1.568 3.158-1.568Z" fill="#D0333D"/><path d="M9.737 2.014H40v3l1 2h4v41H11.316c-.527 0-3.158 0-4.737-1.568C5 44.877 5 43.309 5 42.786V6.718c0-1.045.737-2.3 1.579-3.136.842-.836 2.105-1.568 3.158-1.568Z" fill="#000" fill-opacity=".2"/><path d="m43 9-3-4v35.031h-2L43 46V9Z" fill="#898989"/><path d="m43 9-3-4v35.031h-2L43 46V9Z" fill="#fff" fill-opacity=".2"/><path d="M10.093 40H38l5 6H10.093c-.504 0-3.119-.918-3.119-3.16C6.974 40.6 9.59 40 10.093 40Z" fill="#898989"/><path d="M10.093 40H38l5 6H10.093c-.504 0-3.119-.918-3.119-3.16C6.974 40.6 9.59 40 10.093 40Z" fill="#fff" fill-opacity=".6"/><g clip-path="url(#ahza)" fill="#FEFEFE"><rect x="11.08" y="35.903" width="1.36" height="10.056" rx=".68" transform="rotate(-141.413 11.08 35.903)"/><rect x="14.512" y="26.696" width="1.436" height="4.759" rx=".718" transform="rotate(-51.413 14.512 26.696)"/><path d="M30.596 14.26c-2.563 4.848-10.429 11.435-12.486 13.47l-1.595-1.273c2.771-2.383 9.043-10.243 9.954-14.11 2.058-2.034 3.245-4.145 4.396-6.6.126 1.478 1.61 4.96-.27 8.514Z"/><path d="M30.564 14.236c-2.56 4.849-10.44 11.425-12.5 13.458l-.53-.424c2.729-2.876 14.262-12.97 11.578-18.327.448-.562 1.078-1.897 1.709-3.232.127 1.48 1.62 4.97-.257 8.525ZM32.11 28.843l-2.17.715-3.83-4.85.844-.83.099-1.136 5.058 6.101ZM33.839 26.283l-1.079 2.014-5.052-6.16.922-.22-.156-1.663 5.365 6.03Z"/><path d="M32.029 28.087c.991-.833 1.977-2.73 2.27-3.58.069-.158.54-.61 1.02-.403.474.205.432.694.418.856l-1.547 3.007 2.905 4.026 1.928.468-.14 1.628-2.125 1.783-1.629-.142-.156-1.98-3.477-3.419-3.18.708c-.221.035-.686-.027-.771-.559-.085-.532.337-.736.559-.771.946-.191 2.934-.79 3.925-1.622ZM9.823 11.242c-.362-.513-.724-1.364-.724-1.364l12.79 5.8-.855.551v.87l-10.191-4.943c-.201-.086-.66-.407-1.02-.914ZM10.78 9.14a2.205 2.205 0 0 1 1.173.047l10.58 4.262-.422.556v1.12L9.26 9.519s.86-.23 1.52-.38Z"/></g><defs><clipPath id="ahza"><path fill="#fff" transform="translate(9 6)" d="M0 0h30v30H0z"/></clipPath></defs></svg>