<svg fill="none" viewBox="0 0 50 50" id="cursed_ball" xmlns="http://www.w3.org/2000/svg"><g clip-path="url(#aila)"><circle cx="25" cy="25" r="25" transform="matrix(-1 0 0 1 50 0)" fill="#D0333D"/><circle cx="25" cy="25" r="25" transform="matrix(-1 0 0 1 50 0)" fill="#000" fill-opacity=".6"/><path fill-rule="evenodd" clip-rule="evenodd" d="M0 25c0 13.807 11.193 25 25 25s25-11.193 25-25S38.807 0 25 0 0 11.193 0 25ZM13.014 6.507c5.137-.685 8.561 5.48 9.589 10.959 1.156 6.164-7.192 13.356-9.59 13.356-2.397 0-5.821-6.85-6.506-11.644-.685-4.795 1.37-11.986 6.507-12.671Zm17.215 13.455c3.46-4.469 9.949-6.962 14.634-3.866 4.685 3.096 2.112 10.236-.707 14.249S32.534 37.999 29.11 36.3c-2.33-1.155-3.312-10.616 1.119-16.34Zm-5.914 11.545c-.548-1.096-.228-5.251 0-7.192-.685 0-2.74 2.397-3.767 3.767-.822 1.096-1.712 3.653-2.055 4.795h3.082L25 35.274c0-.8-.137-2.671-.685-3.767Zm-20.231-6.75c.656-.712-.197-4.79-.895-5.104-.699-.314-2.156 5.915-1.472 5.887.547-.022 1.806-.531 2.367-.783Zm2.25 4.706c.35.635 1.396 1.394 2.406 2.127 1.124.815 2.203 1.598 2.225 2.14-.169.585-1.102 1.094-1.942 1.552-.65.354-1.244.678-1.381.983-.144.32.097 1.268.335 2.207.282 1.113.56 2.212.19 2.227-.685.028-4.674-5.292-5.1-7.33-.427-2.04-.952-6.474.403-6.873 1.15-.338 1.879 1.073 2.526 2.327.115.222.227.439.338.64Zm38.59 4.927c-.4 1.388-1.456 4.585-2.483 6.272-1.285 2.11-3.596 4.26-4.294 3.947-.699-.314-1.961-4.41-1.647-5.109.163-.362.721-.454 1.361-.56.596-.1 1.262-.21 1.744-.56.28-.205.714-.66 1.224-1.195 1.3-1.364 3.092-3.246 4.096-2.795ZM35 39c1.04.3.46 6.85 0 7-.808.262-4.877-4.5-4.5-5.338C31.247 39 33.85 38.82 35 39Zm-6.931 2.252c.684-.028 4.237 3.642 3.737 5.086-.355 1.025-3.47 1.416-4.51 1.116-1.041-.3.089-6.173.773-6.202ZM24.863 38.3c1.055.643 1.139 2.696 1.195 4.064.056 1.37-.473 5.161-1.158 5.19-.684.027-3.778-.188-3.82-1.215-.042-1.026 2.756-7.996 3.783-8.038Zm-8.273 7.195c-.727-.998 2.686-9.707 4.068-9.421.523-.022.88.764 1.183 1.435.094.207.183.403.27.562.37.67-1.743 7.612-2.742 8.338-.998.727-2.053.085-2.78-.914Zm.933-10.663c-.727-.999-7.144 1.322-7.458 2.02-.314.698-.117 5.489 1.65 6.787 1.767 1.299 2.451 1.27 2.793 1.256.343-.014 4.111-8.395 3.015-10.063Z" fill="#D0333D"/></g><defs><clipPath id="aila"><path fill="#fff" transform="matrix(-1 0 0 1 50 0)" d="M0 0h50v50H0z"/></clipPath></defs></svg>