<svg fill="none" viewBox="0 0 50 50" id="cursed_bow" xmlns="http://www.w3.org/2000/svg"><g clip-path="url(#aima)"><path d="M47 3 3 47" stroke="#FAA21E" stroke-linecap="round"/><path d="M47 3 3 47" stroke="#000" stroke-opacity=".1" stroke-linecap="round"/><path d="M1.994 45.72C1.197 47.108.332 48.768 0 49.924c.499-.578 1.53-1.503 2.992-1.891 2.008-.533 2.991-.578 4.487 0s4.024 2.47 5.021 1.891c.997-.578.962-.313 1.96-4.36.996-4.047 4.985-4.047 6.481-3.47 1.496.579 7.063 3.14 8.559 1.406 1.197-1.388.582-6.995.416-9.5-.333 1.542-1.82 3.612-3.416 5-1.994 1.735-10.046.204-11.542 1.36-1.496 1.157-2.96 4.204-3.958 5.36-.997 1.157-8.008-1.734-9.006 0ZM45.696 1.994C47.081 1.197 48.738.332 49.892 0c-.577.499-1.5 1.53-1.888 2.992-.531 2.008-.576 2.991 0 4.487.577 1.496 2.465 4.024 1.888 5.021-.577.997-.313.962-4.352 1.96-4.039.996-4.039 4.985-3.462 6.481.577 1.496 3.653 7.063 1.922 8.559-1.385 1.197-7.5.582-10 .416 1.539-.333 3.605-1.82 4.99-3.416 1.73-1.994.203-10.046 1.357-11.542 1.154-1.496 4.195-2.96 5.35-3.958 1.153-.997-1.732-8.008 0-9.006Z" fill="#FAA21E"/><path d="M45.5 2C46.7 1.2 49 .333 50 0c-.5.5-1.7 1.8-2.5 3-1 1.5-.5 3 0 4.5s3 4 2.5 5-2 1-5.5 2-3.5 5-3 6.5 2.5 6.5 1 8c-1.2 1.2-5.833 1.167-8 1 1.333-.333 4.3-1.4 5.5-3 1.5-2-1-10.5 0-12s6-2.5 7-3.5S44 3 45.5 2ZM1.994 45.307C1.197 46.54.332 48.904 0 49.932c.499-.514 1.795-1.747 2.992-2.57 1.495-1.027 2.991-.513 4.487 0 1.496.515 3.989 3.084 4.986 2.57.997-.514.997-2.055 1.994-5.653.997-3.598 4.986-3.598 6.482-3.084 1.496.514 6.482 2.57 7.978 1.028 1.196-1.233 1.163-5.996.997-8.223-.333 1.37-1.396 4.42-2.992 5.653-1.994 1.542-10.47-1.027-11.966 0-1.496 1.028-2.493 6.168-3.49 7.196-.998 1.028-8.476-3.084-9.474-1.542Z" fill="#FEFEFE"/><circle cx="6.5" cy="6.5" r="6.5" transform="matrix(-1 0 0 1 41 28)" fill="#D0333D"/><circle cx="6.5" cy="6.5" r="6.5" transform="matrix(-1 0 0 1 41 28)" fill="#000" fill-opacity=".6"/><path fill-rule="evenodd" clip-rule="evenodd" d="M28 34.5a6.5 6.5 0 1 0 13 0 6.5 6.5 0 0 0-13 0Zm3.383-4.808c1.336-.178 2.226 1.424 2.494 2.85.3 1.602-1.87 3.472-2.494 3.472-.623 0-1.513-1.781-1.691-3.028-.178-1.246.356-3.116 1.691-3.294Zm4.476 3.498c.9-1.162 2.587-1.81 3.805-1.005 1.218.805.55 2.661-.184 3.705-.732 1.043-3.021 1.99-3.912 1.548-.605-.3-.86-2.76.291-4.248Zm-1.537 3.002c-.143-.285-.06-1.365 0-1.87-.178 0-.713.623-.98.98-.213.284-.445.95-.534 1.246h.801l.89.623c0-.207-.035-.694-.177-.98Zm-5.26-1.755c.17-.185-.051-1.245-.233-1.327-.182-.082-.56 1.538-.383 1.53.143-.005.47-.138.616-.203Zm.585 1.224c.09.164.363.362.625.552.293.212.573.416.579.557-.044.152-.287.284-.505.403-.17.093-.324.177-.36.256-.037.083.026.33.088.574.073.29.146.575.05.579-.179.007-1.216-1.376-1.327-1.906-.11-.53-.247-1.683.105-1.787.3-.088.489.279.657.605l.088.167Zm10.033 1.28c-.104.361-.378 1.192-.645 1.631-.334.549-.935 1.108-1.117 1.026-.181-.081-.51-1.146-.428-1.328.042-.094.188-.118.354-.146.155-.025.328-.054.453-.145a3.2 3.2 0 0 0 .318-.31c.338-.356.804-.845 1.065-.727Zm-2.58 1.2c.27.077.12 1.78 0 1.82-.21.067-1.268-1.17-1.17-1.389.194-.432.871-.479 1.17-.432Zm-1.802.585c.178-.008 1.101.947.971 1.322-.092.267-.902.368-1.172.29-.27-.078.023-1.605.2-1.612Zm-.834-.768c.275.167.296.7.311 1.057.015.355-.123 1.341-.301 1.349-.178.007-.982-.049-.993-.316-.011-.267.716-2.08.983-2.09Zm-2.15 1.87c-.19-.259.698-2.523 1.057-2.449.136-.005.229.199.308.373.024.054.047.105.07.146.096.174-.454 1.98-.713 2.168-.26.19-.534.022-.723-.237Zm.242-2.772c-.19-.26-1.858.344-1.94.525-.08.182-.03 1.427.43 1.765.46.338.637.33.726.327.09-.004 1.069-2.183.784-2.617Z" fill="#D0333D"/></g><defs><clipPath id="aima"><path fill="#fff" transform="matrix(-1 0 0 1 50 0)" d="M0 0h50v50H0z"/></clipPath></defs></svg>