<svg fill="none" viewBox="0 0 50 50" id="dodocamel_plume" xmlns="http://www.w3.org/2000/svg"><g clip-path="url(#aita)" stroke-linecap="round" stroke-linejoin="round"><path d="M16 40c-2.5-1.5-4-4-5-6.5m29-29c-1-.297-2-2-2-3m1.195 6.203C37.695 6.703 36 5 35.5 3m3 8c-2.5-1.5-3.82-2.797-5-6m4 9c-3-2-5-4-5.845-6.297M35.5 16.5c-2.5-1.5-4.5-3-5.5-6m4 9c-2.5-1.5-5-3.5-6-6m4.5 9c-2.5-1.5-4-3-6-6m4 8c-2-1-4-2.5-5.5-5m4 7.5c-2-.5-4.5-2.5-5.5-5M25 32c-2-1-5-4.5-5.5-6m3.5 8.5c-2.5-1.5-5-5-5.5-6.5m3 8.5c-2-1.5-4.5-4-5.5-7m3.5 9c-2.5-1.5-5-5-5.5-7m.5 10c-1.5-1-3.333-3.699-4-5.5m1.5 7c-1.5-1.5-2.5-2.5-3-4m19.5-9.5c-3-.5-5-3.5-6-5.5" stroke="#FAA21E" stroke-width="2"/><path d="M16 40c-2.5-1.5-4-4-5-6.5m29-29c-1-.297-2-2-2-3m1.195 6.203C37.695 6.703 36 5 35.5 3m3 8c-2.5-1.5-3.82-2.797-5-6m4 9c-3-2-5-4-5.845-6.297M35.5 16.5c-2.5-1.5-4.5-3-5.5-6m4 9c-2.5-1.5-5-3.5-6-6m4.5 9c-2.5-1.5-4-3-6-6m4 8c-2-1-4-2.5-5.5-5m4 7.5c-2-.5-4.5-2.5-5.5-5M25 32c-2-1-5-4.5-5.5-6m3.5 8.5c-2.5-1.5-5-5-5.5-6.5m3 8.5c-2-1.5-4.5-4-5.5-7m3.5 9c-2.5-1.5-5-5-5.5-7m.5 10c-1.5-1-3.333-3.699-4-5.5m1.5 7c-1.5-1.5-2.5-2.5-3-4m19.5-9.5c-3-.5-5-3.5-6-5.5" stroke="#fff" stroke-opacity=".8" stroke-width="2"/><path d="M11.5 43.5c1.334 2.297 3.5 4.5 7 5.5M14 42c2.5 3 5 5 10.5 6.5m-8-8c2.334 2.297 7 5.5 13.5 5.5m-11-7c3.5 3 8.5 4.203 15 4m-13-6c4.5 3 10 4 16.167 3M23.5 35c4.5 2.5 11 3.5 16 2m-14-4.5C30 35 37 35.5 42 34m-14-4c4.5 2 11 2.5 16 1m-14-3.5c5.5 1.5 10.5 2 16-.5m-14.5-2c5 1.5 11 1 16-1.5m-14.5-1c5.5 1 11 0 15.5-2.5m-14 0c5 0 9.5 0 14-3.5m-12 .5c4.5 0 9-1 12-4.5M38 14c3.5 0 6.73-1.24 9.5-4.5M39 11c3.5-.5 4.872-1.766 7.138-4.5M40 7.5c2 0 3.5-1.5 4.73-3.7m-4.23.7c1-.5 1.63-1.312 2.5-3" stroke="#FAA21E" stroke-width="2"/><path d="M11.5 43.5c1.334 2.297 3.5 4.5 7 5.5M14 42c2.5 3 5 5 10.5 6.5m-8-8c2.334 2.297 7 5.5 13.5 5.5m-11-7c3.5 3 8.5 4.203 15 4m-13-6c4.5 3 10 4 16.167 3M23.5 35c4.5 2.5 11 3.5 16 2m-14-4.5C30 35 37 35.5 42 34m-14-4c4.5 2 11 2.5 16 1m-14-3.5c5.5 1.5 10.5 2 16-.5m-14.5-2c5 1.5 11 1 16-1.5m-14.5-1c5.5 1 11 0 15.5-2.5m-14 0c5 0 9.5 0 14-3.5m-12 .5c4.5 0 9-1 12-4.5M38 14c3.5 0 6.73-1.24 9.5-4.5M39 11c3.5-.5 4.872-1.766 7.138-4.5M40 7.5c2 0 3.5-1.5 4.73-3.7m-4.23.7c1-.5 1.63-1.312 2.5-3" stroke="#fff" stroke-opacity=".4" stroke-width="2"/><path d="M1.5 47.5c4.292-1.455 14.04-5.931 20-11.5 6.878-6.425 12-14.5 15.5-21.5 2.5-5 3.449-13.107 3.5-14" stroke="#FAA21E" stroke-width="1.5"/><path d="M1.5 47.5c4.292-1.455 14.04-5.931 20-11.5 6.878-6.425 12-14.5 15.5-21.5 2.5-5 3.449-13.107 3.5-14" stroke="#fff" stroke-opacity=".6" stroke-width="1.5"/></g><defs><clipPath id="aita"><path fill="#fff" transform="matrix(-1 0 0 1 50 0)" d="M0 0h50v50H0z"/></clipPath></defs></svg>