<svg fill="none" viewBox="0 0 50 50" id="dodocamel_gauntlets" xmlns="http://www.w3.org/2000/svg"><g clip-path="url(#aisa)"><path fill-rule="evenodd" clip-rule="evenodd" d="m25.03 13.36-.416.532c-1.439 1.83-3.073 2.024-3.477 1.758-.403-.267 2.756-4.968 4.454-6.584 1.443-1.373.762-4.18-.37-5.275-1.13-1.094-5.63-4.097-10.27-2.235-4.64 1.863-5.894 7.218-7.123 14.166-.983 5.56-1.31 8.825-1.35 9.764 1.446.704 4.398 2.128 6.405 2.665 2.008.538 5.63 1.034 7.283 1.16.356-1.328 1.37-3.46 2.782-4.475.168-.12.345-.254.53-.397-.502-1.364-1.266-4.363-.478-5.939 1-2 2.5-3 4.5-2.5.882.22 1.5 1.008 1.906 1.727.099-.188.197-.384.292-.584A4.355 4.355 0 0 1 29 13.5c.291-1.166.778-1.695 1.15-1.896-.332-.405-.822-.72-1.515-.907-1.367-.223-2.367 1.066-3.606 2.663Z" fill="#FAA21E"/><path fill-rule="evenodd" clip-rule="evenodd" d="m25.03 13.36-.416.532c-1.439 1.83-3.073 2.024-3.477 1.758-.403-.267 2.756-4.968 4.454-6.584 1.443-1.373.762-4.18-.37-5.275-1.13-1.094-5.63-4.097-10.27-2.235-4.64 1.863-5.894 7.218-7.123 14.166-.983 5.56-1.31 8.825-1.35 9.764 1.446.704 4.398 2.128 6.405 2.665 2.008.538 5.63 1.034 7.283 1.16.356-1.328 1.37-3.46 2.782-4.475.168-.12.345-.254.53-.397-.502-1.364-1.266-4.363-.478-5.939 1-2 2.5-3 4.5-2.5.882.22 1.5 1.008 1.906 1.727.099-.188.197-.384.292-.584A4.355 4.355 0 0 1 29 13.5c.291-1.166.778-1.695 1.15-1.896-.332-.405-.822-.72-1.515-.907-1.367-.223-2.367 1.066-3.606 2.663Z" fill="#000" fill-opacity=".1"/><path d="M21.223 29.16c-1.633-.999-2.18-.319-2.764.086.017-1.853-2.494-3.455-4.773-2.106-1.182-2.74-4.369-3.13-5.903-1.02-.257-.817-.99-1.275-2.52-1.237-1.53.039-2.194 1.095-2.334 1.618-.638.016-1.774-.475-2.638.976-.655 1.102.622 2.41 1.213 2.569-.436.444-1.097 1.613-.258 2.735.84 1.123 2.372 1.197 3.104.832-.234.872-.323 2.269.628 2.973.952.703 2.56.498 3.244.308.155.602.82 1.902 2.24 2.283 1.418.38 2.738-.762 3.22-1.38.257.816 1.152 2.44 2.683 2.4 1.53-.038 2.194-1.094 2.334-1.617.692.372 1.855 1.057 2.94-.334.492-.63.402-1.998-.237-2.682.872.457 2.05.014 2.55-.625.723-.928.481-2.174-.186-2.854-.747-.761-1.237-.706-1.634-.999.242-.31-.2-1.493-.909-1.926Z" fill="#FAA21E"/><path d="M21.223 29.16c-1.633-.999-2.18-.319-2.764.086.017-1.853-2.494-3.455-4.773-2.106-1.182-2.74-4.369-3.13-5.903-1.02-.257-.817-.99-1.275-2.52-1.237-1.53.039-2.194 1.095-2.334 1.618-.638.016-1.774-.475-2.638.976-.655 1.102.622 2.41 1.213 2.569-.436.444-1.097 1.613-.258 2.735.84 1.123 2.372 1.197 3.104.832-.234.872-.323 2.269.628 2.973.952.703 2.56.498 3.244.308.155.602.82 1.902 2.24 2.283 1.418.38 2.738-.762 3.22-1.38.257.816 1.152 2.44 2.683 2.4 1.53-.038 2.194-1.094 2.334-1.617.692.372 1.855 1.057 2.94-.334.492-.63.402-1.998-.237-2.682.872.457 2.05.014 2.55-.625.723-.928.481-2.174-.186-2.854-.747-.761-1.237-.706-1.634-.999.242-.31-.2-1.493-.909-1.926Z" fill="#fff" fill-opacity=".4"/><path d="M20.805 30.721c-1.652-.929-2.172-.352-2.737-.016-.045-1.623-2.586-3.11-4.8-2.003-1.263-2.441-4.434-2.888-5.885-1.09-.281-.725-1.022-1.15-2.538-1.167-1.516-.017-2.138.886-2.26 1.34-.632-.007-1.773-.475-2.582.768-.613.943.696 2.132 1.287 2.29-.417.375-1.034 1.377-.164 2.388.869 1.012 2.39 1.127 3.103.832-.203.756-.245 1.977.722 2.626.967.648 2.553.522 3.225.377.174.533.876 1.695 2.295 2.075 1.419.38 2.689-.577 3.146-1.103.282.724 1.223 2.176 2.739 2.193 1.516.017 2.138-.886 2.26-1.34.698.35 1.873.988 2.903-.195.466-.536.332-1.737-.324-2.357.879.429 2.032.08 2.505-.464.687-.789.406-1.888-.278-2.507-.765-.691-1.25-.659-1.652-.929.229-.263-.249-1.315-.965-1.718Z" fill="#FAA21E"/><path d="M20.805 30.721c-1.652-.929-2.172-.352-2.737-.016-.045-1.623-2.586-3.11-4.8-2.003-1.263-2.441-4.434-2.888-5.885-1.09-.281-.725-1.022-1.15-2.538-1.167-1.516-.017-2.138.886-2.26 1.34-.632-.007-1.773-.475-2.582.768-.613.943.696 2.132 1.287 2.29-.417.375-1.034 1.377-.164 2.388.869 1.012 2.39 1.127 3.103.832-.203.756-.245 1.977.722 2.626.967.648 2.553.522 3.225.377.174.533.876 1.695 2.295 2.075 1.419.38 2.689-.577 3.146-1.103.282.724 1.223 2.176 2.739 2.193 1.516.017 2.138-.886 2.26-1.34.698.35 1.873.988 2.903-.195.466-.536.332-1.737-.324-2.357.879.429 2.032.08 2.505-.464.687-.789.406-1.888-.278-2.507-.765-.691-1.25-.659-1.652-.929.229-.263-.249-1.315-.965-1.718Z" fill="#fff" fill-opacity=".8"/><path d="M24.614 13.892c1.44-1.83 2.505-3.443 4.02-3.195.55.148.972.376 1.288.667-.313-.118-.94-.354-1.553 0-1.225.707-2.64 3.951-4.933 4.89-1.019.416-2.191.448-2.299-.604.404.266 2.038.071 3.477-1.758Z" fill="#FAA21E"/><path d="M24.614 13.892c1.44-1.83 2.505-3.443 4.02-3.195.55.148.972.376 1.288.667-.313-.118-.94-.354-1.553 0-1.225.707-2.64 3.951-4.933 4.89-1.019.416-2.191.448-2.299-.604.404.266 2.038.071 3.477-1.758Z" fill="#000" fill-opacity=".4"/><path d="M29.973 21.11c-.917-2.139-1.529-3.973-3.057-4.125-3.82 0-3.056 5.043-2.292 7.64.764 2.598 2.75 5.808 4.126 7.489 1.1 1.344 1.528 3.667 1.528 5.043 1.63.305 5.257.764 7.336.764 2.078 0 5.297-.612 6.876-.917.204-.917.734-4.157 1.223-9.78.611-7.03.787-12.527-3.213-15.527s-9.125-1.264-10.5-.5-2.76 3.3-1.722 5c1.222 2 3.056 7.359 2.598 7.512-.458.152-1.987-.459-2.903-2.598Z" fill="#FAA21E"/><path d="M29.296 36.736c1.836-.542 2.19.257 2.648.799.463-1.795 3.303-2.692 5.155-.799 1.852-2.341 5.03-1.893 5.967.542.459-.722 1.285-.975 2.753-.542 1.47.434 1.836 1.626 1.836 2.167.612.18 1.836 0 2.295 1.626.348 1.233-1.224 2.167-1.836 2.167.306.541.643 1.842-.459 2.709-1.101.866-2.6.541-3.212 0 0 .902-.276 2.275-1.377 2.708-1.102.434-2.601-.18-3.213-.541-.306.541-1.285 1.625-2.754 1.625s-2.448-1.445-2.754-2.167c-.459.722-1.744 2.059-3.213 1.625-1.468-.433-1.836-1.625-1.836-2.167-.765.18-2.065.542-2.753-1.084-.312-.736.129-2.033.923-2.528-.96.215-1.984-.517-2.3-1.264-.46-1.084.096-2.224.918-2.709.917-.541 1.377-.36 1.835-.541-.152-.362.58-1.39 1.377-1.626Z" fill="#FAA21E"/><path d="M29.296 36.736c1.836-.542 2.19.257 2.648.799.463-1.795 3.303-2.692 5.155-.799 1.852-2.341 5.03-1.893 5.967.542.459-.722 1.285-.975 2.753-.542 1.47.434 1.836 1.626 1.836 2.167.612.18 1.836 0 2.295 1.626.348 1.233-1.224 2.167-1.836 2.167.306.541.643 1.842-.459 2.709-1.101.866-2.6.541-3.212 0 0 .902-.276 2.275-1.377 2.708-1.102.434-2.601-.18-3.213-.541-.306.541-1.285 1.625-2.754 1.625s-2.448-1.445-2.754-2.167c-.459.722-1.744 2.059-3.213 1.625-1.468-.433-1.836-1.625-1.836-2.167-.765.18-2.065.542-2.753-1.084-.312-.736.129-2.033.923-2.528-.96.215-1.984-.517-2.3-1.264-.46-1.084.096-2.224.918-2.709.917-.541 1.377-.36 1.835-.541-.152-.362.58-1.39 1.377-1.626Z" fill="#fff" fill-opacity=".6"/><path d="M29.296 38.32c1.836-.465 2.19.22 2.648.684.463-1.538 3.303-2.307 5.155-.685 1.852-2.007 5.03-1.622 5.967.465.459-.62 1.285-.836 2.753-.465 1.47.372 1.836 1.393 1.836 1.858.612.155 1.836 0 2.295 1.393.348 1.057-1.224 1.858-1.836 1.858.306.464.643 1.578-.459 2.321-1.101.743-2.6.465-3.212 0 0 .774-.276 1.95-1.377 2.322-1.102.372-2.601-.154-3.213-.464-.306.464-1.285 1.393-2.754 1.393s-2.448-1.238-2.754-1.858c-.459.62-1.744 1.765-3.213 1.394-1.468-.372-1.836-1.394-1.836-1.858-.765.155-2.065.465-2.753-.929-.312-.63.129-1.742.923-2.167-.96.185-1.984-.443-2.3-1.083-.46-.929.096-1.907.918-2.322.917-.465 1.377-.31 1.835-.465-.152-.31.58-1.191 1.377-1.393Z" fill="#FAA21E"/><path d="M29.296 38.32c1.836-.465 2.19.22 2.648.684.463-1.538 3.303-2.307 5.155-.685 1.852-2.007 5.03-1.622 5.967.465.459-.62 1.285-.836 2.753-.465 1.47.372 1.836 1.393 1.836 1.858.612.155 1.836 0 2.295 1.393.348 1.057-1.224 1.858-1.836 1.858.306.464.643 1.578-.459 2.321-1.101.743-2.6.465-3.212 0 0 .774-.276 1.95-1.377 2.322-1.102.372-2.601-.154-3.213-.464-.306.464-1.285 1.393-2.754 1.393s-2.448-1.238-2.754-1.858c-.459.62-1.744 1.765-3.213 1.394-1.468-.372-1.836-1.394-1.836-1.858-.765.155-2.065.465-2.753-.929-.312-.63.129-1.742.923-2.167-.96.185-1.984-.443-2.3-1.083-.46-.929.096-1.907.918-2.322.917-.465 1.377-.31 1.835-.465-.152-.31.58-1.191 1.377-1.393Z" fill="#fff" fill-opacity=".95"/><path d="M29.973 21.11c-.917-2.139-1.529-3.973-3.057-4.125-.568 0-1.035.111-1.416.31.333-.033 1-.098 1.5.402 1 1 1.527 4.5 3.5 6 .876.666 2 1 2.376.012-.458.152-1.987-.459-2.903-2.598Z" fill="#C57A09"/></g><defs><clipPath id="aisa"><path fill="#fff" transform="matrix(-1 0 0 1 50 0)" d="M0 0h50v50H0z"/></clipPath></defs></svg>