<svg fill="none" viewBox="0 0 50 50" id="griffin_talon" xmlns="http://www.w3.org/2000/svg"><g clip-path="url(#amea)"><path d="M13.205 19.338C2.939 31.159 3.74 44.201 5.425 49.245c-1.174-14.792 9.67-23.189 19.3-28.454 9.63-5.266 16.636-4.572 18.935-3.566.952-4.666 2.474-6.972 6.34-10.725-8.335.024-26.53 1.018-36.795 12.838Z" fill="#FAA21E"/><path d="M13.205 19.338C2.939 31.159 3.74 44.201 5.425 49.245c-1.174-14.792 9.67-23.189 19.3-28.454 9.63-5.266 16.636-4.572 18.935-3.566.952-4.666 2.474-6.972 6.34-10.725-8.335.024-26.53 1.018-36.795 12.838Z" fill="#fff" fill-opacity=".2"/><path d="M1.89 28.45c-3.754 9.828 1.005 18.326 3.854 21.347-2.182-10.158.299-16.452 2.873-21.18 3.218-5.91 11.408-14.69 22.15-19.05C39.363 6.078 46.533 6.66 50 6.5L44.059.052c-3.376.107-12.125 1.327-20.115 5.351-9.988 5.03-17.36 10.76-22.054 23.046Z" fill="#C57A09"/><path d="M23.944 5.403c-9.988 5.03-17.36 10.76-22.054 23.046C.285 32.65.236 36.61.928 40 0 30.5 5.324 23.595 9 19c4-5 11.715-11.064 14.944-13.597Z" fill="#FAA21E"/><path d="M23.944 5.403c-9.988 5.03-17.36 10.76-22.054 23.046C.285 32.65.236 36.61.928 40 0 30.5 5.324 23.595 9 19c4-5 11.715-11.064 14.944-13.597Z" fill="#fff" fill-opacity=".6"/></g><defs><clipPath id="amea"><path fill="#fff" transform="matrix(-1 0 0 1 50 0)" d="M0 0h50v50H0z"/></clipPath></defs></svg>