<svg fill="none" viewBox="0 0 50 50" id="griffin_chaps" xmlns="http://www.w3.org/2000/svg"><path d="M25.5 2C21.5 2 16.167.833 13 .5c-.5 2.5-2.8 9.6-4 16-1.2 6.4-2.167 24-2.5 32L24 50l3.5-30L29 50l14-1.5c-.333-9-1.1-27.7-1.5-30.5-.4-2.8-2.833-12.833-4-17.5-1.667.333-8 1.5-12 1.5Z" fill="#7445B8"/><path d="M25.5 2C21.5 2 16.167.833 13 .5c-.5 2.5-2.8 9.6-4 16-1.2 6.4-2.167 24-2.5 32L24 50l3.5-30L29 50l14-1.5c-.333-9-1.1-27.7-1.5-30.5-.4-2.8-2.833-12.833-4-17.5-1.667.333-8 1.5-12 1.5Z" fill="#fff" fill-opacity=".2"/><path d="M13.5 7 12 5c-2 4.5-3.6 14.2-4 19-.4 4.8-1.167 18.333-1.5 24.5l2.5.2c.167-5.167.7-17.5 1.5-24.7.8-7.2 2.333-14.333 3-17Z" fill="#7445B8"/><path d="M24.935 6.962c-2.602 0-6.764-.48-12.487-.962 0 .481-.651 1.925-1.041 3.368-.39 1.443-3.383 4.49-2.081 5.292 1.56.963 4.162-1.924 5.203-3.367-.52 1.443-2.082 4.81-.52 5.292 2.02.623 3.383-2.67 4.162-4.33-.52 1.924-.52 4.931 1.04 5.292 1.561.361 2.602-2.887 3.122-5.024.52 2.137.52 5.505 2.602 5.477 1.918-.026 2.08-3.34 2.08-5.477.521 2.137 2.24 5.422 3.643 5.024 1.402-.398 1.104-4.446.52-5.773.95 2.157 2.602 5.292 4.683 4.81 1.694-.39-.52-5.291-.52-5.291s3.121 4.81 5.203 3.849c1.471-.681-1.041-4.812-1.561-6.255L37.943 6c-1.754.332-10.671.962-13.008.962Z" fill="#7445B8"/><path d="M24.935 6.962c-2.602 0-6.764-.48-12.487-.962 0 .481-.651 1.925-1.041 3.368-.39 1.443-3.383 4.49-2.081 5.292 1.56.963 4.162-1.924 5.203-3.367-.52 1.443-2.082 4.81-.52 5.292 2.02.623 3.383-2.67 4.162-4.33-.52 1.924-.52 4.931 1.04 5.292 1.561.361 2.602-2.887 3.122-5.024.52 2.137.52 5.505 2.602 5.477 1.918-.026 2.08-3.34 2.08-5.477.521 2.137 2.24 5.422 3.643 5.024 1.402-.398 1.104-4.446.52-5.773.95 2.157 2.602 5.292 4.683 4.81 1.694-.39-.52-5.291-.52-5.291s3.121 4.81 5.203 3.849c1.471-.681-1.041-4.812-1.561-6.255L37.943 6c-1.754.332-10.671.962-13.008.962Z" fill="#fff" fill-opacity=".6"/><path d="M25 1.5c-2.5 0-6.5-.5-12-1 0 .5-.625 2-1 3.5s-3.25 4.666-2 5.5c1.5 1 4-2 5-3.5-.5 1.5-2 5-.5 5.5 1.943.648 3.251-2.775 4-4.5-.5 2-.5 5.125 1 5.5s2.5-3 3-5.221C23 9.5 23 13 25 12.97c1.844-.027 2-3.47 2-5.691.5 2.221 2.152 5.635 3.5 5.221 1.348-.414 1.061-4.62.5-6 .912 2.242 2.5 5.5 4.5 5C37.128 11.093 35 6 35 6s3 5 5 4c1.414-.707-1-4-1.5-5.5-.806-2.419-.5-2.5-1-4-1.685.345-10.254 1-12.5 1Z" fill="#FEFEFE"/></svg>