<svg fill="none" viewBox="0 0 50 50" id="griffin_bulwark" xmlns="http://www.w3.org/2000/svg"><path d="m39.002 24.943-.004.057.004.057.96 16.79-13.66 5.653h-2.603L10.05 41.853C10.405 37 11 27.323 11 25c0-2.324-.596-11.901-.95-16.84L23.127 3h3.748L39.96 8.165l-.958 16.778Z" fill="#7445B8"/><path d="m39.002 24.943-.004.057.004.057.96 16.79-13.66 5.653h-2.603L10.05 41.853C10.405 37 11 27.323 11 25c0-2.324-.596-11.901-.95-16.84L23.127 3h3.748L39.96 8.165l-.958 16.778Z" fill="#000" fill-opacity=".4"/><path d="m39.002 24.943-.004.057.004.057.96 16.79-13.66 5.653h-2.603L10.05 41.853C10.405 37 11 27.323 11 25c0-2.324-.596-11.901-.95-16.84L23.127 3h3.748L39.96 8.165l-.958 16.778Z" stroke="#898989" stroke-width="2"/><path d="m39.002 24.943-.004.057.004.057.96 16.79-13.66 5.653h-2.603L10.05 41.853C10.405 37 11 27.323 11 25c0-2.324-.596-11.901-.95-16.84L23.127 3h3.748L39.96 8.165l-.958 16.778Z" stroke="#fff" stroke-opacity=".8" stroke-width="2"/><path d="M13 10.5 24.5 6h1L37 10.5 36 25l1 14.5L25.5 44h-1L13 39.5c.255-3.485 1-12.662 1-14.5 0-1.838-.5-11-1-14.5Z" fill="#7445B8"/><path d="m11.5 10 27 30m-27-15H40M11.5 40l27-30M25 3v43.5" stroke="#898989" stroke-width="2"/><path d="m11.5 10 27 30m-27-15H40M11.5 40l27-30M25 3v43.5" stroke="#fff" stroke-opacity=".8" stroke-width="2"/><path d="M23 1.333C24.079.895 24.517.616 25 0v8c-1.028-2.044-1.47-2.924-2-6.667Z" fill="#FAA21E"/><path d="M27 1.333C25.921.895 25.483.616 25 0v8c1.028-2.044 1.47-2.924 2-6.667Z" fill="#C57A09"/><path d="M15.117 4.9c.792-.853 1.07-1.29 1.249-2.053l3.38 7.25C17.952 8.68 17.18 8.068 15.117 4.9Z" fill="#FAA21E"/><path d="M18.742 3.21c-1.163.058-1.678-.01-2.376-.363l3.38 7.25c.069-2.287.096-3.27-1.004-6.887Z" fill="#C57A09"/><path d="M18.742 46.734c-1.163-.058-1.678.01-2.376.363l3.38-7.25c.069 2.286.096 3.27-1.004 6.887Z" fill="#FAA21E"/><path d="M15.117 45.044c.792.853 1.07 1.29 1.249 2.053l3.38-7.25c-1.795 1.417-2.567 2.029-4.63 5.197Z" fill="#C57A09"/><path d="M31.26 3.156c1.163.059 1.678-.01 2.376-.363l-3.38 7.25c-.069-2.286-.096-3.27 1.004-6.887Z" fill="#FAA21E"/><path d="M34.886 4.847c-.793-.854-1.072-1.291-1.25-2.054l-3.38 7.25c1.795-1.417 2.566-2.028 4.63-5.196Z" fill="#C57A09"/><path d="M34.886 45.101c-.793.854-1.072 1.291-1.25 2.054l-3.38-7.25c1.795 1.417 2.566 2.028 4.63 5.196Z" fill="#FAA21E"/><path d="M31.26 46.792c1.163-.059 1.678.01 2.376.363l-3.38-7.25c-.069 2.286-.096 3.27 1.004 6.887Z" fill="#C57A09"/><path d="M9.333 27c-.438-1.079-.717-1.517-1.333-2h8c-2.044 1.028-2.924 1.47-6.667 2Z" fill="#FAA21E"/><path d="M9.333 23c-.438 1.079-.717 1.517-1.333 2h8c-2.044-1.028-2.924-1.47-6.667-2Z" fill="#C57A09"/><path d="M8.833 35c-.438-1.079-.717-1.517-1.333-2h8c-2.044 1.028-2.924 1.47-6.667 2Z" fill="#FAA21E"/><path d="M8.833 31c-.438 1.079-.717 1.517-1.333 2h8c-2.044-1.028-2.924-1.47-6.667-2Z" fill="#C57A09"/><path d="M8.833 19c-.438-1.079-.717-1.517-1.333-2h8c-2.044 1.028-2.924 1.47-6.667 2Z" fill="#FAA21E"/><path d="M8.833 15c-.438 1.079-.717 1.517-1.333 2h8c-2.044-1.028-2.924-1.47-6.667-2Z" fill="#C57A09"/><path d="M40.667 23c.438 1.079.717 1.517 1.333 2h-8c2.044-1.028 2.924-1.47 6.667-2Z" fill="#FAA21E"/><path d="M40.667 27c.438-1.079.717-1.517 1.333-2h-8c2.044 1.028 2.924 1.47 6.667 2Z" fill="#C57A09"/><path d="M41.167 31c.438 1.079.717 1.517 1.333 2h-8c2.044-1.028 2.924-1.47 6.667-2Z" fill="#FAA21E"/><path d="M41.167 35c.438-1.079.717-1.517 1.333-2h-8c2.044 1.028 2.924 1.47 6.667 2Z" fill="#C57A09"/><path d="M41.167 15c.438 1.079.717 1.517 1.333 2h-8c2.044-1.028 2.924-1.47 6.667-2Z" fill="#FAA21E"/><path d="M41.167 19c.438-1.079.717-1.517 1.333-2h-8c2.044 1.028 2.924 1.47 6.667 2Z" fill="#C57A09"/><path d="M7.943 9.271c.452-1.073.565-1.58.471-2.357l5.657 5.657c-2.172-.718-3.106-1.029-6.128-3.3Z" fill="#FAA21E"/><path d="M10.771 6.443c-1.073.452-1.58.565-2.357.471l5.657 5.657c-.718-2.172-1.029-3.106-3.3-6.128Z" fill="#C57A09"/><path d="M10.771 43.542c-1.073-.452-1.58-.564-2.357-.47l5.657-5.658c-.718 2.172-1.029 3.106-3.3 6.128Z" fill="#FAA21E"/><path d="M7.943 40.714c.452 1.073.565 1.58.471 2.357l5.657-5.657c-2.172.718-3.106 1.029-6.128 3.3Z" fill="#C57A09"/><path d="M42.085 40.74c-.453 1.073-.565 1.58-.472 2.357l-5.657-5.656c2.173.718 3.107 1.028 6.129 3.3Z" fill="#FAA21E"/><path d="M39.256 43.569c1.074-.453 1.58-.565 2.357-.472l-5.656-5.656c.718 2.172 1.028 3.106 3.3 6.128Z" fill="#C57A09"/><path d="M39.138 6.407c1.073.452 1.58.565 2.357.471l-5.657 5.657c.718-2.172 1.029-3.106 3.3-6.128Z" fill="#FAA21E"/><path d="M41.966 9.235c-.452-1.073-.565-1.58-.471-2.357l-5.657 5.657c2.172-.718 3.106-1.029 6.128-3.3Z" fill="#C57A09"/><path d="M27 48.667c-1.079.438-1.517.717-2 1.333v-8c1.028 2.044 1.47 2.924 2 6.667Z" fill="#FAA21E"/><path d="M23 48.667c1.079.438 1.517.717 2 1.333v-8c-1.028 2.044-1.47 2.924-2 6.667Z" fill="#C57A09"/></svg>