<svg fill="none" viewBox="0 0 50 50" id="jade" xmlns="http://www.w3.org/2000/svg"><ellipse cx="25" cy="25" rx="14" ry="18" fill="#2FC4A7"/><ellipse cx="25" cy="25" rx="14" ry="18" fill="#000" fill-opacity=".2"/><path d="M25 7c-7.732 0-14 8.059-14 18 0 1.554.153 3.062.441 4.5C13 34 18.1 38 22.5 38c7 0 12-6.5 12-15.5 0-7.2-2-11.5-7-15.214A11.053 11.053 0 0 0 25 7Z" fill="#2FC4A7"/><path d="M21 32c-5.5 0-9.559-4-9.559-11.5C12.791 13.752 17.11 8.535 22.5 7.286 29 7.286 30 15.4 30 19c0 4.5-1.483 13-9 13Z" fill="#2FC4A7"/><path d="M21 32c-5.5 0-9.559-4-9.559-11.5C12.791 13.752 17.11 8.535 22.5 7.286 29 7.286 30 15.4 30 19c0 4.5-1.483 13-9 13Z" fill="#fff" fill-opacity=".2"/><path d="M21 32c-5.5 0-9.559-4-9.559-11.5C12.791 13.752 17.11 8.535 22.5 7.286 29 7.286 30 15.4 30 19c0 4.5-1.483 13-9 13Z" fill="#2FC4A7"/><path d="M21 32c-5.5 0-9.559-4-9.559-11.5C12.791 13.752 17.11 8.535 22.5 7.286 29 7.286 30 15.4 30 19c0 4.5-1.483 13-9 13Z" fill="#fff" fill-opacity=".4"/><ellipse cx="21.244" cy="13.241" rx="3.5" ry="2.5" transform="rotate(-44.893 21.244 13.241)" fill="#FEFEFE"/><circle cx="16.949" cy="18.949" r="1.5" transform="rotate(-21.757 16.95 18.95)" fill="#FEFEFE"/></svg>