<svg fill="none" viewBox="0 0 50 50" id="manticore_sting" xmlns="http://www.w3.org/2000/svg"><g clip-path="url(#aoza)"><ellipse cx="3.862" cy="4.034" rx="3.862" ry="4.034" transform="matrix(-.26813 -.96338 .96123 -.27573 15.319 9.612)" fill="#D0333D"/><ellipse cx="3.862" cy="4.034" rx="3.862" ry="4.034" transform="matrix(-.26813 -.96338 .96123 -.27573 15.319 9.612)" fill="#000" fill-opacity=".4"/><path d="M14.587 6.603a2.8 2.8 0 0 0 .896.85c.563-.362 1.59-1.359 1.198-2.444-.392-1.084-1.603-1.514-2.159-1.594-.554 1.017-.571 2.236.065 3.188Z" fill="#D0333D"/><path d="M14.587 6.603a2.8 2.8 0 0 0 .896.85c.563-.362 1.59-1.359 1.198-2.444-.392-1.084-1.603-1.514-2.159-1.594-.554 1.017-.571 2.236.065 3.188Z" fill="#000" fill-opacity=".6"/><ellipse cx="4.219" cy="4.407" rx="4.219" ry="4.407" transform="matrix(-.26813 -.96338 .96123 -.27573 8.112 11.367)" fill="#D0333D"/><ellipse cx="4.219" cy="4.407" rx="4.219" ry="4.407" transform="matrix(-.26813 -.96338 .96123 -.27573 8.112 11.367)" fill="#000" fill-opacity=".4"/><path d="M10.282 7.253c-1.077-.916-2.745-.43-3.301.05.52 1.867 2.27 3.064 4.19 3.027.231-.963.417-1.966-.89-3.077Z" fill="#D0333D"/><path d="M10.282 7.253c-1.077-.916-2.745-.43-3.301.05.52 1.867 2.27 3.064 4.19 3.027.231-.963.417-1.966-.89-3.077Z" fill="#000" fill-opacity=".6"/><ellipse cx="4.763" cy="4.976" rx="4.763" ry="4.976" transform="matrix(-.26813 -.96338 .96123 -.27573 2.797 17.909)" fill="#D0333D"/><ellipse cx="4.763" cy="4.976" rx="4.763" ry="4.976" transform="matrix(-.26813 -.96338 .96123 -.27573 2.797 17.909)" fill="#000" fill-opacity=".4"/><path d="M3.4 15.91c1.164.78 2.683 1.056 4.18.627a5.176 5.176 0 0 0 1.704-.851c-.42-.744-1.577-2.27-2.842-2.418-1.266-.149-2.555 1.7-3.042 2.641Z" fill="#D0333D"/><path d="M3.4 15.91c1.164.78 2.683 1.056 4.18.627a5.176 5.176 0 0 0 1.704-.851c-.42-.744-1.577-2.27-2.842-2.418-1.266-.149-2.555 1.7-3.042 2.641Z" fill="#000" fill-opacity=".6"/><ellipse cx="5.878" cy="6.14" rx="5.878" ry="6.14" transform="matrix(-.26813 -.96338 .96123 -.27573 2.093 28.13)" fill="#D0333D"/><ellipse cx="5.878" cy="6.14" rx="5.878" ry="6.14" transform="matrix(-.26813 -.96338 .96123 -.27573 2.093 28.13)" fill="#000" fill-opacity=".4"/><path d="M3.993 26.266a6.244 6.244 0 0 0 4.002.172 6.323 6.323 0 0 0 3.487-2.502c-.725-.81-2.175-2.43-4.36-1.968-2.184.462-2.814 3.02-3.129 4.298Z" fill="#D0333D"/><path d="M3.993 26.266a6.244 6.244 0 0 0 4.002.172 6.323 6.323 0 0 0 3.487-2.502c-.725-.81-2.175-2.43-4.36-1.968-2.184.462-2.814 3.02-3.129 4.298Z" fill="#000" fill-opacity=".6"/><ellipse cx="6.518" cy="6.808" rx="6.518" ry="6.808" transform="matrix(-.26813 -.96338 .96123 -.27573 4.533 38.328)" fill="#D0333D"/><ellipse cx="6.518" cy="6.808" rx="6.518" ry="6.808" transform="matrix(-.26813 -.96338 .96123 -.27573 4.533 38.328)" fill="#000" fill-opacity=".4"/><path d="M9.8 36.694a7.116 7.116 0 0 0 1.277-.244c2.821-.809 4.749-3.21 5-5.875-1.58-.8-4.533-.785-6.04.834-1.505 1.62-1.207 4.459-.236 5.285Z" fill="#D0333D"/><path d="M9.8 36.694a7.116 7.116 0 0 0 1.277-.244c2.821-.809 4.749-3.21 5-5.875-1.58-.8-4.533-.785-6.04.834-1.505 1.62-1.207 4.459-.236 5.285Z" fill="#000" fill-opacity=".6"/><ellipse cx="7.315" cy="7.641" rx="7.315" ry="7.641" transform="matrix(-.26813 -.96338 .96123 -.27573 11.815 46.843)" fill="#D0333D"/><ellipse cx="7.315" cy="7.641" rx="7.315" ry="7.641" transform="matrix(-.26813 -.96338 .96123 -.27573 11.815 46.843)" fill="#000" fill-opacity=".4"/><path d="M21.319 44.233c2.838-2.04 4.234-6.258 2.804-9.446-2.395.57-4.727 2.102-5.22 3.956-.618 2.317.618 4.53 2.416 5.49Z" fill="#D0333D"/><path d="M21.319 44.233c2.838-2.04 4.234-6.258 2.804-9.446-2.395.57-4.727 2.102-5.22 3.956-.618 2.317.618 4.53 2.416 5.49Z" fill="#000" fill-opacity=".6"/><path d="M27.702 49.517c8.436 1.094 9.127-9.636 19.762-7.054-8.377-8.3-12.154-8.79-16.813-9.395-4.658-.604-9.095 2.588-9.91 7.13-.814 4.542 2.303 8.714 6.961 9.319Z" fill="#D0333D"/><path d="M27.702 49.517c8.436 1.094 9.127-9.636 19.762-7.054-8.377-8.3-12.154-8.79-16.813-9.395-4.658-.604-9.095 2.588-9.91 7.13-.814 4.542 2.303 8.714 6.961 9.319Z" fill="#000" fill-opacity=".2"/><path d="M27.634 49.576c8.458 1.312 14.266-10.837 22.613-3.582-7.165-9.345-14.546-12.773-19.601-12.799 5.584 2.2 6.463 3.29 9.49 6.012-6.304 1.652-5.482 6.772-12.502 10.369Z" fill="#FAA21E"/></g><defs><clipPath id="aoza"><path fill="#fff" transform="matrix(-1 0 0 1 50 0)" d="M0 0h50v50H0z"/></clipPath></defs></svg>