<svg fill="none" viewBox="0 0 50 50" id="penetrating_shot" xmlns="http://www.w3.org/2000/svg"><path d="M9.737 2.014H40v3l1 2h4v41H11.316c-.527 0-3.158 0-4.737-1.568C5 44.877 5 43.309 5 42.786V6.718c0-1.045.737-2.3 1.579-3.136.842-.836 2.105-1.568 3.158-1.568Z" fill="#2FC4A7"/><path d="M9.737 2.014H40v3l1 2h4v41H11.316c-.527 0-3.158 0-4.737-1.568C5 44.877 5 43.309 5 42.786V6.718c0-1.045.737-2.3 1.579-3.136.842-.836 2.105-1.568 3.158-1.568Z" fill="#000" fill-opacity=".4"/><path d="m43 9-3-4v35.031h-2L43 46V9Z" fill="#898989"/><path d="m43 9-3-4v35.031h-2L43 46V9Z" fill="#fff" fill-opacity=".2"/><path d="M10.093 40H38l5 6H10.093c-.504 0-3.119-.918-3.119-3.16C6.974 40.6 9.59 40 10.093 40Z" fill="#898989"/><path d="M10.093 40H38l5 6H10.093c-.504 0-3.119-.918-3.119-3.16C6.974 40.6 9.59 40 10.093 40Z" fill="#fff" fill-opacity=".6"/><g clip-path="url(#aqia)"><ellipse cx="18.788" cy="25.188" rx="3.239" ry="7.774" transform="rotate(-45 18.788 25.188)" stroke="#2FC4A7" stroke-width="1.8"/><ellipse cx="18.788" cy="25.188" rx="3.239" ry="7.774" transform="rotate(-45 18.788 25.188)" stroke="#fff" stroke-opacity=".2" stroke-width="1.8"/><ellipse cx="24.788" cy="19.188" rx="2.74" ry="6.576" transform="rotate(-45 24.788 19.188)" stroke="#2FC4A7" stroke-width="1.8"/><ellipse cx="24.788" cy="19.188" rx="2.74" ry="6.576" transform="rotate(-45 24.788 19.188)" stroke="#fff" stroke-opacity=".4" stroke-width="1.8"/><ellipse cx="30.188" cy="13.787" rx="2.241" ry="5.378" transform="rotate(-45 30.188 13.787)" stroke="#2FC4A7" stroke-width="1.8"/><ellipse cx="30.188" cy="13.787" rx="2.241" ry="5.378" transform="rotate(-45 30.188 13.787)" stroke="#fff" stroke-opacity=".6" stroke-width="1.8"/><path d="M36.2 11.4 38 6l-5.4 1.8 2.1.6-19.8 19.8h-2.4L8 32.4l3.3.3.3 3.3 4.2-4.5v-2.4L35.6 9.3l.6 2.1Z" fill="#2FC4A7"/><path d="M36.2 11.4 38 6l-5.4 1.8 2.1.6-19.8 19.8h-2.4L8 32.4l3.3.3.3 3.3 4.2-4.5v-2.4L35.6 9.3l.6 2.1Z" fill="#fff" fill-opacity=".95"/><path d="M24.285 30.685c-1.265 1.265-4.752-.171-7.788-3.207-3.036-3.036-4.472-6.523-3.207-7.788" stroke="#2FC4A7" stroke-width="1.8"/><path d="M24.285 30.685c-1.265 1.265-4.752-.171-7.788-3.207-3.036-3.036-4.472-6.523-3.207-7.788" stroke="#fff" stroke-opacity=".2" stroke-width="1.8"/><path d="M29.438 23.837c-1.07 1.07-4.02-.144-6.588-2.712-2.568-2.568-3.783-5.518-2.713-6.588" stroke="#2FC4A7" stroke-width="1.8"/><path d="M29.438 23.837c-1.07 1.07-4.02-.144-6.588-2.712-2.568-2.568-3.783-5.518-2.713-6.588" stroke="#fff" stroke-opacity=".4" stroke-width="1.8"/><path d="M33.99 17.59c-.875.876-3.287-.118-5.387-2.218-2.1-2.1-3.094-4.512-2.218-5.387" stroke="#2FC4A7" stroke-width="1.8"/><path d="M33.99 17.59c-.875.876-3.287-.118-5.387-2.218-2.1-2.1-3.094-4.512-2.218-5.387" stroke="#fff" stroke-opacity=".6" stroke-width="1.8"/></g><defs><clipPath id="aqia"><path fill="#fff" transform="matrix(-1 0 0 1 38 6)" d="M0 0h30v30H0z"/></clipPath></defs></svg>