<svg fill="none" viewBox="0 0 50 50" id="penetrating_strike" xmlns="http://www.w3.org/2000/svg"><path d="M9.737 2.014H40v3l1 2h4v41H11.316c-.527 0-3.158 0-4.737-1.568C5 44.877 5 43.309 5 42.786V6.718c0-1.045.737-2.3 1.579-3.136.842-.836 2.105-1.568 3.158-1.568Z" fill="#D0333D"/><path d="M9.737 2.014H40v3l1 2h4v41H11.316c-.527 0-3.158 0-4.737-1.568C5 44.877 5 43.309 5 42.786V6.718c0-1.045.737-2.3 1.579-3.136.842-.836 2.105-1.568 3.158-1.568Z" fill="#000" fill-opacity=".2"/><path d="m43 9-3-4v35.031h-2L43 46V9Z" fill="#898989"/><path d="m43 9-3-4v35.031h-2L43 46V9Z" fill="#fff" fill-opacity=".2"/><path d="M10.093 40H38l5 6H10.093c-.504 0-3.119-.918-3.119-3.16C6.974 40.6 9.59 40 10.093 40Z" fill="#898989"/><path d="M10.093 40H38l5 6H10.093c-.504 0-3.119-.918-3.119-3.16C6.974 40.6 9.59 40 10.093 40Z" fill="#fff" fill-opacity=".6"/><g clip-path="url(#aqja)"><ellipse cx="16.988" cy="26.988" rx="3.239" ry="7.774" transform="rotate(-45 16.988 26.988)" stroke="#D0333D" stroke-width="1.8"/><ellipse cx="16.988" cy="26.988" rx="3.239" ry="7.774" transform="rotate(-45 16.988 26.988)" stroke="#fff" stroke-opacity=".4" stroke-width="1.8"/><ellipse cx="22.988" cy="20.988" rx="2.74" ry="6.576" transform="rotate(-45 22.988 20.988)" stroke="#D0333D" stroke-width="1.8"/><ellipse cx="22.988" cy="20.988" rx="2.74" ry="6.576" transform="rotate(-45 22.988 20.988)" stroke="#fff" stroke-opacity=".6" stroke-width="1.8"/><ellipse cx="28.387" cy="15.588" rx="2.241" ry="5.378" transform="rotate(-45 28.387 15.588)" stroke="#D0333D" stroke-width="1.8"/><ellipse cx="28.387" cy="15.588" rx="2.241" ry="5.378" transform="rotate(-45 28.387 15.588)" stroke="#fff" stroke-opacity=".8" stroke-width="1.8"/><path d="m29.3 16.2-3.419 3.09L9.612 36.16l-1.143-.057-.6-.6-.057-1.143L24.681 18.09l3.048-3.468L29.3 16.2Z" fill="#898989"/><path d="m29.3 16.2-3.419 3.09L9.612 36.16l-1.143-.057-.6-.6-.057-1.143L24.681 18.09l3.048-3.468L29.3 16.2Z" fill="#fff" fill-opacity=".95"/><path fill-rule="evenodd" clip-rule="evenodd" d="m37.865 6.159-5.018 9.572-1.766.058c-.588.02-1.773.383-1.773.383l-.395-.396 4.089-4.753-4.88 3.963-.395-.395s.489-1.06.508-1.648l.059-1.765 9.571-5.019Z" fill="#898989"/><path fill-rule="evenodd" clip-rule="evenodd" d="m37.865 6.159-5.018 9.572-1.766.058c-.588.02-1.773.383-1.773.383l-.395-.396 4.089-4.753-4.88 3.963-.395-.395s.489-1.06.508-1.648l.059-1.765 9.571-5.019Z" fill="#fff" fill-opacity=".95"/><path d="M22.485 32.485c-1.265 1.265-4.752-.171-7.788-3.207-3.036-3.036-4.472-6.523-3.207-7.788" stroke="#D0333D" stroke-width="1.8"/><path d="M22.485 32.485c-1.265 1.265-4.752-.171-7.788-3.207-3.036-3.036-4.472-6.523-3.207-7.788" stroke="#fff" stroke-opacity=".4" stroke-width="1.8"/><path d="M27.638 25.638c-1.07 1.07-4.02-.145-6.588-2.713-2.568-2.568-3.783-5.517-2.713-6.588" stroke="#D0333D" stroke-width="1.8"/><path d="M27.638 25.638c-1.07 1.07-4.02-.145-6.588-2.713-2.568-2.568-3.783-5.517-2.713-6.588" stroke="#fff" stroke-opacity=".6" stroke-width="1.8"/><path d="M32.19 19.39c-.875.876-3.287-.118-5.387-2.218-2.1-2.1-3.094-4.512-2.218-5.387" stroke="#D0333D" stroke-width="1.8"/><path d="M32.19 19.39c-.875.876-3.287-.118-5.387-2.218-2.1-2.1-3.094-4.512-2.218-5.387" stroke="#fff" stroke-opacity=".8" stroke-width="1.8"/></g><defs><clipPath id="aqja"><path fill="#fff" transform="matrix(-1 0 0 1 38 6)" d="M0 0h30v30H0z"/></clipPath></defs></svg>