<svg fill="none" viewBox="0 0 50 50" id="regal_sword" xmlns="http://www.w3.org/2000/svg"><g clip-path="url(#atia)"><path d="M12.245 37.755c1.525 1.526 4.818 2.89 6.27 3.253C18.787 41.1 28 45 28 45s-9.757-1.54-10.03-1.54l-5.215-2.134L6.49 46.73 2.5 50 0 47.5l3.267-4.04 5.174-6.266-1.634-5.177C6.717 31.654 4.5 21.5 4.5 21.5s4.395 9.609 4.485 9.972c.454 1.544 1.735 4.757 3.26 6.283Z" fill="#FAA21E"/><path d="M41 5c-1.2 1.2-19.333 19.167-30 29l5 5C26.333 28.167 44.367 9.632 45 9c1-1 4.833-7.667 5-9-1.333 0-7.8 3.8-9 5Z" fill="#898989"/><path d="M41 5c-1.2 1.2-19.333 19.167-30 29l5 5C26.333 28.167 44.367 9.632 45 9c1-1 4.833-7.667 5-9-1.333 0-7.8 3.8-9 5Z" fill="#fff" fill-opacity=".4"/><path d="M50 0 13 37l2 3C26 29 44.6 9.4 45 9c1.5-1.5 5-8.5 5-9Z" fill="#898989"/><path d="M50 0 13 37l2 3C26 29 44.6 9.4 45 9c1.5-1.5 5-8.5 5-9Z" fill="#fff" fill-opacity=".2"/><path d="M43 6c-.8.81-22.5 22-29.5 29l1.5 1.5c7-7 28.578-29.073 29-29.5.667-.675 2-2.5 2-3-.5 0-2.2 1.19-3 2Z" fill="#FEFEFE"/><path d="M44 7c.667-.675 2-2.5 2-3L14.25 35.75l.75.75c7-7 28.578-29.073 29-29.5Z" fill="#898989"/><path d="M44 7c.667-.675 2-2.5 2-3L14.25 35.75l.75.75c7-7 28.578-29.073 29-29.5Z" fill="#fff" fill-opacity=".6"/><g clip-path="url(#atib)"><path d="m13.083 34.625.552-1.656 3.313 3.313-1.657.552-2.208-2.209Z" fill="#546DDB"/><path d="m15.291 36.834 1.657-.552-1.104 4.785-1.38-1.38.827-2.853Z" fill="#546DDB"/><path d="m15.291 36.834 1.657-.552-1.104 4.785-1.38-1.38.827-2.853Z" fill="#fff" fill-opacity=".2"/><path d="m13.083 34.625.552-1.656-4.785 1.104 1.38 1.38 2.853-.828Z" fill="#546DDB"/><path d="m13.083 34.625.552-1.656-4.785 1.104 1.38 1.38 2.853-.828Z" fill="#000" fill-opacity=".2"/><path d="m8.496 41.42 5.967-1.733 1.38 1.38-9.754 2.76 2.407-2.406Z" fill="#546DDB"/><path d="m8.496 41.42 5.967-1.733 1.38 1.38-9.754 2.76 2.407-2.406Z" fill="#000" fill-opacity=".2"/><path d="m11.61 40.515 2.853-.828 1.197 1.196c-.553-.368-.853-.591-1.289-.736-.436-.146-1.963.245-2.76.368Z" fill="#FEFEFE"/><path d="m10.23 35.454-1.38-1.38-2.76 9.754 2.406-2.407 1.734-5.967Z" fill="#546DDB"/><path d="m10.23 35.454-1.38-1.38-2.76 9.754 2.406-2.407 1.734-5.967Z" fill="#fff" fill-opacity=".4"/><path d="m15.291 36.834-2.208-2.209-2.853.828-1.748 5.982 5.981-1.748.828-2.853Z" fill="#546DDB"/><path d="m15.291 36.834-2.208-2.209-2.853.828-1.748 5.982 5.981-1.748.828-2.853Z" fill="#fff" fill-opacity=".6"/><path d="m13.083 34.625-2.853.828c.634-.184 2.055-.496 2.669-.276.614.221 1.85 1.197 2.392 1.657l-2.208-2.209Z" fill="#FEFEFE"/></g></g><defs><clipPath id="atia"><path fill="#fff" d="M0 0h50v50H0z"/></clipPath><clipPath id="atib"><path fill="#fff" transform="scale(-1 1) rotate(-15 120.717 92.394)" d="M0 0h13.014v13.014H0z"/></clipPath></defs></svg>