<svg fill="none" viewBox="0 0 50 50" id="royal_nature_robe_bottoms" xmlns="http://www.w3.org/2000/svg"><path d="M28 1.5C22.8 1.5 15.5.702 12.5 0c0 2.5-1.5 5.5-2.5 11.053C9.06 16.273 6 38 5 48c5 1.5 16.4 2 24 2 7.6 0 13.833-1.123 16-2-.833-8.246-2.9-27.263-4.5-34.842-1.6-7.579-3-10.97-3-13.158-1.167.702-4.3 1.5-9.5 1.5Z" fill="#2FC4A7"/><path d="M28 1.5C22.8 1.5 15.5.702 12.5 0c0 2.5-1.5 5.5-2.5 11.053C9.06 16.273 6 38 5 48c5 1.5 16.4 2 24 2 7.6 0 13.833-1.123 16-2-.833-8.246-2.9-27.263-4.5-34.842-1.6-7.579-3-10.97-3-13.158-1.167.702-4.3 1.5-9.5 1.5Z" fill="#fff" fill-opacity=".2"/><path fill-rule="evenodd" clip-rule="evenodd" d="m39.3 8.243-1.55.564 1.672-.032a131.12 131.12 0 0 0-.123-.532Zm2.229 10.916-1.779.648 1.883-.036a48.88 48.88 0 0 0-.104-.612Zm1.423 10.31-.445-1.223.036 1.908-1.793.653 1.908-.036.654 1.793-.003-.155c-.118-.99-.238-1.976-.357-2.94ZM33.16 3.43l.037 1.908-1.793.654 1.908-.037.653 1.793-.037-1.908 1.793-.653-1.908.036-.653-1.793Zm2.037 21.908-.037-1.908.653 1.793 1.908-.036-1.793.653.037 1.908-.653-1.793-1.908.037 1.793-.654Zm1.347 10.816-.036-1.908.653 1.793 1.908-.037-1.793.654.037 1.908-.654-1.793-1.908.036 1.793-.653Zm-2-21-.036-1.908.653 1.793 1.908-.037-1.793.654.037 1.908-.654-1.793-1.908.036 1.793-.653Z" fill="#7445B8"/><path fill-rule="evenodd" clip-rule="evenodd" d="m39.3 8.243-1.55.564 1.672-.032a131.12 131.12 0 0 0-.123-.532Zm2.229 10.916-1.779.648 1.883-.036a48.88 48.88 0 0 0-.104-.612Zm1.423 10.31-.445-1.223.036 1.908-1.793.653 1.908-.036.654 1.793-.003-.155c-.118-.99-.238-1.976-.357-2.94ZM33.16 3.43l.037 1.908-1.793.654 1.908-.037.653 1.793-.037-1.908 1.793-.653-1.908.036-.653-1.793Zm2.037 21.908-.037-1.908.653 1.793 1.908-.036-1.793.653.037 1.908-.653-1.793-1.908.037 1.793-.654Zm1.347 10.816-.036-1.908.653 1.793 1.908-.037-1.793.654.037 1.908-.654-1.793-1.908.036 1.793-.653Zm-2-21-.036-1.908.653 1.793 1.908-.037-1.793.654.037 1.908-.654-1.793-1.908.036 1.793-.653Z" fill="#fff" fill-opacity=".8"/><path d="M39 7c-.5-2-1.5-5-1.5-7-1.6 1.2-7.333 1.5-10 1.5-1.5 0-4.7-.1-7.5-.5s-6.167-.833-7.5-1c0 1.5-.908 3.525-1.5 5.5C9.5 10.5 7.884 20 7.5 24 7.116 28 5.676 37.87 5 43.5c2.7.5 6 .133 11.5.5 5 .333 11.5.73 16.5.5 5-.23 12-1 12-1-1-7-2.7-21.1-3.5-25.5-1-5.5-2-9-2.5-11Z" fill="#7445B8"/><path d="M39 7c-.5-2-1.5-5-1.5-7-1.6 1.2-7.333 1.5-10 1.5-1.5 0-4.7-.1-7.5-.5s-6.167-.833-7.5-1c0 1.5-.908 3.525-1.5 5.5C9.5 10.5 7.884 20 7.5 24 7.116 28 5.676 37.87 5 43.5c2.7.5 6 .133 11.5.5 5 .333 11.5.73 16.5.5 5-.23 12-1 12-1-1-7-2.7-21.1-3.5-25.5-1-5.5-2-9-2.5-11Z" fill="#fff" fill-opacity=".4"/><path d="M17.5 45.695c5.5.54 10.5.249 15.5 0 5-.25 12-2.159 12-2.159A337.661 337.661 0 0 1 44.555 40C40.5 41.378 33.6 42.457 26 42.457S8.935 40.819 5.403 40c-.15 1.3-.288 2.5-.403 3.536 2.7.54 7.01 1.62 12.5 2.159Z" fill="#FEFEFE"/><path d="m21.482 4.73.609-1.808.01 1.908 1.809.61L22 5.45l-.609 1.808-.01-1.909-1.809-.609 1.909-.01Z" fill="#7445B8"/><path d="m21.482 4.73.609-1.808.01 1.908 1.809.61L22 5.45l-.609 1.808-.01-1.909-1.809-.609 1.909-.01Z" fill="#fff" fill-opacity=".8"/><path d="m20.46 14.792.61-1.808.01 1.908 1.808.61-1.908.01-.61 1.808-.01-1.908-1.808-.61 1.909-.01Z" fill="#7445B8"/><path d="m20.46 14.792.61-1.808.01 1.908 1.808.61-1.908.01-.61 1.808-.01-1.908-1.808-.61 1.909-.01Z" fill="#fff" fill-opacity=".8"/><path d="m18.417 24.945.61-1.809.01 1.909 1.808.609-1.908.01-.61 1.808-.01-1.908-1.808-.61 1.908-.01Z" fill="#7445B8"/><path d="m18.417 24.945.61-1.809.01 1.909 1.808.609-1.908.01-.61 1.808-.01-1.908-1.808-.61 1.908-.01Z" fill="#fff" fill-opacity=".8"/><path d="m13.58 7.76.61-1.808.01 1.908 1.809.61-1.909.01-.609 1.808-.01-1.909-1.808-.609 1.908-.01Z" fill="#7445B8"/><path d="m13.58 7.76.61-1.808.01 1.908 1.809.61-1.909.01-.609 1.808-.01-1.909-1.808-.609 1.908-.01Z" fill="#fff" fill-opacity=".8"/><path d="m12.963 17.879.609-1.809.01 1.909 1.808.609-1.908.01-.61 1.808-.01-1.908-1.808-.61 1.909-.01Z" fill="#7445B8"/><path d="m12.963 17.879.609-1.809.01 1.909 1.808.609-1.908.01-.61 1.808-.01-1.908-1.808-.61 1.909-.01Z" fill="#fff" fill-opacity=".8"/><path d="m17.522 35.91.609-1.809.01 1.909 1.809.609-1.909.01-.609 1.809-.01-1.909-1.809-.609 1.909-.01Z" fill="#7445B8"/><path d="m17.522 35.91.609-1.809.01 1.909 1.809.609-1.909.01-.609 1.809-.01-1.909-1.809-.609 1.909-.01Z" fill="#fff" fill-opacity=".8"/><path d="m11.88 29.872.61-1.808.01 1.908 1.809.61-1.909.01-.609 1.808-.01-1.908-1.808-.61 1.908-.01Z" fill="#7445B8"/><path d="m11.88 29.872.61-1.808.01 1.908 1.809.61-1.909.01-.609 1.808-.01-1.908-1.808-.61 1.908-.01Z" fill="#fff" fill-opacity=".8"/><path d="m36.482 6.73.609-1.808.01 1.908 1.809.61L37 7.45l-.609 1.808-.01-1.909-1.808-.609 1.908-.01Z" fill="#7445B8"/><path d="m36.482 6.73.609-1.808.01 1.908 1.809.61L37 7.45l-.609 1.808-.01-1.909-1.808-.609 1.908-.01Z" fill="#fff" fill-opacity=".8"/><path d="m35.46 16.792.61-1.808.01 1.908 1.808.61-1.908.01-.61 1.808-.01-1.908-1.808-.61 1.909-.01Z" fill="#7445B8"/><path d="m35.46 16.792.61-1.808.01 1.908 1.808.61-1.908.01-.61 1.808-.01-1.908-1.808-.61 1.909-.01Z" fill="#fff" fill-opacity=".8"/><path d="m33.417 26.945.61-1.809.01 1.909 1.808.609-1.908.01-.61 1.808-.01-1.908-1.808-.61 1.908-.01Z" fill="#7445B8"/><path d="m33.417 26.945.61-1.809.01 1.909 1.808.609-1.908.01-.61 1.808-.01-1.908-1.808-.61 1.908-.01Z" fill="#fff" fill-opacity=".8"/><path d="m28.58 9.76.61-1.808.01 1.908 1.809.61-1.909.01-.609 1.808-.01-1.909-1.808-.609 1.908-.01Z" fill="#7445B8"/><path d="m28.58 9.76.61-1.808.01 1.908 1.809.61-1.909.01-.609 1.808-.01-1.909-1.808-.609 1.908-.01Z" fill="#fff" fill-opacity=".8"/><path d="m27.963 19.879.609-1.809.01 1.909 1.808.609-1.908.01-.61 1.808-.01-1.908-1.808-.61 1.909-.01Z" fill="#7445B8"/><path d="m27.963 19.879.609-1.809.01 1.909 1.808.609-1.908.01-.61 1.808-.01-1.908-1.808-.61 1.909-.01Z" fill="#fff" fill-opacity=".8"/><path d="m32.522 37.91.609-1.809.01 1.909 1.809.609-1.909.01-.609 1.809-.01-1.909-1.809-.609 1.909-.01Z" fill="#7445B8"/><path d="m32.522 37.91.609-1.809.01 1.909 1.809.609-1.909.01-.609 1.809-.01-1.909-1.809-.609 1.909-.01Z" fill="#fff" fill-opacity=".8"/><path d="m26.88 31.872.61-1.808.01 1.908 1.809.61-1.909.01-.609 1.808-.01-1.908-1.808-.61 1.908-.01Z" fill="#7445B8"/><path d="m26.88 31.872.61-1.808.01 1.908 1.809.61-1.909.01-.609 1.808-.01-1.908-1.808-.61 1.908-.01Z" fill="#fff" fill-opacity=".8"/><path d="m39.88 33.872.61-1.808.01 1.908 1.809.61-1.909.01-.609 1.808-.01-1.908-1.809-.61 1.909-.01Z" fill="#7445B8"/><path d="m39.88 33.872.61-1.808.01 1.908 1.809.61-1.909.01-.609 1.808-.01-1.908-1.809-.61 1.909-.01Z" fill="#fff" fill-opacity=".8"/></svg>