<svg fill="none" viewBox="0 0 50 50" id="royal_fire_robe_top" xmlns="http://www.w3.org/2000/svg"><path d="M42.5 6 39 11l-1.5 18-1 19.5 13-3-7-19V6Z" fill="#898989"/><path d="M42.5 6 39 11l-1.5 18-1 19.5 13-3-7-19V6Z" fill="#fff" fill-opacity=".6"/><path d="M27 3c-4 0-7-2-8-3-1 2 1.8 18.1 9 18.5 7.2.4 6.833-16 5.5-18.5-.667.833-3.3 3-6.5 3Z" fill="#7445B8"/><path d="M27 3c-4 0-7-2-8-3-1 2 1.8 18.1 9 18.5 7.2.4 6.833-16 5.5-18.5-.667.833-3.3 3-6.5 3Z" fill="#000" fill-opacity=".4"/><path d="M37.5 28c.5-7.5 4-17 5.5-21l-9.5 4.5c-4.178 1-7.17.836-13 0L7.5 7c2 5.167 5.1 18.1 5.5 20.5.4 2.4-3 13.5-4 21.5 15 1 23.605 1.358 33 0-1-5-5.005-13.417-4.5-21Z" fill="#7445B8"/><path d="M37.5 28c.5-7.5 4-17 5.5-21l-9.5 4.5c-4.178 1-7.17.836-13 0L7.5 7c2 5.167 5.1 18.1 5.5 20.5.4 2.4-3 13.5-4 21.5 15 1 23.605 1.358 33 0-1-5-5.005-13.417-4.5-21Z" fill="#fff" fill-opacity=".4"/><path fill-rule="evenodd" clip-rule="evenodd" d="m40.804 44.676-.118.706-1.882.314 1.882.314.314 1.882.28-1.675c-.149-.496-.309-1.01-.476-1.54ZM15.196 20.412l-.314 1.882-1.882.314 1.882.314.314 1.882.314-1.882 1.882-.314-1.882-.314-.314-1.882Zm6.451 6.902.314-1.883.314 1.883 1.882.314-1.883.313-.313 1.883-.314-1.883-1.882-.313 1.882-.314Zm12.177 0 .313-1.883.314 1.883 1.882.314-1.882.313-.314 1.883-.313-1.883-1.883-.313 1.883-.314Zm1.058 9.294-.313 1.882-1.883.314 1.883.314.313 1.882.314-1.882 1.882-.314-1.882-.314-.314-1.882Zm-12.49 1.882.314-1.882.314 1.882 1.882.314-1.882.314L22.706 41l-.314-1.882-1.882-.314 1.882-.314Zm-6.51-6.108.314-1.882.314 1.882 1.882.314-1.882.314-.314 1.882-.314-1.882L14 32.696l1.882-.314ZM30 43.5l-.314 1.882-1.882.314 1.882.314.314 1.882.314-1.882 1.882-.314-1.882-.314L30 43.5Zm-13.118 1.882.314-1.882.314 1.882 1.882.314-1.882.314-.314 1.882-.314-1.882L15 45.696l1.882-.314Z" fill="#7445B8"/><path fill-rule="evenodd" clip-rule="evenodd" d="m40.804 44.676-.118.706-1.882.314 1.882.314.314 1.882.28-1.675c-.149-.496-.309-1.01-.476-1.54ZM15.196 20.412l-.314 1.882-1.882.314 1.882.314.314 1.882.314-1.882 1.882-.314-1.882-.314-.314-1.882Zm6.451 6.902.314-1.883.314 1.883 1.882.314-1.883.313-.313 1.883-.314-1.883-1.882-.313 1.882-.314Zm12.177 0 .313-1.883.314 1.883 1.882.314-1.882.313-.314 1.883-.313-1.883-1.883-.313 1.883-.314Zm1.058 9.294-.313 1.882-1.883.314 1.883.314.313 1.882.314-1.882 1.882-.314-1.882-.314-.314-1.882Zm-12.49 1.882.314-1.882.314 1.882 1.882.314-1.882.314L22.706 41l-.314-1.882-1.882-.314 1.882-.314Zm-6.51-6.108.314-1.882.314 1.882 1.882.314-1.882.314-.314 1.882-.314-1.882L14 32.696l1.882-.314ZM30 43.5l-.314 1.882-1.882.314 1.882.314.314 1.882.314-1.882 1.882-.314-1.882-.314L30 43.5Zm-13.118 1.882.314-1.882.314 1.882 1.882.314-1.882.314-.314 1.882-.314-1.882L15 45.696l1.882-.314Z" fill="#fff" fill-opacity=".8"/><path d="m28.823 33.314.314-1.883.314 1.883 1.882.313-1.882.314-.314 1.883-.314-1.883-1.882-.314 1.883-.313Z" fill="#7445B8"/><path d="m28.823 33.314.314-1.883.314 1.883 1.882.313-1.882.314-.314 1.883-.314-1.883-1.882-.314 1.883-.313Z" fill="#fff" fill-opacity=".8"/><path d="m27.823 20.314.314-1.883.314 1.883 1.882.314-1.882.313-.314 1.883-.314-1.883-1.882-.313 1.883-.314Z" fill="#7445B8"/><path d="m27.823 20.314.314-1.883.314 1.883 1.882.314-1.882.313-.314 1.883-.314-1.883-1.882-.313 1.883-.314Z" fill="#fff" fill-opacity=".8"/><path d="m36.824 17.314.313-1.883.314 1.883 1.882.314-1.882.313-.314 1.883-.313-1.883-1.883-.313 1.883-.314Z" fill="#7445B8"/><path d="m36.824 17.314.313-1.883.314 1.883 1.882.314-1.882.313-.314 1.883-.313-1.883-1.883-.313 1.883-.314Z" fill="#fff" fill-opacity=".8"/><path d="M2 27.5 6.5 7l6.5 4-2 16.5L18.5 47l-15 3L2 27.5Z" fill="#898989"/><path d="M2 27.5 6.5 7l6.5 4-2 16.5L18.5 47l-15 3L2 27.5Z" fill="#fff" fill-opacity=".8"/><path d="M27.5 5c-4 0-7-2-8.5-5-1.167.333-6.6 1.6-9 2-2.4.4-3.667 6.333-5.5 8 1 3.5 3.5 7 2.5 13 5.5-5 12-3 20.5-5 7.848-1.847 11-5 16-6.5 0 0-1-8.5-2-9s-8-2.5-8-2.5c-.5 1.833-2.5 5-6 5Z" fill="#FEFEFE"/><path d="M4.5 10c1 3.5 2 9 1 15 5.5-5 14-3 24-6.5 7.61-2.663 9-5.5 14-7 0 0-.158-1.347-.412-3C37.5 9.5 35.404 13.125 29 15c-7.182 2.103-14.5 1.5-19.5 3.5 0-6-2.926-12-2.926-12C5.9 7.933 5.247 9.32 4.5 10Z" fill="#D0333D"/><path d="M4.5 10c1 3.5 2 9 1 15 5.5-5 14-3 24-6.5 7.61-2.663 9-5.5 14-7 0 0-.158-1.347-.412-3C37.5 9.5 35.404 13.125 29 15c-7.182 2.103-14.5 1.5-19.5 3.5 0-6-2.926-12-2.926-12C5.9 7.933 5.247 9.32 4.5 10Z" fill="#fff" fill-opacity=".2"/></svg>