<svg fill="none" viewBox="0 0 50 50" id="smoke_burst" xmlns="http://www.w3.org/2000/svg"><path d="M9.737 2.014H40v3l1 2h4v41H11.316c-.527 0-3.158 0-4.737-1.568C5 44.877 5 43.309 5 42.786V6.718c0-1.045.737-2.3 1.579-3.136.842-.836 2.105-1.568 3.158-1.568Z" fill="#7445B8"/><path d="m43 9-3-4v35.031h-2L43 46V9Z" fill="#898989"/><path d="m43 9-3-4v35.031h-2L43 46V9Z" fill="#fff" fill-opacity=".2"/><path d="M10.093 40H38l5 6H10.093c-.504 0-3.119-.918-3.119-3.16C6.974 40.6 9.59 40 10.093 40Z" fill="#898989"/><path d="M10.093 40H38l5 6H10.093c-.504 0-3.119-.918-3.119-3.16C6.974 40.6 9.59 40 10.093 40Z" fill="#fff" fill-opacity=".6"/><g clip-path="url(#avqa)"><path d="M32.904 8.598c.96-.488 1.17-1.881 1.154-2.517-.264.47-.967 1.398-1.663 1.35-.87-.061-3.02-1.318-5.43-1.436-2.409-.117-4 2.034-2.712 4.568 1.031 2.027 3.547 3.344 4.676 3.749-.495-.532-1.592-1.943-2.03-3.332-.547-1.736.417-2.645 1.624-2.252 1.207.393 3.181.48 4.381-.13Z" fill="#7445B8"/><path d="M32.904 8.598c.96-.488 1.17-1.881 1.154-2.517-.264.47-.967 1.398-1.663 1.35-.87-.061-3.02-1.318-5.43-1.436-2.409-.117-4 2.034-2.712 4.568 1.031 2.027 3.547 3.344 4.676 3.749-.495-.532-1.592-1.943-2.03-3.332-.547-1.736.417-2.645 1.624-2.252 1.207.393 3.181.48 4.381-.13Z" fill="#fff" fill-opacity=".6"/><path d="M35.11 18.218c.705-2.708-3.238-5.543-5.296-6.622.968 1.466 2.767 4.551 2.209 5.17-.698.775-1.566 1.048-4.115-.005-2.55-1.054-7.63-5.268-10.982-1.465-3.353 3.803 1.89 8.494 3.944 9.407 1.184.527 1.364 1.487 1.498 3.937.648-.95.89-3.05-.134-5.05-1.41-2.75-.439-5.483 3.823-3.538 4.262 1.945 8.173 1.55 9.053-1.834Z" fill="#7445B8"/><path d="M35.11 18.218c.705-2.708-3.238-5.543-5.296-6.622.968 1.466 2.767 4.551 2.209 5.17-.698.775-1.566 1.048-4.115-.005-2.55-1.054-7.63-5.268-10.982-1.465-3.353 3.803 1.89 8.494 3.944 9.407 1.184.527 1.364 1.487 1.498 3.937.648-.95.89-3.05-.134-5.05-1.41-2.75-.439-5.483 3.823-3.538 4.262 1.945 8.173 1.55 9.053-1.834Z" fill="#fff" fill-opacity=".6"/><path d="M30.289 27.55c.278-2.49-3.565-4.537-5.522-5.248 1.249 1.188 1.52 3.438.905 5.248-.556 1.64-2.413 2.24-2.413 4.162 0 1.28 1.125 3.148 2.034 4-.094-.623-.149-2.14.38-3.213.66-1.343 4.269-1.836 4.616-4.95Z" fill="#7445B8"/><path d="M30.289 27.55c.278-2.49-3.565-4.537-5.522-5.248 1.249 1.188 1.52 3.438.905 5.248-.556 1.64-2.413 2.24-2.413 4.162 0 1.28 1.125 3.148 2.034 4-.094-.623-.149-2.14.38-3.213.66-1.343 4.269-1.836 4.616-4.95Z" fill="#fff" fill-opacity=".6"/><path d="M14.016 21.99C11.376 19.11 12.5 13.8 14 11.7 9.2 14.4 8 21 8.616 23.79c.779 3.527 3.6 4.2 7.2 6 2.88 1.44 3.4 4 3.3 5.1.6-.5 1.813-2.025 1.2-5.7-.6-3.6-3-3.6-6.3-7.2ZM32.6 24.6c1.2-2.7 3.9-1.5 4.5-5.1 1.2 4.2-1.8 4.8-1.8 6.9 0 2.1-1.8 4.5-4.5 4.8 3-2.4.947-4.681 1.8-6.6Z" fill="#FEFEFE"/></g><defs><clipPath id="avqa"><path fill="#fff" transform="matrix(-1 0 0 1 38 6)" d="M0 0h30v30H0z"/></clipPath></defs></svg>